<?xml version="1.0" encoding="UTF-8" standalone="no"?>
<svg
  width="2500"
  height="3330"
  viewBox="0 0 2500 3330"
  version="1.1"
  id="svg1"
  xml:space="preserve"
  xmlns="http://www.w3.org/2000/svg"
  xmlns:svg="http://www.w3.org/2000/svg">
   <defs
   id="defs1"><style
     id="style1">
      .hold {
        fill: #cccccc;
        stroke: #333333;
        stroke-width: 2;
        cursor: pointer;
      }
      .hold:hover {
        fill: #aaaaaa;
      }
    </style></defs>
<rect id="hold_48" x="576.15684" y="721.31687" width="143.84006999999997" height="140.63442999999995" fill="none" stroke="#000" />
<rect id="hold_23" x="573.93271" y="1523.2769" width="147.27361999999994" height="146.38649999999984" fill="none" stroke="#000" />
<rect id="hold_60" x="927.2798435851852" y="325.94927320999994" width="121.06520271481475" height="70.67151135000012" fill="none" stroke="#000" />
<rect id="hold_61" x="767.0568050607407" y="290.7676866666667" width="134.0807755674075" height="102.23506932148155" fill="none" stroke="#000" />
<rect id="hold_57" x="713.51574" y="447.73034" width="59.21447999999998" height="98.85859794814809" fill="none" stroke="#000" />
<rect id="hold_31" x="701.0766510459258" y="1264.8634215" width="92.30884698777766" height="90.12875331481473" fill="none" stroke="#000" />
<rect id="hold_34" x="1051.8957658703705" y="1191.551" width="98.2518336666667" height="68.19424725925933" fill="none" stroke="#000" />
<rect id="hold_4" x="985.7755785600003" y="2192.3926846000004" width="62.51659643999972" height="123.30913942962889" fill="none" stroke="#000" />
<rect id="hold_13" x="230.37213" y="1894.3105" width="59.21446999999998" height="98.85870004074036" fill="none" stroke="#000" />
<rect id="hold_0" x="149.77014333333335" y="2501.3607928" width="91.04560990777779" height="84.11149374444403" fill="none" stroke="#000" />
<rect id="hold_53" x="644.13026384" y="593.391837928148" width="187.70924842851878" height="56.96422679185207" fill="none" stroke="#000" />
<rect id="hold_56" x="844.6854077777778" y="465.2572488800001" width="142.41041865777788" height="128.33275696999982" fill="none" stroke="#000" />
<rect id="hold_49" x="847.0979159259259" y="742.84125784" width="188.66415794407408" height="51.90376761111099" fill="none" stroke="#000" />
<rect id="hold_39" x="1051.8983657999997" y="1001.883020548148" width="83.86089846296318" height="132.7278167851856" fill="none" stroke="#000" />
<rect id="hold_46" x="1059.2769150400002" y="791.8437862066667" width="191.10515376000012" height="178.73206299333322" fill="none" stroke="#000" />
<rect id="hold_37" x="831.3649506874076" y="1026.3578553333334" width="86.02787971259261" height="174.37541764814796" fill="none" stroke="#000" />
<rect id="hold_24" x="980.3984856507408" y="1515.2791195555556" width="160.0951543492596" height="79.17628615925946" fill="none" stroke="#000" />
<rect id="hold_18" x="156.54032418666668" y="1655.835825" width="88.76297071814813" height="144.74408481851788" fill="none" stroke="#000" />
<rect id="hold_22" x="301.8359298848148" y="1597.1727072" width="140.69482752518513" height="107.76233354074088" fill="none" stroke="#000" />
<rect id="hold_33" x="566.3591922044445" y="1198.2820652444443" width="83.1783703951852" height="138.18457914074088" fill="none" stroke="#000" />
<rect id="hold_27" x="961.0683973999998" y="1389.6910608000003" width="88.39499140000032" height="69.07630159999985" fill="none" stroke="#000" />
<rect id="hold_30" x="963.1538167200001" y="1267.2502176999997" width="88.0299984799999" height="124.32248059259291" fill="none" stroke="#000" />
<rect id="hold_41" x="317.3896967688889" y="985.6921940740742" width="129.84180239444436" height="85.85146261111072" fill="none" stroke="#000" />
<rect id="hold_10" x="553.4738563999999" y="1943.4472125" width="98.86551602037048" height="140.55534030000058" fill="none" stroke="#000" />
<rect id="hold_45" x="526.2492207348148" y="855.8051357600002" width="133.10640292259268" height="138.76856218444425" fill="none" stroke="#000" />
<rect id="hold_16" x="963.7771556599998" y="1686.447948237037" width="86.60096851777803" height="137.9827591703704" fill="none" stroke="#000" />
<rect id="hold_11" x="848.9549261" y="1909.2853193185183" width="120.47823723333352" height="87.86026628148193" fill="none" stroke="#000" />
<rect id="hold_9" x="1048.6465592592592" y="1995.7646767814813" width="84.20530377407408" height="166.57495671851802" fill="none" stroke="#000" />
<rect id="hold_15" x="1148.9261504000003" y="1794.8929103407406" width="102.17572367407388" height="231.61590145185187" fill="none" stroke="#000" />
<rect id="hold_3" x="844.3734644599999" y="2394.0418008" width="152.79355450592584" height="98.27912373703748" fill="none" stroke="#000" />
<rect id="hold_12" x="391.8360310199999" y="1914.5470062814816" width="123.3109655933336" height="79.98685714444446" fill="none" stroke="#000" />
<rect id="hold_40" x="647.50690595" y="993.501082111111" width="198.42438635259248" height="60.87636974074087" fill="none" stroke="#000" />
<rect id="hold_5" x="507.6635597007409" y="2192.723245977778" width="138.02481789925918" height="121.24187645185157" fill="none" stroke="#000" />
<rect id="hold_7" x="443.6202501955555" y="2070.2898849777775" width="83.32543652444429" height="123.98480082963033" fill="none" stroke="#000" />
<rect id="hold_59" x="1027.6646832000004" y="392.95933" width="62.38839828148116" height="151.46420565333335" fill="none" stroke="#000" />
<rect id="hold_63" x="846.1361760199999" y="177.07075856481484" width="201.37514102592615" height="106.43338071518517" fill="none" stroke="#000" />
<rect id="hold_65" x="644.298624805926" y="188.04550576000003" width="187.06773447259252" height="54.546833008888854" fill="none" stroke="#000" />
<rect id="hold_64" x="273.4851088800001" y="173.31247174814814" width="173.38241371259255" height="100.21928863703704" fill="none" stroke="#000" />
<rect id="hold_62" x="442.096372962963" y="263.06015776000004" width="216.61219695703716" height="132.20040742518518" fill="none" stroke="#000" />
<rect id="hold_36" x="40.655845273999994" y="1069.0423481481484" width="200.09664080970367" height="123.97604370370345" fill="none" stroke="#000" />
<rect id="hold_26" x="264.69386968000003" y="1394.4172625" width="181.81533067962965" height="112.35777083333323" fill="none" stroke="#000" />
<rect id="hold_6" x="59.222237" y="2091.1140941111107" width="185.95203821481482" height="124.76944928888906" fill="none" stroke="#000" />
<rect id="hold_21" x="1048.9325125" y="1587.7075067703702" width="194.03798832592588" height="205.7235450814817" fill="none" stroke="#000" />
<rect id="hold_8" x="722.3084469600001" y="1992.9336072000006" width="131.68522192888872" height="217.27805576296305" fill="none" stroke="#000" />
<rect id="hold_55" x="460.35576" y="496.4285344274074" width="187.89810476444444" height="109.73234513000011" fill="none" stroke="#000" />
<rect id="hold_51" x="339.16784004999994" y="610.481488951111" width="188.85688537222228" height="184.264581048889" fill="none" stroke="#000" />
<rect id="hold_54" x="298.49672" y="577.8038816737037" width="146.90602540444445" height="55.870788431110896" fill="none" stroke="#000" />
<rect id="hold_50" x="212.00771" y="663.04331" width="49.50483975407403" height="130.71220576296287" fill="none" stroke="#000" />
<rect id="hold_42" x="931.5214216000003" y="913.3787371555554" width="119.70029215999978" height="81.8933778666667" fill="none" stroke="#000" />
<rect id="hold_35" x="929.5637484414815" y="1133.0776672" width="119.93752706962982" height="66.88524874074074" fill="none" stroke="#000" />
<rect id="hold_43" x="785.7305626666669" y="907.13182086" width="65.82066488296277" height="84.86180280222243" fill="none" stroke="#000" />
<rect id="hold_29" x="1060.7373803851854" y="1328.738162962963" width="87.2358426148146" height="63.34075455555535" fill="none" stroke="#000" />
<rect id="hold_14" x="648.3828637214815" y="1852.4379309925919" width="183.63662627851852" height="115.05391860740815" fill="none" stroke="#000" />
<rect id="hold_52" x="1049.2402366" y="574.3100692318519" width="128.4150597222224" height="210.21360854814793" fill="none" stroke="#000" />
<rect id="hold_58" x="239.5097684740741" y="392.9162664770371" width="94.962024645926" height="183.79348256740718" fill="none" stroke="#000" />
<rect id="hold_44" x="249.71108728370365" y="898.4463813385186" width="95.17045235592593" height="92.2686994733333" fill="none" stroke="#000" />
<rect id="hold_32" x="359.7462198" y="1191.2824170074073" width="89.65634091407406" height="188.86783179259305" fill="none" stroke="#000" />
<rect id="hold_20" x="441.11866671666667" y="1596.0891551407408" width="89.33525877370369" height="182.36796174814867" fill="none" stroke="#000" />
<rect id="hold_2" x="356.51465844999996" y="2388.9589121481486" width="89.65634721222227" height="188.8679158518521" fill="none" stroke="#000" />
<rect id="hold_1" x="664.4244442414813" y="2400.4570824" width="176.87797969444455" height="185.7944286222223" fill="none" stroke="#000" />
<rect id="hold_38" x="449.82841089777776" y="1000.9777056" width="176.78085610370374" height="172.10213635555556" fill="none" stroke="#000" />
<rect id="hold_47" x="441.78249578" y="792.9609129244444" width="51.34473734592598" height="184.11466171555594" fill="none" stroke="#000" />
<rect id="hold_28" x="462.13212456" y="1387.8268130962963" width="187.98570544" height="49.55005290370377" fill="none" stroke="#000" />
<rect id="hold_25" x="803.27456388" y="1391.5073024296296" width="52.67960298814819" height="189.3260599703708" fill="none" stroke="#000" />
<rect id="hold_19" x="819.98139" y="1646.7701860999998" width="62.927101607777786" height="154.1318933962964" fill="none" stroke="#000" />
<rect id="hold_17" x="624.2675022222222" y="1718.413409885185" width="148.3165665214815" height="74.80678038888891" fill="none" stroke="#000" />
<rect id="hold_100" x="2259.18424302963" y="2501.3607928" width="91.04558659999975" height="84.11149374444403" fill="none" stroke="#000" />
<rect id="hold_101" x="1658.697585114815" y="2400.4570824" width="176.87796366296243" height="185.7944286222223" fill="none" stroke="#000" />
<rect id="hold_102" x="2053.8290064296298" y="2388.9589121481486" width="89.65632597036983" height="188.8679158518521" fill="none" stroke="#000" />
<rect id="hold_103" x="1502.8329751703702" y="2394.0418008" width="152.7935934296297" height="98.27912373703748" fill="none" stroke="#000" />
<rect id="hold_104" x="1451.707825" y="2192.3926846000004" width="62.51657580000028" height="123.30913942962889" fill="none" stroke="#000" />
<rect id="hold_105" x="1854.3116312000002" y="2192.723245977778" width="138.02482423703714" height="121.24187645185157" fill="none" stroke="#000" />
<rect id="hold_106" x="2254.8257324740744" y="2091.1140941111107" width="185.9520675259255" height="124.76944928888906" fill="none" stroke="#000" />
<rect id="hold_107" x="1973.0543159999995" y="2070.2898849777775" width="83.32544962963016" height="123.98480082963033" fill="none" stroke="#000" />
<rect id="hold_108" x="1646.0063407407408" y="1992.9336072000006" width="131.6852000592594" height="217.27805576296305" fill="none" stroke="#000" />
<rect id="hold_109" x="1367.1481369666667" y="1995.7646767814813" width="84.20530377407408" height="166.57495671851802" fill="none" stroke="#000" />
<rect id="hold_110" x="1847.6606205185185" y="1943.4472125" width="98.86555468148163" height="140.55534030000058" fill="none" stroke="#000" />
<rect id="hold_111" x="1530.5668370370372" y="1909.2853193185183" width="120.47825596296275" height="87.86026628148193" fill="none" stroke="#000" />
<rect id="hold_112" x="1984.8530107259264" y="1914.5470062814816" width="123.31096037407292" height="79.98685714444446" fill="none" stroke="#000" />
<rect id="hold_113" x="2210.4134" y="1894.3105" width="59.214500000000044" height="98.85870004074036" fill="none" stroke="#000" />
<rect id="hold_114" x="1667.9805" y="1852.4379309925919" width="183.6366702222224" height="115.05391860740815" fill="none" stroke="#000" />
<rect id="hold_115" x="1248.8981259259258" y="1794.8929103407406" width="102.17572367407456" height="231.61590145185187" fill="none" stroke="#000" />
<rect id="hold_116" x="1449.6218758222224" y="1686.447948237037" width="86.60096718888826" height="137.9827591703704" fill="none" stroke="#000" />
<rect id="hold_117" x="1727.4159626666665" y="1718.413409885185" width="148.3165336296297" height="74.80678038888891" fill="none" stroke="#000" />
<rect id="hold_118" x="2254.6967183222223" y="1655.835825" width="88.76296834444474" height="144.74408481851788" fill="none" stroke="#000" />
<rect id="hold_119" x="1617.0915264259258" y="1646.7701860999998" width="62.92707357407426" height="154.1318933962964" fill="none" stroke="#000" />
<rect id="hold_120" x="1969.5460821037036" y="1596.0891551407408" width="89.33523207407416" height="182.36796174814867" fill="none" stroke="#000" />
<rect id="hold_121" x="1257.0294991740739" y="1587.7075067703702" width="194.0379883259261" height="205.7235450814817" fill="none" stroke="#000" />
<rect id="hold_122" x="2057.4692295999994" y="1597.1727072" width="140.6948461444449" height="107.76233354074088" fill="none" stroke="#000" />
<rect id="hold_123" x="1778.7937" y="1523.2769" width="147.2736" height="146.38649999999984" fill="none" stroke="#000" />
<rect id="hold_124" x="1359.50636" y="1515.2791195555556" width="160.0951928962961" height="79.17628615925946" fill="none" stroke="#000" />
<rect id="hold_125" x="1644.0458462814813" y="1391.5073024296296" width="52.67961471851868" height="189.3260599703708" fill="none" stroke="#000" />
<rect id="hold_126" x="2053.490768" y="1394.4172625" width="181.81536879999976" height="112.35777083333323" fill="none" stroke="#000" />
<rect id="hold_127" x="1450.5366112000002" y="1389.6910608000003" width="88.39499459999979" height="69.07630159999985" fill="none" stroke="#000" />
<rect id="hold_128" x="1849.8822" y="1387.8268130962963" width="187.98568879999993" height="49.55005290370377" fill="none" stroke="#000" />
<rect id="hold_129" x="1352.0267769999998" y="1328.738162962963" width="87.23584261481551" height="63.34075455555535" fill="none" stroke="#000" />
<rect id="hold_130" x="1448.8161848" y="1267.2502176999997" width="88.02999920000025" height="124.32248059259291" fill="none" stroke="#000" />
<rect id="hold_131" x="1706.6145135629627" y="1264.8634215" width="92.30884031481492" height="90.12875331481473" fill="none" stroke="#000" />
<rect id="hold_132" x="2050.597445866667" y="1191.2824170074073" width="89.65634953333301" height="188.86783179259305" fill="none" stroke="#000" />
<rect id="hold_133" x="1850.4624282703703" y="1198.2820652444443" width="83.17838441111098" height="138.18457914074088" fill="none" stroke="#000" />
<rect id="hold_134" x="1349.852400462963" y="1191.551" width="98.25183366666647" height="68.19424725925933" fill="none" stroke="#000" />
<rect id="hold_135" x="1450.4987245037037" y="1133.0776672" width="119.93752171851884" height="66.88524874074074" fill="none" stroke="#000" />
<rect id="hold_136" x="2259.247472803704" y="1069.0423481481484" width="200.0966576962951" height="123.97604370370345" fill="none" stroke="#000" />
<rect id="hold_137" x="1582.6072000000004" y="1026.3578553333334" width="86.02785010370326" height="174.37541764814796" fill="none" stroke="#000" />
<rect id="hold_138" x="1873.3907488333334" y="1000.9777056" width="176.78083433333313" height="172.10213635555556" fill="none" stroke="#000" />
<rect id="hold_139" x="1364.240735737037" y="1001.883020548148" width="83.8608984629625" height="132.7278167851856" fill="none" stroke="#000" />
<rect id="hold_140" x="1654.068715525926" y="993.501082111111" width="198.42439277407357" height="60.87636974074087" fill="none" stroke="#000" />
<rect id="hold_141" x="2052.768526396296" y="985.6921940740742" width="129.84175713703735" height="85.85146261111072" fill="none" stroke="#000" />
<rect id="hold_142" x="1448.778286251852" y="913.3787371555554" width="119.70027774814866" height="81.8933778666667" fill="none" stroke="#000" />
<rect id="hold_143" x="1648.4487754629629" y="907.13182086" width="65.82064675925926" height="84.86180280222243" fill="none" stroke="#000" />
<rect id="hold_144" x="2155.1184695814813" y="898.4463813385186" width="95.17041012592517" height="92.2686994733333" fill="none" stroke="#000" />
<rect id="hold_145" x="1840.644389351852" y="855.8051357600002" width="133.10638679629596" height="138.76856218444425" fill="none" stroke="#000" />
<rect id="hold_146" x="1249.6179312000004" y="791.8437862066667" width="191.1051384" height="178.73206299333322" fill="none" stroke="#000" />
<rect id="hold_147" x="2006.8727941037037" y="792.9609129244444" width="51.34471079629611" height="184.11466171555594" fill="none" stroke="#000" />
<rect id="hold_148" x="1780.0031" y="721.31687" width="143.84010000000012" height="140.63442999999995" fill="none" stroke="#000" />
<rect id="hold_149" x="1464.2379263999997" y="742.84125784" width="188.6641698962967" height="51.90376761111099" fill="none" stroke="#000" />
<rect id="hold_150" x="2238.4874541333334" y="663.04331" width="49.50484586666653" height="130.71220576296287" fill="none" stroke="#000" />
<rect id="hold_151" x="1971.9752674074075" y="610.481488951111" width="188.85686279259198" height="184.264581048889" fill="none" stroke="#000" />
<rect id="hold_152" x="1322.3447036777777" y="574.3100692318519" width="128.41505972222217" height="210.21360854814793" fill="none" stroke="#000" />
<rect id="hold_153" x="1668.1604541666668" y="593.391837928148" width="187.70928353333306" height="56.96422679185207" fill="none" stroke="#000" />
<rect id="hold_154" x="2054.5972408592593" y="577.8038816737037" width="146.90605914074058" height="55.870788431110896" fill="none" stroke="#000" />
<rect id="hold_155" x="1851.7461364444443" y="496.4285344274074" width="187.8980635555556" height="109.73234513000011" fill="none" stroke="#000" />
<rect id="hold_156" x="1512.904133125926" y="465.2572488800001" width="142.41043724444444" height="128.33275696999982" fill="none" stroke="#000" />
<rect id="hold_157" x="1727.2698" y="447.73034" width="59.214500000000044" height="98.85859794814809" fill="none" stroke="#000" />
<rect id="hold_158" x="2165.5281848000004" y="392.9162664770371" width="94.9620275259258" height="183.79348256740718" fill="none" stroke="#000" />
<rect id="hold_159" x="1409.9469185185185" y="392.95933" width="62.38839828148184" height="151.46420565333335" fill="none" stroke="#000" />
<rect id="hold_160" x="1451.6549537" y="325.94927320999994" width="121.0651797518517" height="70.67151135000012" fill="none" stroke="#000" />
<rect id="hold_161" x="1598.8624290074076" y="290.7676866666667" width="134.0807765629629" height="102.23506932148155" fill="none" stroke="#000" />
<rect id="hold_162" x="1841.2914256000006" y="263.06015776000004" width="216.61218921481463" height="132.20040742518518" fill="none" stroke="#000" />
<rect id="hold_163" x="1452.488682962963" y="177.07075856481484" width="201.375152937037" height="106.43338071518517" fill="none" stroke="#000" />
<rect id="hold_164" x="2053.1324375000004" y="173.31247174814814" width="173.38244329999998" height="100.21928863703704" fill="none" stroke="#000" />
<rect id="hold_165" x="1668.633666822222" y="188.04550576000003" width="187.0677207629633" height="54.546833008888854" fill="none" stroke="#000" />
<rect id="hold_208" x="1178.6381" y="318.85725" width="147.2737000000002" height="146.38649999999996" fill="none" stroke="#000" />
<rect id="hold_205" x="1175.0257" y="1117.9949" width="147.2735" height="146.38660000000004" fill="none" stroke="#000" />
<rect id="hold_202" x="1170.5011" y="2128.0025" width="147.2735" height="146.38639999999987" fill="none" stroke="#000" />
<rect id="hold_209" x="1153.017754562963" y="106.5399291051852" width="195.11796982222222" height="115.7285708948148" fill="none" stroke="#000" />
<rect id="hold_207" x="1205.5868615111112" y="590.0908836533333" width="89.65640868888886" height="188.86783730666696" fill="none" stroke="#000" />
<rect id="hold_206" x="1151.2007314962964" y="982.5371750814816" width="192.82186290370396" height="86.36855843703688" fill="none" stroke="#000" />
<rect id="hold_204" x="1156.7349393000002" y="1304.5136062222225" width="188.84371347777733" height="91.42253297777734" fill="none" stroke="#000" />
<rect id="hold_203" x="1160.6780838222226" y="1437.9431632000003" width="186.6879384814813" height="117.91211472222176" fill="none" stroke="#000" />
<rect id="hold_201" x="1153.2382704000004" y="2391.0815780111116" width="188.00171808148116" height="89.30139478888896" fill="none" stroke="#000" />
<rect id="hold_200" x="1218.1234274074075" y="2588.7109831703706" width="54.498889592592604" height="189.30005202963048" fill="none" stroke="#000" />
</svg>