<?xml version="1.0" encoding="UTF-8" standalone="no"?>
<svg
   width="2500"
   height="3330"
   viewBox="0 0 2500 3330"
   version="1.1"
   id="svg1"
   xml:space="preserve"
   xmlns="http://www.w3.org/2000/svg"
   xmlns:svg="http://www.w3.org/2000/svg">
   <defs
   id="defs1"><style
     id="style1">
      .hold {
        fill: #cccccc;
        stroke: #333333;
        stroke-width: 2;
        cursor: pointer;
      }
      .hold:hover {
        fill: #aaaaaa;
      }
    </style></defs>
   <path
   class="hold"
   id="hold_48"
   d="M 576.15684,787.70177 C 576.15684,819.6126 595.19883,861.9513 645.01597,861.9513 694.83309,861.9513 719.99693,823.35858 719.99691,791.04654 719.99686,758.7345 697.06916,721.31687 648.84869,721.31687 600.62822,721.31687 576.15684,755.79094 576.15684,787.70177 Z" />
   <path
   class="hold"
   id="hold_23"
   d="M 573.93271,1594.2634 C 573.93271,1626.1742 597.55282,1669.6634 647.36994,1669.6634 697.18707,1669.6634 721.20636,1624.168 721.20633,1591.8562 721.2063,1559.544 695.98957,1523.2769 647.76909,1523.2769 599.54864,1523.2769 573.93271,1562.3525 573.93271,1594.2634 Z" />
   <path
   class="hold"
   id="hold_60"
   d="M 935.18078,356.5607 C 944.25171,371.08183 974.77674,382.68952 995.4092,388.23941 1043.533,401.1841 1049.6998,402.76175 1048.1443,366.4712 1046.961,338.86824 1027.5527,343.83139 979.23933,331.62113 932.18291,319.72856 915.96416,325.79784 935.18078,356.5607 Z" />
   <path
   class="hold"
   id="hold_61"
   d="M 788.36364,345.89133 C 766.74259,374.99713 749.57561,392.89918 799.39274,392.89918 864.01453,392.89918 843.80014,397.8161 878.00834,340.71536 908.00899,290.63785 917.25981,279.96573 853.46194,300.82454 822.21191,311.04178 803.81203,325.09509 788.36364,345.89133 Z" />
   <path
   class="hold"
   id="hold_57"
   d="M 713.51574,495.20499 C 713.51574,531.52917 724.71917,547.68442 741.92544,546.53144 770.66617,544.60553 772.73022,532.01065 772.73022,495.68647 772.73022,459.36224 765.78485,447.38915 741.92544,447.73034 726.0906,447.95675 713.51574,458.88078 713.51574,495.20499 Z" />
   <path
   class="hold"
   id="hold_31"
   d="M 720.6774,1334.2726 C 745.70479,1360.4757 771.13764,1358.7731 782.75529,1345.9638 802.16101,1324.5676 793.58984,1320.2974 768.56249,1294.0942 743.53509,1267.8911 726.1287,1255.7528 709.15235,1272.6078 697.88559,1283.794 695.65,1308.0694 720.6774,1334.2726 Z" />
   <path
   class="hold"
   id="hold_34"
   d="M 1098.5923,1259.5606 C 1134.6578,1261.8606 1150.0851,1243.0052 1150.0298,1225.6719 1149.9374,1196.7191 1155.4236,1191.5369 1101.4975,1191.551 1048.1744,1191.5651 1053.1045,1195.4602 1051.9326,1219.4158 1051.1546,1235.3148 1062.527,1257.2604 1098.5923,1259.5606 Z" />
   <path
   class="hold"
   id="hold_4"
   d="M 986.36529,2247.5483 C 984.43406,2283.1475 986.9656,2313.7592 998.14668,2315.4075 1026.6464,2319.609 1033.1785,2281.5917 1038.3927,2258.5327 1046.4027,2223.112 1062.8074,2183.411 1020.3144,2194.1581 1004.9566,2198.0422 988.33288,2211.2781 986.36529,2247.5483 Z" />
   <path
   class="hold"
   id="hold_13"
   d="M 230.37213,1941.7852 C 230.37213,1978.1095 241.57553,1994.2647 258.78183,1993.1117 287.52254,1991.1858 289.5866,1978.5908 289.5866,1942.2667 289.5866,1905.9425 282.64122,1893.9694 258.78183,1894.3105 242.94696,1894.5369 230.37213,1905.461 230.37213,1941.7852 Z" />
   <path
   class="hold"
   id="hold_0"
   d="M 177.84485,2517.9883 C 149.48947,2540.5073 143.82377,2559.3588 155.39087,2572.2142 174.7118,2593.6878 185.82331,2587.5076 214.17881,2564.9887 242.53424,2542.4693 247.57495,2529.569 232.51703,2510.9629 222.52354,2498.6146 206.2003,2495.4691 177.84485,2517.9883 Z" />
   <path
   class="hold"
   id="hold_53"
   d="M 675.28211,619.48902 C 708.16714,634.55051 718.36866,641.09875 748.92028,645.80913 798.16155,653.40095 813.9806,651.75499 825.48586,638.85383 853.76047,607.14865 781.8365,594.92347 732.0194,594.92347 682.20229,594.92347 598.2035,584.1868 675.28211,619.48902 Z" />
   <path
   class="hold"
   id="hold_56"
   d="M 845.49831,554.22435 C 844.16732,590.52395 854.84313,593.27626 904.66027,593.27626 954.47735,593.27625 998.25166,596.56881 984.56326,581.84879 955.59754,550.70059 916.49578,511.56156 879.93399,477.54961 833.33529,434.20072 846.88115,516.51018 845.49831,554.22435 Z" />
   <path
   class="hold"
   id="hold_49"
   d="M 970.77251,746.48919 C 941.85105,740.52559 940.76731,741.53413 901.18663,752.04232 847.99337,766.1645 833.06792,791.72208 860.71023,793.29563 903.74661,795.74548 959.23034,794.66389 1009.795,793.172 1074.2406,791.27058 1002.3885,753.00839 970.77251,746.48919 Z" />
   <path
   class="hold"
   id="hold_39"
   d="M 1097.16,1118.8848 C 1164.0474,1095.7901 1129.104,1077.6203 1103.0621,1047.9676 1049.5458,987.0319 1054.3831,997.3342 1053.0234,1017.7641 1050.2096,1060.0433 1053.6122,1063.4512 1053.1926,1094.211 1052.3084,1159.0106 1068.1494,1128.9012 1097.16,1118.8848 Z" />
   <path
   class="hold"
   id="hold_46"
   d="M 1216.6551,904.81739 C 1243.6466,892.79313 1247.5502,896.57297 1249.479,855.46976 1252.245,796.51688 1249.1427,783.29009 1233.6302,796.56143 1199.3055,825.92692 1122.9374,905.01045 1084.9217,938.55593 993.24706,1019.451 1173.5093,924.03812 1216.6551,904.81739 Z" />
   <path
   class="hold"
   id="hold_37"
   d="M 843.1824,1072.9356 C 824.5404,1095.9474 834.51981,1130.0501 831.60571,1171.0946 829.16716,1205.441 845.78107,1210.2709 857.54531,1183.8478 876.55885,1141.1425 890.01966,1109.4519 910.50425,1062.9603 936.61221,1003.7058 883.43861,1023.2429 843.1824,1072.9356 Z" />
   <path
   class="hold"
   id="hold_24"
   d="M 1065.1883,1519.193 C 1035.5013,1519.8518 1021.5124,1527.06 996.39971,1559.5572 971.28694,1592.0544 978.49545,1591.3847 998.82565,1592.6749 1053.8296,1596.1655 1038.474,1600.4356 1119.8258,1543.2803 1178.9906,1501.7127 1095.8551,1518.5126 1065.1883,1519.193 Z" />
   <path
   class="hold"
   id="hold_18"
   d="M 159.46651,1665.1928 C 144.98071,1691.0512 188.01083,1749.8484 204.44278,1787.5372 215.32081,1812.4877 241.71633,1799.2247 242.21223,1768.2353 242.82934,1729.6736 247.19183,1723.4931 244.35359,1672.7263 243.01073,1648.7059 165.61553,1654.2166 159.46651,1665.1928 Z" />
   <path
   class="hold"
   id="hold_22"
   d="M 390.48807,1599.9892 C 360.96557,1600.2633 355.83125,1617.4027 330.89916,1650.0403 294.3528,1697.8814 296.21053,1710.8691 314.87258,1702.6602 399.07724,1665.6216 399.21962,1679.4682 430.10817,1630.3413 459.2043,1584.0654 433.60519,1599.5888 390.48807,1599.9892 Z" />
   <path
   class="hold"
   id="hold_33"
   d="M 584.30439,1263.7259 C 571.19623,1278.8501 544.0692,1291.5987 601.73847,1320.4768 628.01946,1333.6372 650.27612,1354.6221 649.52811,1306.0194 649.10733,1278.6804 649.27472,1265.8138 649.52959,1226.6828 649.8593,1176.066 643.19197,1195.7815 584.30439,1263.7259 Z" />
   <path
   class="hold"
   id="hold_27"
   d="M 975.13162,1455.0743 C 999.42755,1467.5927 1009.7936,1446.0815 1028.9763,1423.7375 1048.1587,1401.3937 1060.2238,1390.6461 1035.7524,1390.813 950.18599,1391.3966 965.083,1382.279 962.32256,1407.7464 959.93145,1429.806 959.43617,1446.9874 975.13162,1455.0743 Z" />
   <path
   class="hold"
   id="hold_30"
   d="M 975.34043,1324.6528 C 958.50128,1346.2541 949.88291,1355.8068 1013.1477,1379.196 1052.4707,1393.7338 1052.866,1405.8803 1050.2752,1352.0332 1048.6516,1318.289 1048.0336,1330.4245 1049.6797,1291.3276 1052.0292,1235.5249 1002.8374,1289.3796 975.34043,1324.6528 Z" />
   <path
   class="hold"
   id="hold_41"
   d="M 428.77853,1008.6108 C 403.97111,959.63792 358.59226,1000.9135 339.89238,1023.6668 321.19259,1046.4204 298.94666,1073.9172 342.96591,1071.3897 376.52164,1069.463 392.75006,1066.6098 431.38625,1061.8023 464.03622,1057.7396 437.52421,1025.8759 428.77853,1008.6108 Z" />
   <path
   class="hold"
   id="hold_10"
   d="M 651.00906,2022.8939 C 649.02978,1995.5235 659.20469,1998.6369 611.76613,1971.7399 551.32012,1937.4678 550.71845,1926.7716 555.03342,1983.1196 557.6128,2016.8036 575.59789,2066.5202 612.93679,2079.817 654.57609,2094.6448 654.33223,2068.8489 651.00906,2022.8939 Z" />
   <path
   class="hold"
   id="hold_45"
   d="M 530.42468,950.8331 C 529.92013,987.6166 524.43324,992.5438 598.08336,994.1675 637.41244,995.0346 670.25543,995.9844 655.9391,980.1494 625.64518,946.64171 593.75017,909.85639 556.79986,872.83217 509.706,825.64407 531.33711,884.30721 530.42468,950.8331 Z" />
   <path
   class="hold"
   id="hold_16"
   d="M 1017.6569,1811.4328 C 1051.8431,1791.6386 1047.0654,1808.0828 1048.3604,1744.6504 1049.2004,1703.5102 1056.1616,1678.8958 1038.1757,1688.5101 1006.4215,1705.4849 993.21371,1729.123 971.34773,1778.5185 950.52687,1825.5533 974.60398,1836.3607 1017.6569,1811.4328 Z" />
   <path
   class="hold"
   id="hold_11"
   d="M 907.10881,1911.0825 C 843.64294,1915.1378 841.99351,1909.7441 856.25462,1963.3146 867.11185,2004.0985 884.00972,2004.5079 907.1372,1983.1744 938.89617,1953.8791 914.12226,1968.9427 952.5613,1935.8881 985.2871,1907.7465 970.6085,1907.0249 907.10881,1911.0825 Z" />
   <path
   class="hold"
   id="hold_9"
   d="M 1128.9412,2121.242 C 1118.8682,2051.5182 1118.8195,2041.0127 1085.5317,2017.0603 1039.6769,1984.0651 1048.2586,1989.2913 1051.3451,2033.5592 1053.8172,2069.0141 1044.2642,2062.1752 1107.844,2143.5073 1142.4546,2187.7817 1132.0879,2143.0231 1128.9412,2121.242 Z" />
   <path
   class="hold"
   id="hold_15"
   d="M 1214.38,2004.3031 C 1260.6285,1988.253 1250.8541,2002.1852 1248.9188,1913.0213 1245.0276,1733.7651 1245.5624,1788.0711 1206.3108,1881.4716 1189.5373,1921.3843 1171.0782,1948.5336 1154.4582,1996.5582 1137.0649,2046.8169 1161.4124,2022.6848 1214.38,2004.3031 Z" />
   <path
   class="hold"
   id="hold_3"
   d="M 988.58342,2414.7732 C 983.50478,2385.8184 972.30535,2396.1858 874.27195,2394.5757 851.28062,2394.1982 833.59434,2427.6605 852.07283,2436.2784 891.17397,2454.5151 907.67312,2464.5452 953.78563,2485.4521 1017.2798,2514.2397 993.90957,2445.1371 988.58342,2414.7732 Z" />
   <path
   class="hold"
   id="hold_12"
   d="M 444.48985,1993.2974 C 455.04137,1991.5181 487.05124,1986.5599 507.82003,1951.0993 528.58879,1915.6391 500.5866,1908.8237 482.68759,1918.5998 444.81254,1939.2863 455.56877,1932.2057 412.19136,1958.3665 363.17942,1987.9257 414.23833,1998.3985 444.48985,1993.2974 Z" />
   <path
   class="hold"
   id="hold_40"
   d="M 659.82143,1025.2089 C 682.37296,1044.3617 711.93576,1049.2015 752.6758,1053.2431 797.18065,1057.6582 880.48286,1048.9231 830.56014,1031.9306 789.73219,1018.0334 752.47338,1008.4436 703.10426,997.356 650.30885,985.4988 633.32419,1002.7051 659.82143,1025.2089 Z" />
   <path
   class="hold"
   id="hold_5"
   d="M 582.04513,2311.3885 C 637.87518,2314.5833 641.29412,2310.5906 642.57666,2271.5422 644.14561,2223.7728 656.75025,2167.6605 616.82568,2204.7565 583.17114,2236.0267 565.92152,2248.4709 526.14633,2284.0766 475.45201,2329.457 540.63739,2309.0191 582.04513,2311.3885 Z" />
   <path
   class="hold"
   id="hold_7"
   d="M 513.15972,2172.8195 C 545.03379,2159.5192 515.0181,2131.8414 490.13261,2101.8286 461.84605,2067.7144 445.82431,2051.1658 445.21767,2105.2777 444.97652,2126.7819 442.34244,2157.8489 444.39939,2185.8598 445.99794,2207.6279 492.67689,2181.3665 513.15972,2172.8195 Z" />
   <path
   class="hold"
   id="hold_59"
   d="M 1029.6978,502.73831 C 1022.9822,547.40522 1032.0549,537.57195 1069.6218,543.94265 1096.2489,548.45817 1089.2159,520.99003 1089.2159,475.81601 1089.2159,430.64195 1087.7808,392.95938 1060.7773,392.95933 1046.7714,392.9593 1036.7872,455.58476 1029.6978,502.73831 Z" />
   <path
   class="hold"
   id="hold_63"
   d="M 851.98544,227.80872 C 872.4768,298.3042 871.911,289.50631 938.59003,268.26873 1016.0123,243.60943 1051.5645,241.51747 1047.1646,205.2583 1043.7405,177.04097 973.61383,176.17658 923.81125,177.38534 834.42406,179.55483 841.85061,192.94222 851.98544,227.80872 Z" />
   <path
   class="hold"
   id="hold_65"
   d="M 644.44892,213.84193 C 642.51868,245.61412 657.15537,240.79283 738.51286,242.08681 788.32371,242.87904 830.28652,246.25497 831.28943,215.13592 832.52319,176.85573 820.51058,191.78704 733.36342,190.77302 653.93833,189.84888 646.65299,177.56227 644.44892,213.84193 Z" />
   <path
   class="hold"
   id="hold_64"
   d="M 279.50056,245.99912 C 260.21973,276.72135 288.64869,286.81286 343.27145,249.77985 384.57182,221.7791 413.04938,216.30791 439.07986,205.34328 472.40956,191.30405 390.58716,156.06683 348.87798,183.44857 311.47545,208.0031 294.71838,221.7509 279.50056,245.99912 Z" />
   <path
   class="hold"
   id="hold_62"
   d="M 461.58806,328.48648 C 427.91362,413.42889 425.33246,392.8411 556.93939,393.61028 638.92162,394.08943 635.96798,403.23745 652.93437,349.83742 672.54442,288.11671 643.66083,314.77865 544.70944,280.83168 462.77248,252.72176 492.42565,250.69993 461.58806,328.48648 Z" />
   <path
   class="hold"
   id="hold_36"
   d="M 51.848402,1131.7506 C 30.160253,1205.9571 30.797375,1191.9369 138.90622,1192.0115 220.88976,1192.0679 217.89074,1199.758 234.90115,1153.1013 252.27166,1105.4572 234.48188,1122.2075 137.04293,1084.0958 63.399627,1055.2911 71.058348,1066.0222 51.848402,1131.7506 Z" />
   <path
   class="hold"
   id="hold_26"
   d="M 446.44637,1439.3859 C 447.61095,1374.4809 433.37714,1391.6529 341.65375,1417.5508 276.25745,1436.0153 253.11283,1444.8716 270.00898,1482.0457 277.73438,1499.0426 316.4427,1510.4043 355.45129,1505.7232 441.41889,1495.4076 445.41444,1496.8972 446.44637,1439.3859 Z" />
   <path
   class="hold"
   id="hold_6"
   d="M 59.222237,2155.0041 C 57.891176,2216.4839 98.995128,2216.6774 155.44663,2215.6802 201.16814,2214.8726 235.75201,2205.6273 243.51211,2175.567 251.32501,2145.3025 234.23856,2140.5083 135.28721,2106.5613 53.350176,2078.4515 60.731418,2085.2941 59.222237,2155.0041 Z" />
   <path
   class="hold"
   id="hold_21"
   d="M 1077.8432,1737.3813 C 1113.8567,1821.3485 1097.5377,1808.639 1191.062,1715.5648 1249.3212,1657.5858 1253.6753,1666.15 1228.065,1616.353 1198.4643,1558.7969 1196.8295,1598.1801 1103.0175,1644.5844 1025.3365,1683.0094 1044.8633,1660.4875 1077.8432,1737.3813 Z" />
   <path
   class="hold"
   id="hold_8"
   d="M 787.5978,2191.0188 C 872.34895,2224.244 851.88619,2226.9891 851.68791,2094.7019 851.56441,2012.2961 860.68691,2015.1976 807.43786,1998.5352 745.89168,1979.2765 772.62769,2008.113 739.58005,2107.8201 712.21486,2190.383 709.98638,2160.5926 787.5978,2191.0188 Z" />
   <path
   class="hold"
   id="hold_55"
   d="M 460.35576,581.16547 C 460.35578,617.48969 505.7024,603.85089 559.98985,602.76332 669.12842,600.57689 645.55473,591.76265 647.16166,547.6233 649.35283,487.4358 642.06351,487.97535 562.74863,510.21851 509.20114,525.23542 460.35576,544.84129 460.35576,581.16547 Z" />
   <path
   class="hold"
   id="hold_51"
   d="M 351.81235,767.06753 C 324.51138,790.86676 341.47348,794.74607 401.7851,794.74607 466.17801,794.74607 447.0937,779.36432 482.0755,713.15235 499.0249,681.07123 554.23622,587.4274 513.14386,615.73569 480.81765,638.005 400.20381,724.88298 351.81235,767.06753 Z" />
   <path
   class="hold"
   id="hold_54"
   d="M 298.49672,601.7341 C 299.88393,632.67417 321.39056,632.34284 371.20768,632.34284 421.02477,632.34284 448.75447,642.55881 445.08469,606.42238 442.16955,577.71662 419.5621,575.27552 397.44402,579.32985 348.36092,588.32703 298.08212,592.48689 298.49672,601.7341 Z" />
   <path
   class="hold"
   id="hold_50"
   d="M 212.00771,725.88392 C 212.00774,762.20811 223.59504,797.72367 245.07264,793.4128 264.99612,789.41383 261.2297,758.10589 261.2297,721.78169 261.2297,685.45746 249.4837,662.96011 239.82539,663.04331 218.35808,663.22822 212.00771,689.55971 212.00771,725.88392 Z" />
   <path
   class="hold"
   id="hold_42"
   d="M 971.56474,978.9617 C 1002.5724,997.6175 1059.7924,1002.239 1050.1588,982.4684 1041.1092,963.89598 1009.6968,936.71554 986.06975,927.0924 961.6809,917.15904 939.7427,908.34184 934.85329,916.7145 923.98578,935.32412 940.55708,960.30594 971.56474,978.9617 Z" />
   <path
   class="hold"
   id="hold_35"
   d="M 986.38925,1184.5355 C 1031.9788,1196.586 1052.5079,1218.4099 1049.1482,1169.6311 1046.9899,1138.2966 1038.0014,1147.3585 988.07855,1137.3222 952.64235,1130.1979 931.84717,1132.2748 929.9985,1141.8037 925.88947,1162.9834 951.24689,1175.2468 986.38925,1184.5355 Z" />
   <path
   class="hold"
   id="hold_43"
   d="M 785.78979,938.1811 C 786.87626,960.94866 796.86983,957.32767 827.60014,982.8547 855.45862,1005.9961 851.3366,982.1238 851.3366,945.79954 851.33656,909.47536 847.4759,901.62803 819.50196,910.41571 789.135,919.955 785.15356,924.84937 785.78979,938.1811 Z" />
   <path
   class="hold"
   id="hold_29"
   d="M 1097.7261,1329.95 C 1083.7075,1334.9676 1076.9944,1358.205 1068.2896,1371.1503 1048.0513,1401.2473 1070.9674,1390.3293 1107.0926,1389.3673 1143.218,1388.405 1159.9575,1376.6782 1138.4031,1356.7167 1112.9045,1333.1026 1110.2354,1325.4725 1097.7261,1329.95 Z" />
   <path
   class="hold"
   id="hold_14"
   d="M 649.63234,1923.0256 C 649.27817,1964.4925 688.9019,1971.6268 743.03276,1965.6478 796.70579,1959.7194 829.34931,1968.5227 832.01949,1915.513 833.26499,1890.7871 778.98812,1889.7643 732.15753,1872.6872 629.88343,1835.3923 650.27203,1848.1205 649.63234,1923.0256 Z" />
   <path
   class="hold"
   id="hold_52"
   d="M 1050.256,682.72525 C 1049.8292,792.36713 1038.5182,798.36114 1117.0505,770.42404 1181.4092,747.52911 1192.7092,772.75882 1159.4948,673.90791 1125.4964,572.72478 1142.0946,565.4982 1091.7097,579.98845 1038.1012,595.40581 1050.6239,588.21251 1050.256,682.72525 Z" />
   <path
   class="hold"
   id="hold_58"
   d="M 239.90756,486.53774 C 238.42252,585.54278 238.66852,574.60478 284.47936,575.55212 337.56737,576.6499 334.60541,590.32808 334.30319,485.47406 334.03335,391.83517 340.95192,392.6591 288.54614,392.95419 234.93766,393.25607 241.32504,392.03502 239.90756,486.53774 Z" />
   <path
   class="hold"
   id="hold_44"
   d="M 281.82565,961.47074 C 323.20292,1000.2287 315.60284,994.8695 331.97408,977.54956 350.94585,957.47818 352.58438,963.73994 312.41578,927.74565 273.29309,892.68857 278.76414,891.37327 260.55836,911.67193 241.93476,932.43642 246.15787,928.06099 281.82565,961.47074 Z" />
   <path
   class="hold"
   id="hold_32"
   d="M 360.58149,1286.6215 C 360.15472,1396.2634 357.75513,1378.4115 403.56595,1379.3587 456.654,1380.4565 449.98129,1390.9409 448.09863,1286.6215 446.265,1185.0184 455.27646,1191.1473 402.87069,1191.4424 349.26223,1191.7442 360.94943,1192.1087 360.58149,1286.6215 Z" />
   <path
   class="hold"
   id="hold_20"
   d="M 441.39038,1690.9225 C 440.96358,1788.06 439.94628,1775.7656 485.7571,1776.7129 538.84515,1777.8107 530.79019,1795.2419 528.90755,1690.9225 527.07392,1589.3194 539.25817,1595.9798 486.85238,1596.275 433.24392,1596.5767 441.80567,1596.4099 441.39038,1690.9225 Z" />
   <path
   class="hold"
   id="hold_2"
   d="M 357.34993,2484.2979 C 356.92314,2593.9399 354.52357,2576.0877 400.3344,2577.0353 453.42242,2578.1331 446.74973,2588.6173 444.86709,2484.2979 443.03348,2382.6948 452.04493,2388.8238 399.63915,2389.1189 346.03066,2389.4209 357.71787,2389.7852 357.34993,2484.2979 Z" />
   <path
   class="hold"
   id="hold_1"
   d="M 701.5464,2551.4151 C 745.78351,2593.2782 770.15015,2599.6918 815.28273,2558.169 854.45182,2522.1331 854.47798,2533.0408 780.34102,2460.0132 708.13444,2388.8872 718.48812,2387.2159 681.68731,2424.7197 647.62769,2459.4298 669.10538,2520.715 701.5464,2551.4151 Z" />
   <path
   class="hold"
   id="hold_38"
   d="M 508.09347,1056.9858 C 430.43168,1124.0292 443.26122,1115.0068 472.86747,1154.383 491.19139,1178.7537 536.09055,1186.3579 577.46404,1133.2318 626.79847,1069.8835 640.78452,1058.4084 611.33555,1026.937 572.64162,985.5855 583.19783,992.1503 508.09347,1056.9858 Z" />
   <path
   class="hold"
   id="hold_47"
   d="M 442.26086,885.90059 C 442.01642,992.7832 440.64218,975.38047 466.87733,976.30398 497.28001,977.37409 493.45864,987.5946 492.38052,885.90059 491.3304,786.85459 496.49107,792.82921 466.47915,793.11686 435.77849,793.41116 442.47154,793.76644 442.26086,885.90059 Z" />
   <path
   class="hold"
   id="hold_28"
   d="M 551.59524,1387.9676 C 445.2795,1389.991 447.01981,1402.9119 488.31933,1419.503 516.56796,1430.8515 529.62231,1434.6992 560.43636,1436.6645 631.70579,1441.2099 650.60767,1423.159 650.11783,1409.1468 649.62669,1395.0963 622.70643,1386.6143 551.59524,1387.9676 Z" />
   <path
   class="hold"
   id="hold_25"
   d="M 803.76534,1487.0775 C 803.51457,1596.9856 802.10464,1579.0903 829.02183,1580.0399 860.21493,1581.1404 856.2942,1591.65 855.18802,1487.0775 854.11064,1385.2281 859.40554,1391.3718 828.61334,1391.6677 797.11446,1391.9702 803.98154,1392.3357 803.76534,1487.0775 Z" />
   <path
   class="hold"
   id="hold_19"
   d="M 838.1034,1696.8208 C 826.70897,1724.1976 820.91828,1745.0004 819.98139,1786.1385 819.66485,1800.0386 866.29589,1812.3899 870.67298,1782.6203 877.34197,1737.2635 879.67075,1731.5096 882.70482,1674.3872 886.1421,1609.6737 846.74479,1676.0588 838.1034,1696.8208 Z" />
   <path
   class="hold"
   id="hold_17"
   d="M 632.87196,1774.0469 C 647.57602,1799.7805 668.6437,1792.0934 709.58116,1792.3012 769.02012,1792.6029 783.15184,1784.1672 765.49883,1773.9493 728.14426,1752.3278 719.70185,1751.2456 674.85984,1727.7117 617.70782,1697.7171 617.59501,1747.3104 632.87196,1774.0469 Z" />
   <path
   class="hold"
   id="hold_100"
   d="M 2322.1552,2517.9883 C 2350.5105,2540.5073 2356.1762,2559.3588 2344.6091,2572.2142 2325.2882,2593.6878 2314.1767,2587.5076 2285.8212,2564.9887 2257.4658,2542.4693 2252.425,2529.569 2267.483,2510.9629 2277.4765,2498.6146 2293.7997,2495.4691 2322.1552,2517.9883 Z" />
   <path
   class="hold"
   id="hold_101"
   d="M 1798.4536,2551.4151 C 1754.2165,2593.2782 1729.8499,2599.6918 1684.7173,2558.169 1645.5482,2522.1331 1645.522,2533.0408 1719.659,2460.0132 1791.8656,2388.8872 1781.5119,2387.2159 1818.3127,2424.7197 1852.3723,2459.4298 1830.8946,2520.715 1798.4536,2551.4151 Z" />
   <path
   class="hold"
   id="hold_102"
   d="M 2142.6501,2484.2979 C 2143.0769,2593.9399 2145.4764,2576.0877 2099.6656,2577.0353 2046.5776,2578.1331 2053.2503,2588.6173 2055.1329,2484.2979 2056.9665,2382.6948 2047.9551,2388.8238 2100.3609,2389.1189 2153.9693,2389.4209 2142.2821,2389.7852 2142.6501,2484.2979 Z" />
   <path
   class="hold"
   id="hold_103"
   d="M 1511.4166,2414.7732 C 1516.4952,2385.8184 1527.6947,2396.1858 1625.7281,2394.5757 1648.7194,2394.1982 1666.4057,2427.6605 1647.9272,2436.2784 1608.826,2454.5151 1592.3269,2464.5452 1546.2144,2485.4521 1482.7202,2514.2397 1506.0904,2445.1371 1511.4166,2414.7732 Z" />
   <path
   class="hold"
   id="hold_104"
   d="M 1513.6347,2247.5483 C 1515.5659,2283.1475 1513.0344,2313.7592 1501.8533,2315.4075 1473.3536,2319.609 1466.8215,2281.5917 1461.6073,2258.5327 1453.5973,2223.112 1437.1926,2183.411 1479.6856,2194.1581 1495.0434,2198.0422 1511.6671,2211.2781 1513.6347,2247.5483 Z" />
   <path
   class="hold"
   id="hold_105"
   d="M 1917.9549,2311.3885 C 1862.1248,2314.5833 1858.7059,2310.5906 1857.4233,2271.5422 1855.8544,2223.7728 1843.2498,2167.6605 1883.1743,2204.7565 1916.8289,2236.0267 1934.0785,2248.4709 1973.8537,2284.0766 2024.548,2329.457 1959.3626,2309.0191 1917.9549,2311.3885 Z" />
   <path
   class="hold"
   id="hold_106"
   d="M 2440.7778,2155.0041 C 2442.1088,2216.4839 2401.0049,2216.6774 2344.5534,2215.6802 2298.8319,2214.8726 2264.248,2205.6273 2256.4879,2175.567 2248.675,2145.3025 2265.7614,2140.5083 2364.7128,2106.5613 2446.6498,2078.4515 2439.2686,2085.2941 2440.7778,2155.0041 Z" />
   <path
   class="hold"
   id="hold_107"
   d="M 1986.8403,2172.8195 C 1954.9662,2159.5192 1984.9819,2131.8414 2009.8674,2101.8286 2038.1539,2067.7144 2054.1757,2051.1658 2054.7823,2105.2777 2055.0235,2126.7819 2057.6576,2157.8489 2055.6006,2185.8598 2054.0021,2207.6279 2007.3231,2181.3665 1986.8403,2172.8195 Z" />
   <path
   class="hold"
   id="hold_108"
   d="M 1712.4022,2191.0188 C 1627.6511,2224.244 1648.1138,2226.9891 1648.3121,2094.7019 1648.4356,2012.2961 1639.3131,2015.1976 1692.5621,1998.5352 1754.1083,1979.2765 1727.3723,2008.113 1760.42,2107.8201 1787.7851,2190.383 1790.0136,2160.5926 1712.4022,2191.0188 Z" />
   <path
   class="hold"
   id="hold_109"
   d="M 1371.0588,2121.242 C 1381.1318,2051.5182 1381.1805,2041.0127 1414.4683,2017.0603 1460.3231,1984.0651 1451.7414,1989.2913 1448.6549,2033.5592 1446.1828,2069.0141 1455.7358,2062.1752 1392.156,2143.5073 1357.5454,2187.7817 1367.9121,2143.0231 1371.0588,2121.242 Z" />
   <path
   class="hold"
   id="hold_110"
   d="M 1848.9909,2022.8939 C 1850.9702,1995.5235 1840.7953,1998.6369 1888.2339,1971.7399 1948.6799,1937.4678 1949.2816,1926.7716 1944.9666,1983.1196 1942.3872,2016.8036 1924.4021,2066.5202 1887.0632,2079.817 1845.4239,2094.6448 1845.6678,2068.8489 1848.9909,2022.8939 Z" />
   <path
   class="hold"
   id="hold_111"
   d="M 1592.8912,1911.0825 C 1656.3571,1915.1378 1658.0065,1909.7441 1643.7454,1963.3146 1632.8882,2004.0985 1615.9903,2004.5079 1592.8628,1983.1744 1561.1038,1953.8791 1585.8777,1968.9427 1547.4387,1935.8881 1514.7129,1907.7465 1529.3915,1907.0249 1592.8912,1911.0825 Z" />
   <path
   class="hold"
   id="hold_112"
   d="M 2055.5102,1993.2974 C 2044.9586,1991.5181 2012.9488,1986.5599 1992.18,1951.0993 1971.4112,1915.6391 1999.4134,1908.8237 2017.3124,1918.5998 2055.1875,1939.2863 2044.4312,1932.2057 2087.8086,1958.3665 2136.8206,1987.9257 2085.7617,1998.3985 2055.5102,1993.2974 Z" />
   <path
   class="hold"
   id="hold_113"
   d="M 2269.6279,1941.7852 C 2269.6279,1978.1095 2258.4245,1994.2647 2241.2182,1993.1117 2212.4775,1991.1858 2210.4134,1978.5908 2210.4134,1942.2667 2210.4134,1905.9425 2217.3588,1893.9694 2241.2182,1894.3105 2257.053,1894.5369 2269.6279,1905.461 2269.6279,1941.7852 Z" />
   <path
   class="hold"
   id="hold_114"
   d="M 1850.3677,1923.0256 C 1850.7218,1964.4925 1811.0981,1971.6268 1756.9672,1965.6478 1703.2942,1959.7194 1670.6507,1968.5227 1667.9805,1915.513 1666.735,1890.7871 1721.0119,1889.7643 1767.8425,1872.6872 1870.1166,1835.3923 1849.728,1848.1205 1850.3677,1923.0256 Z" />
   <path
   class="hold"
   id="hold_115"
   d="M 1285.62,2004.3031 C 1239.3715,1988.253 1249.1459,2002.1852 1251.0812,1913.0213 1254.9724,1733.7651 1254.4376,1788.0711 1293.6892,1881.4716 1310.4627,1921.3843 1328.9218,1948.5336 1345.5418,1996.5582 1362.9351,2046.8169 1338.5876,2022.6848 1285.62,2004.3031 Z" />
   <path
   class="hold"
   id="hold_116"
   d="M 1482.3431,1811.4328 C 1448.1569,1791.6386 1452.9346,1808.0828 1451.6396,1744.6504 1450.7996,1703.5102 1443.8384,1678.8958 1461.8243,1688.5101 1493.5785,1705.4849 1506.7863,1729.123 1528.6523,1778.5185 1549.4731,1825.5533 1525.396,1836.3607 1482.3431,1811.4328 Z" />
   <path
   class="hold"
   id="hold_117"
   d="M 1867.128,1774.0469 C 1852.424,1799.7805 1831.3563,1792.0934 1790.4188,1792.3012 1730.9799,1792.6029 1716.8482,1784.1672 1734.5012,1773.9493 1771.8557,1752.3278 1780.2982,1751.2456 1825.1402,1727.7117 1882.2922,1697.7171 1882.405,1747.3104 1867.128,1774.0469 Z" />
   <path
   class="hold"
   id="hold_118"
   d="M 2340.5335,1665.1928 C 2355.0193,1691.0512 2311.9892,1749.8484 2295.5572,1787.5372 2284.6792,1812.4877 2258.2837,1799.2247 2257.7878,1768.2353 2257.1707,1729.6736 2252.8082,1723.4931 2255.6464,1672.7263 2256.9893,1648.7059 2334.3845,1654.2166 2340.5335,1665.1928 Z" />
   <path
   class="hold"
   id="hold_119"
   d="M 1661.8966,1696.8208 C 1673.291,1724.1976 1679.0817,1745.0004 1680.0186,1786.1385 1680.3351,1800.0386 1633.7041,1812.3899 1629.327,1782.6203 1622.658,1737.2635 1620.3293,1731.5096 1617.2952,1674.3872 1613.8579,1609.6737 1653.2552,1676.0588 1661.8966,1696.8208 Z" />
   <path
   class="hold"
   id="hold_120"
   d="M 2058.6096,1690.9225 C 2059.0364,1788.06 2060.0537,1775.7656 2014.2429,1776.7129 1961.1548,1777.8107 1969.2098,1795.2419 1971.0925,1690.9225 1972.9261,1589.3194 1960.7418,1595.9798 2013.1476,1596.275 2066.7561,1596.5767 2058.1943,1596.4099 2058.6096,1690.9225 Z" />
   <path
   class="hold"
   id="hold_121"
   d="M 1422.1568,1737.3813 C 1386.1433,1821.3485 1402.4623,1808.639 1308.938,1715.5648 1250.6788,1657.5858 1246.3247,1666.15 1271.935,1616.353 1301.5357,1558.7969 1303.1705,1598.1801 1396.9825,1644.5844 1474.6635,1683.0094 1455.1367,1660.4875 1422.1568,1737.3813 Z" />
   <path
   class="hold"
   id="hold_122"
   d="M 2109.5119,1599.9892 C 2139.0344,1600.2633 2144.1687,1617.4027 2169.1008,1650.0403 2205.6472,1697.8814 2203.7895,1710.8691 2185.1274,1702.6602 2100.9228,1665.6216 2100.7804,1679.4682 2069.8918,1630.3413 2040.7957,1584.0654 2066.3948,1599.5888 2109.5119,1599.9892 Z" />
   <path
   class="hold"
   id="hold_123"
   d="M 1926.0673,1594.2634 C 1926.0673,1626.1742 1902.4472,1669.6634 1852.6301,1669.6634 1802.8129,1669.6634 1778.7936,1624.168 1778.7937,1591.8562 1778.7937,1559.544 1804.0104,1523.2769 1852.2309,1523.2769 1900.4514,1523.2769 1926.0673,1562.3525 1926.0673,1594.2634 Z" />
   <path
   class="hold"
   id="hold_124"
   d="M 1434.8117,1519.193 C 1464.4987,1519.8518 1478.4876,1527.06 1503.6003,1559.5572 1528.7131,1592.0544 1521.5046,1591.3847 1501.1744,1592.6749 1446.1704,1596.1655 1461.526,1600.4356 1380.1742,1543.2803 1321.0094,1501.7127 1404.1449,1518.5126 1434.8117,1519.193 Z" />
   <path
   class="hold"
   id="hold_125"
   d="M 1696.2347,1487.0775 C 1696.4854,1596.9856 1697.8954,1579.0903 1670.9782,1580.0399 1639.7851,1581.1404 1643.7058,1591.65 1644.812,1487.0775 1645.8894,1385.2281 1640.5945,1391.3718 1671.3867,1391.6677 1702.8855,1391.9702 1696.0185,1392.3357 1696.2347,1487.0775 Z" />
   <path
   class="hold"
   id="hold_126"
   d="M 2053.5536,1439.3859 C 2052.389,1374.4809 2066.6229,1391.6529 2158.3463,1417.5508 2223.7426,1436.0153 2246.8872,1444.8716 2229.991,1482.0457 2222.2656,1499.0426 2183.5573,1510.4043 2144.5487,1505.7232 2058.5811,1495.4076 2054.5856,1496.8972 2053.5536,1439.3859 Z" />
   <path
   class="hold"
   id="hold_127"
   d="M 1524.8684,1455.0743 C 1500.5725,1467.5927 1490.2064,1446.0815 1471.0237,1423.7375 1451.8413,1401.3937 1439.7762,1390.6461 1464.2476,1390.813 1549.814,1391.3966 1534.917,1382.279 1537.6774,1407.7464 1540.0686,1429.806 1540.5638,1446.9874 1524.8684,1455.0743 Z" />
   <path
   class="hold"
   id="hold_128"
   d="M 1948.4048,1387.9676 C 2054.7205,1389.991 2052.9802,1402.9119 2011.6807,1419.503 1983.432,1430.8515 1970.3777,1434.6992 1939.5636,1436.6645 1868.2942,1441.2099 1849.3923,1423.159 1849.8822,1409.1468 1850.3733,1395.0963 1877.2936,1386.6143 1948.4048,1387.9676 Z" />
   <path
   class="hold"
   id="hold_129"
   d="M 1402.2739,1329.95 C 1416.2925,1334.9676 1423.0056,1358.205 1431.7104,1371.1503 1451.9487,1401.2473 1429.0326,1390.3293 1392.9074,1389.3673 1356.782,1388.405 1340.0425,1376.6782 1361.5969,1356.7167 1387.0955,1333.1026 1389.7646,1325.4725 1402.2739,1329.95 Z" />
   <path
   class="hold"
   id="hold_130"
   d="M 1524.6596,1324.6528 C 1541.4987,1346.2541 1550.1171,1355.8068 1486.8523,1379.196 1447.5293,1393.7338 1447.134,1405.8803 1449.7248,1352.0332 1451.3484,1318.289 1451.9664,1330.4245 1450.3203,1291.3276 1447.9708,1235.5249 1497.1626,1289.3796 1524.6596,1324.6528 Z" />
   <path
   class="hold"
   id="hold_131"
   d="M 1779.3226,1334.2726 C 1754.2952,1360.4757 1728.8624,1358.7731 1717.2447,1345.9638 1697.839,1324.5676 1706.4102,1320.2974 1731.4375,1294.0942 1756.4649,1267.8911 1773.8713,1255.7528 1790.8477,1272.6078 1802.1144,1283.794 1804.35,1308.0694 1779.3226,1334.2726 Z" />
   <path
   class="hold"
   id="hold_132"
   d="M 2139.4185,1286.6215 C 2139.8453,1396.2634 2142.2449,1378.4115 2096.434,1379.3587 2043.346,1380.4565 2050.0187,1390.9409 2051.9014,1286.6215 2053.735,1185.0184 2044.7235,1191.1473 2097.1293,1191.4424 2150.7378,1191.7442 2139.0506,1192.1087 2139.4185,1286.6215 Z" />
   <path
   class="hold"
   id="hold_133"
   d="M 1915.6956,1263.7259 C 1928.8038,1278.8501 1955.9308,1291.5987 1898.2615,1320.4768 1871.9805,1333.6372 1849.7239,1354.6221 1850.4719,1306.0194 1850.8927,1278.6804 1850.7253,1265.8138 1850.4704,1226.6828 1850.1407,1176.066 1856.808,1195.7815 1915.6956,1263.7259 Z" />
   <path
   class="hold"
   id="hold_134"
   d="M 1401.4077,1259.5606 C 1365.3422,1261.8606 1349.9149,1243.0052 1349.9702,1225.6719 1350.0626,1196.7191 1344.5764,1191.5369 1398.5025,1191.551 1451.8256,1191.5651 1446.8955,1195.4602 1448.0674,1219.4158 1448.8454,1235.3148 1437.473,1257.2604 1401.4077,1259.5606 Z" />
   <path
   class="hold"
   id="hold_135"
   d="M 1513.6108,1184.5355 C 1468.0212,1196.586 1447.4921,1218.4099 1450.8518,1169.6311 1453.0101,1138.2966 1461.9986,1147.3585 1511.9215,1137.3222 1547.3577,1130.1979 1568.1528,1132.2748 1570.0015,1141.8037 1574.1105,1162.9834 1548.7531,1175.2468 1513.6108,1184.5355 Z" />
   <path
   class="hold"
   id="hold_136"
   d="M 2448.1516,1131.7506 C 2469.8397,1205.9571 2469.2026,1191.9369 2361.0938,1192.0115 2279.1102,1192.0679 2282.1093,1199.758 2265.0988,1153.1013 2247.7283,1105.4572 2265.5181,1122.2075 2362.9571,1084.0958 2436.6004,1055.2911 2428.9417,1066.0222 2448.1516,1131.7506 Z" />
   <path
   class="hold"
   id="hold_137"
   d="M 1656.8176,1072.9356 C 1675.4596,1095.9474 1665.4802,1130.0501 1668.3943,1171.0946 1670.8328,1205.441 1654.2189,1210.2709 1642.4547,1183.8478 1623.4412,1141.1425 1609.9803,1109.4519 1589.4958,1062.9603 1563.3878,1003.7058 1616.5614,1023.2429 1656.8176,1072.9356 Z" />
   <path
   class="hold"
   id="hold_138"
   d="M 1991.9065,1056.9858 C 2069.5683,1124.0292 2056.7388,1115.0068 2027.1325,1154.383 2008.8086,1178.7537 1963.9095,1186.3579 1922.536,1133.2318 1873.2015,1069.8835 1859.2155,1058.4084 1888.6645,1026.937 1927.3584,985.5855 1916.8022,992.1503 1991.9065,1056.9858 Z" />
   <path
   class="hold"
   id="hold_139"
   d="M 1402.84,1118.8848 C 1335.9526,1095.7901 1370.896,1077.6203 1396.9379,1047.9676 1450.4542,987.0319 1445.6169,997.3342 1446.9766,1017.7641 1449.7904,1060.0433 1446.3878,1063.4512 1446.8074,1094.211 1447.6916,1159.0106 1431.8506,1128.9012 1402.84,1118.8848 Z" />
   <path
   class="hold"
   id="hold_140"
   d="M 1840.1786,1025.2089 C 1817.627,1044.3617 1788.0642,1049.2015 1747.3242,1053.2431 1702.8194,1057.6582 1619.5171,1048.9231 1669.4399,1031.9306 1710.2678,1018.0334 1747.5266,1008.4436 1796.8957,997.356 1849.6912,985.4988 1866.6758,1002.7051 1840.1786,1025.2089 Z" />
   <path
   class="hold"
   id="hold_141"
   d="M 2071.2215,1008.6108 C 2096.0289,959.63792 2141.4077,1000.9135 2160.1076,1023.6668 2178.8074,1046.4204 2201.0533,1073.9172 2157.0341,1071.3897 2123.4784,1069.463 2107.2499,1066.6098 2068.6138,1061.8023 2035.9638,1057.7396 2062.4758,1025.8759 2071.2215,1008.6108 Z" />
   <path
   class="hold"
   id="hold_142"
   d="M 1528.4353,978.9617 C 1497.4276,997.6175 1440.2076,1002.239 1449.8412,982.4684 1458.8908,963.89598 1490.3032,936.71554 1513.9302,927.0924 1538.3191,917.15904 1560.2573,908.34184 1565.1467,916.7145 1576.0142,935.32412 1559.4429,960.30594 1528.4353,978.9617 Z" />
   <path
   class="hold"
   id="hold_143"
   d="M 1714.2102,938.1811 C 1713.1237,960.94866 1703.1302,957.32767 1672.3999,982.8547 1644.5414,1005.9961 1648.6634,982.1238 1648.6634,945.79954 1648.6634,909.47536 1652.5241,901.62803 1680.498,910.41571 1710.865,919.955 1714.8464,924.84937 1714.2102,938.1811 Z" />
   <path
   class="hold"
   id="hold_144"
   d="M 2218.1744,961.47074 C 2176.7971,1000.2287 2184.3972,994.8695 2168.0259,977.54956 2149.0542,957.47818 2147.4156,963.73994 2187.5842,927.74565 2226.7069,892.68857 2221.2359,891.37327 2239.4416,911.67193 2258.0652,932.43642 2253.8421,928.06099 2218.1744,961.47074 Z" />
   <path
   class="hold"
   id="hold_145"
   d="M 1969.5753,950.8331 C 1970.0799,987.6166 1975.5668,992.5438 1901.9166,994.1675 1862.5876,995.0346 1829.7446,995.9844 1844.0609,980.1494 1874.3548,946.64171 1906.2498,909.85639 1943.2001,872.83217 1990.294,825.64407 1968.6629,884.30721 1969.5753,950.8331 Z" />
   <path
   class="hold"
   id="hold_146"
   d="M 1283.3449,904.81739 C 1256.3534,892.79313 1252.4498,896.57297 1250.521,855.46976 1247.755,796.51688 1250.8573,783.29009 1266.3698,796.56143 1300.6945,825.92692 1377.0626,905.01045 1415.0783,938.55593 1506.7529,1019.451 1326.4907,924.03812 1283.3449,904.81739 Z" />
   <path
   class="hold"
   id="hold_147"
   d="M 2057.7391,885.90059 C 2057.9836,992.7832 2059.3578,975.38047 2033.1227,976.30398 2002.72,977.37409 2006.5414,987.5946 2007.6195,885.90059 2008.6696,786.85459 2003.5089,792.82921 2033.5208,793.11686 2064.2215,793.41116 2057.5285,793.76644 2057.7391,885.90059 Z" />
   <path
   class="hold"
   id="hold_148"
   d="M 1923.8432,787.70177 C 1923.8432,819.6126 1904.8012,861.9513 1854.984,861.9513 1805.1669,861.9513 1780.0031,823.35858 1780.0031,791.04654 1780.0031,758.7345 1802.9308,721.31687 1851.1513,721.31687 1899.3718,721.31687 1923.8432,755.79094 1923.8432,787.70177 Z" />
   <path
   class="hold"
   id="hold_149"
   d="M 1529.2275,746.48919 C 1558.149,740.52559 1559.2327,741.53413 1598.8134,752.04232 1652.0066,766.1645 1666.9321,791.72208 1639.2898,793.29563 1596.2534,795.74548 1540.7697,794.66389 1490.205,793.172 1425.7594,791.27058 1497.6115,753.00839 1529.2275,746.48919 Z" />
   <path
   class="hold"
   id="hold_150"
   d="M 2287.9923,725.88392 C 2287.9923,762.20811 2276.405,797.72367 2254.9274,793.4128 2235.0039,789.41383 2238.7703,758.10589 2238.7703,721.78169 2238.7703,685.45746 2250.5163,662.96011 2260.1746,663.04331 2281.6419,663.22822 2287.9923,689.55971 2287.9923,725.88392 Z" />
   <path
   class="hold"
   id="hold_151"
   d="M 2148.1876,767.06753 C 2175.4886,790.86676 2158.5265,794.74607 2098.2149,794.74607 2033.822,794.74607 2052.9063,779.36432 2017.9245,713.15235 2000.9751,681.07123 1945.7638,587.4274 1986.8561,615.73569 2019.1824,638.005 2099.7962,724.88298 2148.1876,767.06753 Z" />
   <path
   class="hold"
   id="hold_152"
   d="M 1449.744,682.72525 C 1450.1708,792.36713 1461.4818,798.36114 1382.9495,770.42404 1318.5908,747.52911 1307.2908,772.75882 1340.5052,673.90791 1374.5036,572.72478 1357.9054,565.4982 1408.2903,579.98845 1461.8988,595.40581 1449.3761,588.21251 1449.744,682.72525 Z" />
   <path
   class="hold"
   id="hold_153"
   d="M 1824.7179,619.48902 C 1791.8329,634.55051 1781.6313,641.09875 1751.0797,645.80913 1701.8385,653.40095 1686.0194,651.75499 1674.5141,638.85383 1646.2395,607.14865 1718.1635,594.92347 1767.9806,594.92347 1817.7977,594.92347 1901.7965,584.1868 1824.7179,619.48902 Z" />
   <path
   class="hold"
   id="hold_154"
   d="M 2201.5033,601.7341 C 2200.1161,632.67417 2178.6094,632.34284 2128.7923,632.34284 2078.9752,632.34284 2051.2455,642.55881 2054.9153,606.42238 2057.8305,577.71662 2080.4379,575.27552 2102.556,579.32985 2151.6391,588.32703 2201.9179,592.48689 2201.5033,601.7341 Z" />
   <path
   class="hold"
   id="hold_155"
   d="M 2039.6442,581.16547 C 2039.6442,617.48969 1994.2976,603.85089 1940.0102,602.76332 1830.8716,600.57689 1854.4453,591.76265 1852.8383,547.6233 1850.6472,487.4358 1857.9365,487.97535 1937.2514,510.21851 1990.7989,525.23542 2039.6442,544.84129 2039.6442,581.16547 Z" />
   <path
   class="hold"
   id="hold_156"
   d="M 1654.5017,554.22435 C 1655.8327,590.52395 1645.1569,593.27626 1595.3397,593.27626 1545.5226,593.27625 1501.7483,596.56881 1515.4367,581.84879 1544.4025,550.70059 1583.5042,511.56156 1620.066,477.54961 1666.6647,434.20072 1653.1188,516.51018 1654.5017,554.22435 Z" />
   <path
   class="hold"
   id="hold_157"
   d="M 1786.4843,495.20499 C 1786.4843,531.52917 1775.2808,547.68442 1758.0746,546.53144 1729.3338,544.60553 1727.2698,532.01065 1727.2698,495.68647 1727.2698,459.36224 1734.2152,447.38915 1758.0746,447.73034 1773.9094,447.95675 1786.4843,458.88078 1786.4843,495.20499 Z" />
   <path
   class="hold"
   id="hold_158"
   d="M 2260.0924,486.53774 C 2261.5775,585.54278 2261.3315,574.60478 2215.5206,575.55212 2162.4326,576.6499 2165.3946,590.32808 2165.6968,485.47406 2165.9666,391.83517 2159.0481,392.6591 2211.4539,392.95419 2265.0623,393.25607 2258.675,392.03502 2260.0924,486.53774 Z" />
   <path
   class="hold"
   id="hold_159"
   d="M 1470.3022,502.73831 C 1477.0178,547.40522 1467.9451,537.57195 1430.3782,543.94265 1403.7511,548.45817 1410.7841,520.99003 1410.7841,475.81601 1410.7841,430.64195 1412.2192,392.95938 1439.2227,392.95933 1453.2286,392.9593 1463.2128,455.58476 1470.3022,502.73831 Z" />
   <path
   class="hold"
   id="hold_160"
   d="M 1564.8192,356.5607 C 1555.7483,371.08183 1525.2233,382.68952 1504.5908,388.23941 1456.467,401.1841 1450.3002,402.76175 1451.8557,366.4712 1453.039,338.86824 1472.4473,343.83139 1520.7607,331.62113 1567.8171,319.72856 1584.0358,325.79784 1564.8192,356.5607 Z" />
   <path
   class="hold"
   id="hold_161"
   d="M 1711.6364,345.89133 C 1733.2574,374.99713 1750.4244,392.89918 1700.6073,392.89918 1635.9855,392.89918 1656.1999,397.8161 1621.9917,340.71536 1591.991,290.63785 1582.7402,279.96573 1646.5381,300.82454 1677.7881,311.04178 1696.188,325.09509 1711.6364,345.89133 Z" />
   <path
   class="hold"
   id="hold_162"
   d="M 2038.4119,328.48648 C 2072.0864,413.42889 2074.6675,392.8411 1943.0606,393.61028 1861.0784,394.08943 1864.032,403.23745 1847.0656,349.83742 1827.4556,288.11671 1856.3392,314.77865 1955.2906,280.83168 2037.2275,252.72176 2007.5743,250.69993 2038.4119,328.48648 Z" />
   <path
   class="hold"
   id="hold_163"
   d="M 1648.0146,227.80872 C 1627.5232,298.3042 1628.089,289.50631 1561.41,268.26873 1483.9877,243.60943 1448.4355,241.51747 1452.8354,205.2583 1456.2595,177.04097 1526.3862,176.17658 1576.1888,177.38534 1665.5759,179.55483 1658.1494,192.94222 1648.0146,227.80872 Z" />
   <path
   class="hold"
   id="hold_164"
   d="M 2220.4994,245.99912 C 2239.7803,276.72135 2211.3513,286.81286 2156.7285,249.77985 2115.4282,221.7791 2086.9506,216.30791 2060.9201,205.34328 2027.5904,191.30405 2109.4128,156.06683 2151.122,183.44857 2188.5246,208.0031 2205.2816,221.7509 2220.4994,245.99912 Z" />
   <path
   class="hold"
   id="hold_165"
   d="M 1855.5511,213.84193 C 1857.4813,245.61412 1842.8446,240.79283 1761.4871,242.08681 1711.6763,242.87904 1669.7135,246.25497 1668.7106,215.13592 1667.4768,176.85573 1679.4894,191.78704 1766.6366,190.77302 1846.0617,189.84888 1853.347,177.56227 1855.5511,213.84193 Z" />
   <path
   class="hold"
   id="hold_208"
   d="M 1325.9118,389.84379 C 1325.9118,421.75462 1302.2916,465.24375 1252.4745,465.24375 1202.6575,465.24375 1178.6381,419.74855 1178.6381,387.43651 1178.6381,355.12447 1203.8549,318.85725 1252.0754,318.85725 1300.2958,318.85725 1325.9118,357.93296 1325.9118,389.84379 Z"
   style="fill:#cccccc;stroke:#333333;stroke-width:2" />
   <path
   class="hold"
   id="hold_205"
   d="M 1322.2992,1188.9814 C 1322.2992,1220.8921 1298.6791,1264.3815 1248.862,1264.3815 1199.0448,1264.3815 1175.0257,1218.8862 1175.0257,1186.5741 1175.0258,1154.262 1200.2424,1117.9949 1248.4628,1117.9949 1296.6833,1117.9949 1322.2992,1157.0706 1322.2992,1188.9814 Z"
   style="fill:#cccccc;stroke:#333333;stroke-width:2" />
   <path
   class="hold"
   id="hold_202"
   d="M 1317.7746,2198.9888 C 1317.7746,2230.8996 1294.1545,2274.3889 1244.3373,2274.3889 1194.5203,2274.3889 1170.501,2228.8936 1170.5011,2196.5816 1170.5011,2164.2695 1195.7179,2128.0025 1243.9384,2128.0025 1292.1588,2128.0025 1317.7746,2167.078 1317.7746,2198.9888 Z"
   style="fill:#cccccc;stroke:#333333;stroke-width:2" />
   <path
   class="hold"
   id="hold_209"
   d="M 1347.909,155.90169 C 1347.4782,209.89988 1298.733,222.26849 1252.9997,222.2685 1207.266,222.26849 1153.6177,214.29179 1153.0479,151.84701 1152.6205,105.05232 1154.9426,107.23352 1252.6124,106.72669 1354.9906,106.19542 1348.326,103.61765 1347.909,155.90169 Z"
   style="fill:#cccccc;stroke:#333333;stroke-width:2" />
   <path
   class="hold"
   id="hold_207"
   d="M 1294.408,685.42992 C 1294.8347,795.07179 1297.2344,777.21987 1251.4234,778.16719 1198.3355,779.26498 1205.0081,789.74925 1206.8908,685.42992 1208.7244,583.82693 1199.713,589.95575 1252.1188,590.25087 1305.7274,590.55275 1294.04,590.91719 1294.408,685.42992 Z"
   style="fill:#cccccc;stroke:#333333;stroke-width:2" />
   <path
   class="hold"
   id="hold_206"
   d="M 1251.176,982.7215 C 1357.5338,983.221 1340.3633,979.423 1342.8611,1025.4112 1345.7557,1078.7047 1351.3253,1064.3349 1247.5367,1065.9868 1146.4508,1067.5956 1152.9695,1081.7531 1151.3641,1029.1013 1149.8435,979.225 1157.1482,982.28 1251.176,982.7215 Z"
   style="fill:#cccccc;stroke:#333333;stroke-width:2" />
   <path
   class="hold"
   id="hold_204"
   d="M 1250.232,1306.473 C 1359.2343,1302.3203 1341.4025,1300.5161 1343.9005,1346.5044 1346.7949,1399.7979 1356.9928,1392.7387 1253.2042,1394.3904 1152.1183,1395.9993 1158.5183,1404.8437 1157.0318,1352.1882 1155.5112,1298.3243 1156.2705,1310.0526 1250.232,1306.473 Z"
   style="fill:#cccccc;stroke:#333333;stroke-width:2" />
   <path
   class="hold"
   id="hold_203"
   d="M 1254.3392,1439.8278 C 1363.3479,1435.8489 1344.6883,1433.8708 1347.1862,1479.8592 1350.0809,1533.1527 1320.0421,1557.0547 1260.597,1555.8153 1197.3195,1554.4961 1162.6255,1540.6753 1161.1391,1488.0197 1159.6183,1434.1559 1156.2709,1443.4075 1254.3392,1439.8278 Z"
   style="fill:#cccccc;stroke:#333333;stroke-width:2" />
   <path
   class="hold"
   id="hold_201"
   d="M 1246.9516,2479.7846 C 1137.8813,2481.2888 1155.6644,2483.5254 1154.2729,2437.49 1152.66,2384.1417 1142.2954,2390.9513 1246.0934,2391.8207 1347.1886,2392.6674 1341.003,2383.67 1341.2232,2436.3463 1341.4489,2490.2312 1340.9717,2478.488 1246.9516,2479.7846 Z"
   style="fill:#cccccc;stroke:#333333;stroke-width:2" />
   <path
   class="hold"
   id="hold_200"
   d="M 1272.1146,2684.2682 C 1272.374,2794.1612 1273.8327,2776.2686 1245.9858,2777.2177 1213.7155,2778.3179 1217.7716,2788.8266 1218.9161,2684.2682 1220.0307,2582.4327 1214.5528,2588.5754 1246.4085,2588.8714 1278.9952,2589.1739 1271.8909,2589.5392 1272.1146,2684.2682 Z"
   style="fill:#cccccc;stroke:#333333;stroke-width:2" />
</svg>
