<?xml version='1.0' encoding='utf-8'?>
<svg xmlns="http://www.w3.org/2000/svg" width="2500" height="3330" viewBox="0 0 2500 3330" version="1.1" id="svg1" xml:space="preserve">
  <defs id="defs1"><style id="style1">
      .hold {
        fill: #cccccc;
        stroke: #333333;
        stroke-width: 2;
        cursor: pointer;
      }
    </style></defs>
  <path id="hold_0" class="hold" d="M 1889.014334 800.520941 C 1873.076673 801.008193 1856.229258 805.846789 1841.384411 815.574995 Z" />
  <path id="hold_1" class="hold" d="M 1574.211806 354.103494 C 1572.833460 354.170349 1571.009788 354.284631 1569.693410 354.370207 Z" />
  <path id="hold_2" class="hold" d="M 1705.974904 310.418173 C 1703.016605 310.704126 1699.529040 311.987838 1697.673456 314.964105 Z" />
  <path id="hold_3" class="hold" d="M 1832.381843 486.748600 C 1831.135364 486.785327 1829.596208 486.891890 1828.520237 486.987385 Z" />
  <path id="hold_4" class="hold" d="M 1687.334221 1425.900127 C 1679.699610 1426.483083 1672.094194 1430.356051 1665.188229 1434.881028 Z" />
  <path id="hold_5" class="hold" d="M 1259.108178 1358.268481 C 1252.288792 1358.526166 1245.261331 1358.636951 1238.388728 1361.487592 Z" />
  <path id="hold_6" class="hold" d="M 1145.247313 2517.213755 C 1140.766808 2517.471188 1135.713373 2519.239205 1132.338669 2523.217151 Z" />
  <path id="hold_7" class="hold" d="M 2054.325379 2160.466535 C 2047.936052 2160.771826 2041.108145 2161.946152 2035.075424 2165.870375 Z" />
  <path id="hold_8" class="hold" d="M 1979.718486 2855.666366 C 1972.813543 2856.186564 1965.844170 2860.692283 1961.053930 2866.630747 Z" />
  <path id="hold_9" class="hold" d="M 1871.287862 653.058714 C 1850.747485 653.737324 1830.224185 654.301605 1809.654164 655.172060 Z" />
  <path id="hold_10" class="hold" d="M 1710.025523 504.781280 C 1703.920687 505.214433 1697.900557 508.698800 1692.590654 512.635889 Z" />
  <path id="hold_11" class="hold" d="M 1542.273069 827.298388 C 1537.355242 827.450702 1532.371162 828.032331 1527.384630 828.980673 Z" />
  <path id="hold_12" class="hold" d="M 1383.376210 1131.489068 C 1379.136457 1132.164509 1375.411420 1135.378871 1372.019794 1138.345639 Z" />
  <path id="hold_13" class="hold" d="M 1217.046207 891.403376 C 1211.929353 891.716201 1206.843045 896.081284 1204.663687 901.139642 Z" />
  <path id="hold_14" class="hold" d="M 1528.441863 1165.432276 C 1523.437916 1165.735635 1517.931189 1169.470372 1515.832593 1174.679104 Z" />
  <path id="hold_15" class="hold" d="M 1204.751268 1732.684995 C 1202.807378 1732.776018 1200.685809 1732.912664 1198.863448 1733.130557 Z" />
  <path id="hold_16" class="hold" d="M 2211.989004 1888.059072 C 2192.586798 1888.528457 2173.287875 1888.291936 2153.728728 1889.769240 Z" />
  <path id="hold_17" class="hold" d="M 1934.683364 1812.013629 C 1930.701773 1812.241945 1926.326711 1812.870507 1922.714518 1815.718438 Z" />
  <path id="hold_18" class="hold" d="M 1787.121868 1356.483449 C 1784.113950 1356.845994 1781.425610 1359.866636 1780.418900 1362.668702 Z" />
  <path id="hold_19" class="hold" d="M 1315.892531 1589.841624 C 1312.479303 1590.069257 1308.620160 1590.858146 1305.760573 1593.656228 Z" />
  <path id="hold_20" class="hold" d="M 1340.454991 1438.113992 C 1335.776360 1438.396368 1330.515121 1440.725081 1327.352987 1445.117177 Z" />
  <path id="hold_21" class="hold" d="M 2102.096148 1106.878585 C 2090.872132 1107.349490 2079.139675 1113.910210 2070.888444 1123.368168 Z" />
  <path id="hold_22" class="hold" d="M 1727.622198 2224.421673 C 1721.549214 2225.013486 1715.737637 2228.553210 1710.099196 2231.636301 Z" />
  <path id="hold_23" class="hold" d="M 1990.547127 955.886183 C 1986.242067 956.450004 1982.367527 959.590078 1978.841531 962.509621 Z" />
  <path id="hold_24" class="hold" d="M 1248.150096 1926.522815 C 1244.190137 1926.927001 1240.466157 1930.522194 1238.953796 1934.423697 Z" />
  <path id="hold_25" class="hold" d="M 1281.280884 2172.799486 C 1278.446685 2173.005511 1275.198398 2173.650273 1272.896792 2176.092547 Z" />
  <path id="hold_26" class="hold" d="M 1172.430888 2291.300444 C 1165.899894 2292.030109 1159.624695 2295.887337 1153.575190 2299.115249 Z" />
  <path id="hold_27" class="hold" d="M 1003.127551 2052.156464 C 1000.663518 2052.689298 998.773325 2055.172344 997.957892 2057.540911 Z" />
  <path id="hold_28" class="hold" d="M 1295.109979 2748.547262 C 1271.951516 2749.665091 1248.794920 2750.709976 1225.810603 2750.755086 Z" />
  <path id="hold_29" class="hold" d="M 1791.159689 2185.805282 C 1785.872972 2186.259837 1780.076312 2188.171202 1775.802910 2192.497919 Z" />
  <path id="hold_30" class="hold" d="M 1783.090560 1118.871503 C 1778.803322 1119.079642 1774.493123 1119.454575 1770.172556 1119.955420 Z" />
  <path id="hold_31" class="hold" d="M 1587.504565 2513.899864 C 1582.858859 2514.340414 1578.418413 2518.250720 1576.192503 2522.704788 Z" />
  <path id="hold_32" class="hold" d="M 1808.633216 2367.370953 C 1803.215679 2368.013426 1798.096773 2371.530228 1793.600326 2375.246918 Z" />
  <path id="hold_33" class="hold" d="M 1503.018842 428.599563 C 1493.380853 428.982950 1483.206412 435.274822 1477.092454 444.164019 Z" />
  <path id="hold_34" class="hold" d="M 1663.758488 167.126063 C 1653.224967 167.474650 1642.447188 168.645056 1631.841627 170.598915 Z" />
  <path id="hold_35" class="hold" d="M 1812.481454 189.797850 C 1806.652840 190.084496 1800.585426 190.365122 1794.691812 192.689654 Z" />
  <path id="hold_36" class="hold" d="M 2309.033231 161.329821 C 2295.667681 161.888869 2281.927910 164.570161 2268.602746 169.787835 Z" />
  <path id="hold_37" class="hold" d="M 2145.270806 276.234045 C 2136.603513 277.028138 2128.011570 280.776743 2119.459518 283.634603 Z" />
  <path id="hold_38" class="hold" d="M 2434.635768 1198.838574 C 2427.562037 1199.184373 2420.420523 1201.937239 2413.447745 1204.334640 Z" />
  <path id="hold_39" class="hold" d="M 1982.980147 1579.341998 C 1977.425027 1579.493066 1971.323811 1580.945467 1966.402763 1585.018617 Z" />
  <path id="hold_40" class="hold" d="M 2226.232040 2394.102409 C 2219.658806 2394.622929 2213.011306 2396.292903 2206.436978 2398.254292 Z" />
  <path id="hold_41" class="hold" d="M 1081.919174 1828.009168 C 1076.486943 1828.494644 1071.161032 1832.475752 1067.741393 1837.316212 Z" />
  <path id="hold_42" class="hold" d="M 1466.840142 2286.957050 C 1459.972478 2287.388641 1452.963368 2289.315307 1446.156280 2291.316023 Z" />
  <path id="hold_43" class="hold" d="M 1950.894425 537.816873 C 1945.455986 538.119436 1939.659130 538.999183 1934.494604 542.274845 Z" />
  <path id="hold_44" class="hold" d="M 2032.923005 663.198532 C 2030.980613 663.597435 2029.379268 665.922317 2029.676314 667.792398 Z" />
  <path id="hold_45" class="hold" d="M 2171.251687 631.914587 C 2163.521275 632.436027 2155.313908 634.349019 2148.152779 639.236979 Z" />
  <path id="hold_46" class="hold" d="M 2347.999080 721.192377 C 2343.616664 721.592322 2339.501790 724.886324 2336.489125 728.523048 Z" />
  <path id="hold_47" class="hold" d="M 1518.219030 1029.719582 C 1506.666679 1030.675738 1495.094074 1035.082130 1483.713138 1039.251408 Z" />
  <path id="hold_48" class="hold" d="M 1464.933287 1282.006905 C 1446.727512 1282.699353 1428.239173 1286.329250 1409.868738 1288.941163 Z" />
  <path id="hold_49" class="hold" d="M 1645.344689 1013.886573 C 1640.307467 1014.201632 1634.755699 1015.689694 1630.492364 1019.640283 Z" />
  <path id="hold_50" class="hold" d="M 1255.187185 1525.861859 C 1247.965642 1526.568889 1240.863493 1530.480988 1234.468885 1534.965610 Z" />
  <path id="hold_51" class="hold" d="M 1627.709754 2114.380914 C 1624.614731 2114.603363 1621.489659 2114.978243 1618.447441 2115.466688 Z" />
  <path id="hold_52" class="hold" d="M 1394.961776 640.879027 C 1389.828626 641.371084 1384.843428 645.367214 1381.948427 650.124429 Z" />
  <path id="hold_53" class="hold" d="M 2326.367970 416.989222 C 2319.403002 417.245726 2312.158784 417.537554 2305.195804 420.748103 Z" />
  <path id="hold_54" class="hold" d="M 2251.361481 1008.745462 C 2244.741302 1009.295162 2238.210973 1012.909028 2232.343897 1017.010483 Z" />
  <path id="hold_55" class="hold" d="M 2055.243522 1348.785462 C 2048.118484 1348.934125 2040.859278 1348.997667 2033.807020 1349.268332 Z" />
  <path id="hold_56" class="hold" d="M 1846.298708 1816.119591 C 1841.372932 1816.482371 1836.131528 1817.248425 1831.465415 1820.223191 Z" />
  <path id="hold_57" class="hold" d="M 1807.597968 2738.152746 C 1800.627576 2738.405823 1793.690068 2738.455704 1786.710888 2738.764585 Z" />
  <path id="hold_58" class="hold" d="M 1458.994737 2747.960169 C 1452.774575 2748.603840 1446.766342 2752.497387 1441.542894 2756.667066 Z" />
  <path id="hold_59" class="hold" d="M 1900.112885 1127.947566 C 1894.640374 1128.634011 1889.475736 1132.212453 1884.991979 1136.050131 Z" />
  <path id="hold_60" class="hold" d="M 2064.710986 906.138876 C 2058.651647 906.426516 2052.621184 905.932710 2046.441329 907.533008 Z" />
  <path id="hold_61" class="hold" d="M 1804.127499 1570.491605 C 1800.224827 1570.589461 1796.123513 1570.794200 1792.309120 1571.075244 Z" />
  <path id="hold_62" class="hold" d="M 1531.152543 1587.998690 C 1527.670840 1588.166098 1523.610198 1589.468228 1521.161526 1592.800779 Z" />
  <path id="hold_63" class="hold" d="M 1438.286067 1888.039685 C 1434.122129 1888.476971 1430.203794 1892.215170 1428.399899 1896.164192 Z" />
  <path id="hold_64" class="hold" d="M 1671.644861 1960.129042 C 1662.298600 1960.705917 1652.809385 1964.057414 1643.744146 1968.281716 Z" />
  <path id="hold_65" class="hold" d="M 1721.273428 1729.886303 C 1696.824201 1730.650070 1670.592010 1743.214754 1651.939607 1763.659433 Z" />
  <path id="hold_66" class="hold" d="M 1396.599098 109.324894 C 1369.335938 110.043655 1342.100671 110.585857 1314.952727 110.648531 Z" />
  <path id="hold_67" class="hold" d="M 1230.362735 661.278432 C 1225.482914 661.323988 1220.496898 661.590367 1215.517783 662.952680 Z" />
  <path id="hold_68" class="hold" d="M 1159.098849 1107.815871 C 1144.138179 1108.207988 1129.162995 1108.483171 1114.008519 1110.339686 Z" />
  <path id="hold_69" class="hold" d="M 1128.919928 1491.522795 C 1105.807442 1492.128372 1082.642643 1493.098930 1059.457136 1494.245153 Z" />
  <path id="hold_70" class="hold" d="M 1151.054869 1644.994449 C 1109.620519 1646.236961 1068.026999 1648.379711 1026.832579 1648.212912 Z" />
  <path id="hold_71" class="hold" d="M 821.119213 2979.689431 C 817.117972 2980.012738 812.639746 2981.073201 809.325877 2984.361563 Z" />
  <path id="hold_72" class="hold" d="M 563.829229 812.557105 C 547.712802 812.917086 530.646321 817.667627 515.552140 827.387889 Z" />
  <path id="hold_73" class="hold" d="M 1017.824775 361.724218 C 1000.395521 362.318616 982.956263 362.728364 965.514864 363.659380 Z" />
  <path id="hold_74" class="hold" d="M 913.670643 316.265757 C 908.122474 316.647572 902.507834 317.768994 896.924052 319.116161 Z" />
  <path id="hold_75" class="hold" d="M 723.393769 493.985380 C 714.607561 494.299383 704.996786 498.756447 698.609077 506.508399 Z" />
  <path id="hold_76" class="hold" d="M 538.393350 1440.544275 C 531.694720 1441.000259 524.993075 1444.773900 519.358414 1449.455433 Z" />
  <path id="hold_77" class="hold" d="M 958.964230 1363.204049 C 943.375136 1363.599959 927.792810 1364.075761 912.152350 1364.996235 Z" />
  <path id="hold_78" class="hold" d="M 680.150945 2523.789427 C 671.994252 2524.351267 663.711137 2526.898578 655.687740 2530.180301 Z" />
  <path id="hold_79" class="hold" d="M -105.890585 2182.173923 C -117.693704 2182.353488 -130.380927 2189.926922 -137.886305 2200.892073 Z" />
  <path id="hold_80" class="hold" d="M -280.016547 2883.141169 C -288.233816 2883.829674 -296.437447 2887.685988 -304.083493 2892.124767 Z" />
  <path id="hold_81" class="hold" d="M 610.113057 673.599350 C 607.002588 673.713070 603.983883 673.813940 600.910318 673.991002 Z" />
  <path id="hold_82" class="hold" d="M 847.211093 516.121493 C 842.123553 516.647958 837.221094 520.871127 834.767566 525.767724 Z" />
  <path id="hold_83" class="hold" d="M 887.230305 836.189322 C 880.266065 836.321574 873.183459 837.229847 866.111394 838.598269 Z" />
  <path id="hold_84" class="hold" d="M 949.156978 1133.202263 C 946.242399 1133.543227 943.737364 1136.511350 942.977890 1139.372857 Z" />
  <path id="hold_85" class="hold" d="M 1196.737350 892.940724 C 1191.177131 893.420573 1185.783361 896.849537 1181.167802 900.724947 Z" />
  <path id="hold_86" class="hold" d="M 782.288876 1166.125518 C 773.966715 1166.657030 765.611879 1170.483429 757.811214 1174.868641 Z" />
  <path id="hold_87" class="hold" d="M 905.235468 1737.441798 C 902.155496 1737.561220 898.904189 1737.757049 895.831521 1737.977275 Z" />
  <path id="hold_88" class="hold" d="M -166.002024 1917.019521 C -170.649555 1917.566180 -175.308587 1921.725167 -176.667133 1926.527448 Z" />
  <path id="hold_89" class="hold" d="M 136.748598 1834.171952 C 124.103034 1834.732341 111.380189 1835.838165 98.758717 1836.233597 Z" />
  <path id="hold_90" class="hold" d="M 455.609779 1373.208592 C 451.353041 1373.777771 447.523549 1376.916781 444.138766 1379.939241 Z" />
  <path id="hold_91" class="hold" d="M 841.515903 1596.596907 C 823.651008 1596.935712 805.833477 1596.988526 787.905837 1597.700291 Z" />
  <path id="hold_92" class="hold" d="M 875.439917 1444.857910 C 867.698407 1445.580433 860.038058 1449.600109 853.099194 1454.288529 Z" />
  <path id="hold_93" class="hold" d="M 227.475096 1129.901657 C 224.721487 1130.009330 221.927384 1130.402025 219.139504 1131.020576 Z" />
  <path id="hold_94" class="hold" d="M 204.201500 2240.351866 C 200.509364 2240.921446 197.186971 2244.534296 196.249142 2248.245750 Z" />
  <path id="hold_95" class="hold" d="M 406.309169 975.567252 C 403.488440 975.926441 401.108142 978.834564 400.401289 981.595787 Z" />
  <path id="hold_96" class="hold" d="M 796.196337 1933.070645 C 790.392600 1933.651715 784.841841 1937.133991 779.657014 1940.532178 Z" />
  <path id="hold_97" class="hold" d="M 665.285074 2185.301420 C 656.044993 2185.576715 646.634641 2187.585597 637.292963 2189.291136 Z" />
  <path id="hold_98" class="hold" d="M 739.418864 2295.371894 C 735.990298 2295.892314 732.931689 2299.364475 732.233596 2302.812442 Z" />
  <path id="hold_99" class="hold" d="M 990.935447 2059.075621 C 987.933557 2059.486634 985.442928 2062.165344 983.641325 2064.732998 Z" />
  <path id="hold_100" class="hold" d="M 448.788552 2759.674064 C 442.731243 2759.947431 436.260196 2760.924057 430.503854 2764.594192 Z" />
  <path id="hold_101" class="hold" d="M 144.403176 2206.645367 C 136.632520 2207.019454 128.836326 2210.514191 121.400986 2214.179948 Z" />
  <path id="hold_102" class="hold" d="M 537.269134 1134.523883 C 531.327305 1134.731557 525.307921 1135.246003 519.275826 1136.673208 Z" />
  <path id="hold_103" class="hold" d="M 237.559319 2530.860833 C 231.527679 2531.546237 225.738105 2535.219069 220.586029 2539.191578 Z" />
  <path id="hold_104" class="hold" d="M 72.857730 2388.807715 C 68.671415 2389.271493 64.757232 2392.887840 62.787475 2396.889513 Z" />
  <path id="hold_105" class="hold" d="M 1079.361011 434.867291 C 1075.537507 435.331575 1072.107166 438.592313 1070.002824 442.060042 Z" />
  <path id="hold_106" class="hold" d="M 1001.893426 171.489161 C 990.461977 172.078827 979.026083 173.555085 967.458616 175.210107 Z" />
  <path id="hold_107" class="hold" d="M 835.823438 202.398925 C 797.759520 203.363438 759.567817 204.978994 721.796281 204.306575 Z" />
  <path id="hold_108" class="hold" d="M 387.740624 189.443269 C 379.821357 189.775416 371.536596 191.068699 363.681713 193.565524 Z" />
  <path id="hold_109" class="hold" d="M 486.998281 296.771785 C 482.000852 297.226482 477.102534 301.259766 474.606220 306.062419 Z" />
  <path id="hold_110" class="hold" d="M -134.442897 1229.937882 C -139.849372 1230.422482 -145.218050 1234.766379 -147.852011 1240.017362 Z" />
  <path id="hold_111" class="hold" d="M 174.985719 1596.287586 C 162.438838 1597.104543 149.741777 1600.587343 137.166095 1604.011418 Z" />
  <path id="hold_112" class="hold" d="M -356.760893 2427.658176 C -360.229887 2427.646196 -364.416096 2429.615778 -366.262608 2433.262167 Z" />
  <path id="hold_113" class="hold" d="M 996.524906 1825.679302 C 988.572198 1826.277264 980.693549 1830.055741 973.086008 1833.697258 Z" />
  <path id="hold_114" class="hold" d="M 444.077993 2300.127770 C 437.836214 2300.403041 431.375470 2305.017051 427.949301 2310.997283 Z" />
  <path id="hold_115" class="hold" d="M 577.888248 554.992828 C 572.503074 555.223448 567.076215 555.608332 561.722345 556.046699 Z" />
  <path id="hold_116" class="hold" d="M 454.780509 685.181318 C 451.203177 685.963548 448.119310 688.691709 444.940587 690.726101 Z" />
  <path id="hold_117" class="hold" d="M 337.580434 654.425447 C 326.657178 654.897113 315.565427 657.695594 304.555240 659.551363 Z" />
  <path id="hold_118" class="hold" d="M 121.334732 748.293473 C 112.584546 749.038323 103.642636 755.010404 98.200884 763.041384 Z" />
  <path id="hold_119" class="hold" d="M 838.520095 1038.920637 C 835.006295 1039.178302 830.959232 1040.496616 828.458837 1043.809391 Z" />
  <path id="hold_120" class="hold" d="M 797.979197 1291.114630 C 796.490311 1291.192876 794.899552 1291.312518 793.526627 1291.485109 Z" />
  <path id="hold_121" class="hold" d="M 716.627750 1025.932919 C 708.042765 1026.353929 699.075530 1027.406057 690.626899 1031.649747 Z" />
  <path id="hold_122" class="hold" d="M 924.340226 1531.132470 C 918.534774 1531.901468 912.626136 1533.758889 907.123628 1536.834513 Z" />
  <path id="hold_123" class="hold" d="M 345.825634 2132.793403 C 340.755418 2133.103886 335.186425 2134.557871 330.841308 2138.458407 Z" />
  <path id="hold_124" class="hold" d="M 1112.185869 645.444373 C 1110.953164 645.545171 1109.710829 645.744473 1108.469926 645.995230 Z" />
  <path id="hold_125" class="hold" d="M 249.633256 439.999033 C 239.695903 440.260115 229.814989 440.144093 219.803519 440.881396 Z" />
  <path id="hold_126" class="hold" d="M 112.212815 1030.211332 C 106.561459 1030.686862 101.045416 1034.277667 96.565717 1038.497933 Z" />
  <path id="hold_127" class="hold" d="M 184.184834 1371.719990 C 182.529966 1371.767221 180.848382 1371.831402 179.317029 1371.913953 Z" />
  <path id="hold_128" class="hold" d="M 221.555075 1836.203876 C 214.568421 1836.350937 207.588225 1836.457476 200.584317 1836.708399 Z" />
  <path id="hold_129" class="hold" d="M -59.656827 2761.110864 C -68.276484 2761.275088 -77.202394 2761.889049 -86.024649 2764.815872 Z" />
  <path id="hold_130" class="hold" d="M 293.905313 2760.464169 C 287.831715 2761.096552 281.978310 2764.748743 276.751230 2768.694038 Z" />
  <path id="hold_131" class="hold" d="M 425.760737 1144.007484 C 420.101541 1144.614305 414.687933 1148.113565 409.863035 1151.839881 Z" />
  <path id="hold_132" class="hold" d="M 344.904291 904.300580 C 338.808048 904.682762 332.225281 906.184534 326.732376 910.422139 Z" />
  <path id="hold_133" class="hold" d="M 352.987494 1588.616803 C 343.903178 1588.900350 334.621082 1589.554720 325.392031 1590.388063 Z" />
  <path id="hold_134" class="hold" d="M 634.836039 1597.320472 C 627.307373 1597.612598 619.806784 1597.781439 612.304064 1598.184900 Z" />
  <path id="hold_135" class="hold" d="M 612.506599 1898.912962 C 607.318314 1899.426355 602.373178 1902.810327 598.140541 1906.478664 Z" />
  <path id="hold_136" class="hold" d="M 350.664790 1976.736825 C 347.148848 1976.887179 343.515465 1977.795029 340.076259 1979.432386 Z" />
  <path id="hold_137" class="hold" d="M 1305.393303 347.377495 C 1303.557984 347.449545 1301.893473 347.530875 1299.984892 347.728767 Z" />
  <path id="hold_138" class="hold" d="M 1137.982722 1275.113888 C 1115.982821 1275.733980 1092.379959 1285.547392 1073.964647 1302.253709 Z" />
  <path id="hold_139" class="hold" d="M 931.308453 2442.563555 C 927.496637 2442.681276 923.442157 2443.114869 919.701861 2443.772257 Z" />
  <path id="hold_140" class="hold" d="M 395.366300 1751.196323 C 394.564869 1751.234372 393.637584 1751.259778 393.000912 1751.301468 Z" />
  <path id="hold_141" class="hold" d="M 803.480445 2751.080570 C 800.352849 2751.169226 797.298783 2751.242701 794.208829 2751.423373 Z" />
</svg>