<?xml version='1.0' encoding='utf-8'?>
<svg xmlns="http://www.w3.org/2000/svg" width="2500" height="3330" viewBox="0 0 2500 3330" version="1.1" id="svg1" xml:space="preserve">
  <defs id="defs1"><style id="style1">
      .hold {
        fill: #cccccc;
        stroke: #333333;
        stroke-width: 2;
        cursor: pointer;
      }
    </style></defs>
  <path id="hold_0" class="hold" d="M 1819.793312 677.764816 C 1806.742788 677.819563 1794.321808 681.323455 1785.114547 688.766471 Z" />
  <path id="hold_1" class="hold" d="M 1417.037559 315.363514 C 1415.916760 315.387948 1414.442056 315.440861 1413.378554 315.481514 Z" />
  <path id="hold_2" class="hold" d="M 1512.324157 283.302741 C 1509.963914 283.468733 1507.482337 284.418898 1506.891045 286.752255 Z" />
  <path id="hold_3" class="hold" d="M 1673.118059 426.490817 C 1672.096944 426.493998 1670.855526 426.546715 1669.994370 426.600305 Z" />
  <path id="hold_4" class="hold" d="M 1851.502150 1171.994322 C 1845.361688 1172.299151 1840.291345 1175.226855 1836.007824 1178.688878 Z" />
  <path id="hold_5" class="hold" d="M 1475.187231 1109.125577 C 1469.618831 1109.188217 1463.831325 1109.129416 1459.043159 1111.257627 Z" />
  <path id="hold_6" class="hold" d="M 1749.286319 2030.465913 C 1745.655760 2030.577310 1742.030719 2031.880708 1740.499178 2034.980642 Z" />
  <path id="hold_7" class="hold" d="M 2389.105185 1765.153790 C 2383.908252 1765.263375 2378.624201 1766.056434 2374.873236 1769.057912 Z" />
  <path id="hold_8" class="hold" d="M 2548.299442 2317.692948 C 2542.743607 2317.963030 2538.401426 2321.408375 2536.320288 2326.041287 Z" />
  <path id="hold_9" class="hold" d="M 1758.225994 559.860727 C 1741.422645 559.971649 1724.597098 559.991804 1707.830176 560.255012 Z" />
  <path id="hold_10" class="hold" d="M 1577.470375 438.302358 C 1572.549811 438.519810 1568.669443 441.170969 1565.521472 444.197831 Z" />
  <path id="hold_11" class="hold" d="M 1541.007632 691.849389 C 1536.981303 691.867848 1533.036562 692.227100 1529.206372 692.878586 Z" />
  <path id="hold_12" class="hold" d="M 1506.056187 930.974924 C 1502.757996 931.424528 1500.693430 933.908525 1498.826405 936.202158 Z" />
  <path id="hold_13" class="hold" d="M 1291.914889 736.135785 C 1287.774681 736.278011 1284.948037 739.650681 1284.750395 743.636767 Z" />
  <path id="hold_14" class="hold" d="M 1637.043747 961.065509 C 1632.994081 961.202554 1629.618697 964.064014 1629.535778 968.171645 Z" />
  <path id="hold_15" class="hold" d="M 1549.179685 1406.412044 C 1547.597978 1406.443902 1545.883556 1406.508405 1544.442878 1406.643928 Z" />
  <path id="hold_16" class="hold" d="M 2433.139019 1551.334880 C 2417.212207 1551.302866 2401.146556 1550.710380 2385.410135 1551.478431 Z" />
  <path id="hold_17" class="hold" d="M 2179.196991 1484.919122 C 2175.970559 1485.017755 2172.545351 1485.427163 2170.457792 1487.621462 Z" />
  <path id="hold_18" class="hold" d="M 1912.114673 1118.755355 C 1909.737666 1118.981355 1908.470489 1121.332649 1908.527167 1123.544930 Z" />
  <path id="hold_19" class="hold" d="M 1595.856350 1294.886852 C 1593.100628 1294.996838 1590.153864 1295.544832 1588.674042 1297.715153 Z" />
  <path id="hold_20" class="hold" d="M 1567.972247 1174.468275 C 1564.185455 1174.595405 1560.566486 1176.341349 1559.342737 1179.775826 Z" />
  <path id="hold_21" class="hold" d="M 2093.740163 926.403856 C 2084.590015 926.544241 2076.954604 931.527799 2073.124683 938.893436 Z" />
  <path id="hold_22" class="hold" d="M 2138.741574 1809.289846 C 2133.897840 1809.634423 2130.207872 1812.334069 2126.516189 1814.673385 Z" />
  <path id="hold_23" class="hold" d="M 1953.312263 803.722165 C 1949.924475 804.081437 1947.712418 806.503094 1945.719046 808.756274 Z" />
  <path id="hold_24" class="hold" d="M 1646.761552 1561.816634 C 1643.608955 1562.055895 1641.666334 1564.843449 1641.653569 1567.921439 Z" />
  <path id="hold_25" class="hold" d="M 1752.506501 1758.802059 C 1750.223674 1758.906944 1747.737225 1759.352849 1746.606613 1761.251257 Z" />
  <path id="hold_26" class="hold" d="M 1699.989604 1850.973379 C 1694.810203 1851.418241 1690.837030 1854.361246 1686.850794 1856.807385 Z" />
  <path id="hold_27" class="hold" d="M 1483.684078 1656.822582 C 1481.811854 1657.195693 1481.035087 1659.135210 1481.112438 1661.005979 Z" />
  <path id="hold_28" class="hold" d="M 1947.000911 2217.984527 C 1928.167932 2218.390720 1909.313312 2218.738815 1890.283598 2218.293655 Z" />
  <path id="hold_29" class="hold" d="M 2179.110123 1779.841089 C 2174.874229 1780.092723 2170.678949 1781.494818 2168.513654 1784.853924 Z" />
  <path id="hold_30" class="hold" d="M 1833.235208 929.285164 C 1829.749112 929.361317 1826.297017 929.569931 1822.876360 929.878684 Z" />
  <path id="hold_31" class="hold" d="M 2114.672733 2037.082056 C 2110.963509 2037.335946 2108.527425 2040.359661 2108.099103 2043.863130 Z" />
  <path id="hold_32" class="hold" d="M 2251.309690 1924.921632 C 2247.025144 1925.320306 2243.901813 1928.016181 2241.357778 1930.884405 Z" />
  <path id="hold_33" class="hold" d="M 1381.732449 373.249501 C 1373.868608 373.353330 1367.438648 378.155218 1365.198788 385.112269 Z" />
  <path id="hold_34" class="hold" d="M 1431.790993 168.209766 C 1423.174080 168.267112 1414.616048 168.974368 1406.449777 170.309669 Z" />
  <path id="hold_35" class="hold" d="M 1562.225583 189.393154 C 1557.487311 189.499615 1552.549263 189.596280 1548.404999 191.325655 Z" />
  <path id="hold_36" class="hold" d="M 1964.601914 177.096994 C 1953.705382 177.262805 1943.173466 179.112293 1933.791421 182.992053 Z" />
  <path id="hold_37" class="hold" d="M 1865.442931 265.252138 C 1858.513945 265.703633 1852.586661 268.511567 1846.409252 270.610376 Z" />
  <path id="hold_38" class="hold" d="M 2398.506661 1006.660287 C 2392.755532 1006.787833 2387.713470 1008.832484 2382.698212 1010.597349 Z" />
  <path id="hold_39" class="hold" d="M 2145.245453 1300.481896 C 2140.690688 1300.486021 2136.097152 1301.515928 2133.314629 1304.659376 Z" />
  <path id="hold_40" class="hold" d="M 2605.816658 1954.968909 C 2600.535769 1955.246191 2595.558768 1956.438077 2590.735040 1957.863763 Z" />
  <path id="hold_41" class="hold" d="M 1477.709542 1479.817902 C 1473.362911 1480.091136 1470.215669 1483.152748 1468.921099 1486.939199 Z" />
  <path id="hold_42" class="hold" d="M 1942.546700 1853.674177 C 1936.993585 1853.874415 1931.798572 1855.263325 1926.794489 1856.715485 Z" />
  <path id="hold_43" class="hold" d="M 1787.548842 469.674918 C 1783.138917 469.802233 1778.615512 470.382085 1775.377720 472.884807 Z" />
  <path id="hold_44" class="hold" d="M 1895.375152 571.325938 C 1893.892565 571.603220 1893.304847 573.422720 1894.145487 574.919464 Z" />
  <path id="hold_45" class="hold" d="M 2000.044302 549.286968 C 1993.804906 549.540761 1987.612710 550.893690 1983.233163 554.639682 Z" />
  <path id="hold_46" class="hold" d="M 2174.873744 624.144502 C 2171.369764 624.371540 2169.007510 626.910852 2167.667466 629.746398 Z" />
  <path id="hold_47" class="hold" d="M 1585.428996 852.683316 C 1576.161066 853.203592 1567.973219 856.473414 1559.868803 859.558259 Z" />
  <path id="hold_48" class="hold" d="M 1621.482872 1052.650569 C 1606.618297 1052.821388 1592.453444 1055.327553 1578.062654 1057.024813 Z" />
  <path id="hold_49" class="hold" d="M 1685.727695 842.724829 C 1681.654178 842.870502 1677.527234 843.940334 1675.250706 846.999863 Z" />
  <path id="hold_50" class="hold" d="M 1525.218063 1242.621833 C 1519.459300 1243.034200 1514.818387 1246.003628 1510.945730 1249.444190 Z" />
  <path id="hold_51" class="hold" d="M 2020.974305 1719.491761 C 2018.480588 1719.604276 2016.010434 1719.837654 2013.645033 1720.163283 Z" />
  <path id="hold_52" class="hold" d="M 1359.685689 540.182472 C 1355.588958 540.467213 1352.728796 543.547929 1351.842459 547.279013 Z" />
  <path id="hold_53" class="hold" d="M 2060.241636 381.230167 C 2054.552236 381.288818 2048.642688 381.369778 2043.894056 383.782958 Z" />
  <path id="hold_54" class="hold" d="M 2186.219031 851.312463 C 2180.908522 851.612020 2176.646590 854.355716 2173.089216 857.501921 Z" />
  <path id="hold_55" class="hold" d="M 2131.824261 1118.232156 C 2125.967949 1118.201503 2119.973408 1118.100196 2114.216184 1118.168308 Z" />
  <path id="hold_56" class="hold" d="M 2107.269675 1486.341641 C 2103.303669 1486.527683 2099.204349 1487.028543 2096.283869 1489.301872 Z" />
  <path id="hold_57" class="hold" d="M 2368.327220 2220.427229 C 2362.632236 2220.483035 2356.899901 2220.377574 2351.215376 2220.477674 Z" />
  <path id="hold_58" class="hold" d="M 2082.603833 2220.947069 C 2077.654639 2221.329897 2073.914211 2224.307437 2070.911816 2227.521492 Z" />
  <path id="hold_59" class="hold" d="M 1933.081463 938.968674 C 1928.765347 939.401245 1925.623718 942.145293 1923.128661 945.110214 Z" />
  <path id="hold_60" class="hold" d="M 1998.946842 765.624076 C 1994.017716 765.726500 1988.864085 765.206687 1984.252409 766.352827 Z" />
  <path id="hold_61" class="hold" d="M 1994.240352 1289.684005 C 1991.037835 1289.680308 1987.704709 1289.757644 1984.633574 1289.901802 Z" />
  <path id="hold_62" class="hold" d="M 1773.627888 1297.923840 C 1770.796283 1297.984391 1767.845728 1298.937240 1766.876290 1301.542154 Z" />
  <path id="hold_63" class="hold" d="M 1792.067838 1535.124082 C 1788.756753 1535.385455 1786.698560 1538.282923 1786.459346 1541.392685 Z" />
  <path id="hold_64" class="hold" d="M 2008.339263 1597.466781 C 2000.778650 1597.730934 1993.981671 1600.203575 1987.813458 1603.380749 Z" />
  <path id="hold_65" class="hold" d="M 1976.263367 1414.993352 C 1956.248344 1415.090326 1938.507647 1424.555761 1929.552446 1440.460515 Z" />
  <path id="hold_66" class="hold" d="M 1192.055856 116.547776 C 1169.694992 116.549976 1147.301110 116.412036 1124.827134 115.893722 Z" />
  <path id="hold_67" class="hold" d="M 1229.789471 552.996150 C 1225.760692 552.930314 1221.714127 553.038260 1218.021687 554.019851 Z" />
  <path id="hold_68" class="hold" d="M 1312.701331 907.411849 C 1300.430066 907.411221 1288.109601 907.317089 1276.143301 908.479584 Z" />
  <path id="hold_69" class="hold" d="M 1409.680395 1212.609228 C 1390.722662 1212.608100 1371.837615 1212.896779 1352.991256 1213.325039 Z" />
  <path id="hold_70" class="hold" d="M 1476.810884 1335.395339 C 1442.874740 1335.518354 1409.092908 1336.355562 1374.907528 1335.360324 Z" />
  <path id="hold_71" class="hold" d="M 1627.750067 2392.291980 C 1624.537552 2392.465912 1621.164172 2393.217403 1619.463812 2395.768987 Z" />
  <path id="hold_72" class="hold" d="M 725.614576 659.618988 C 712.375472 659.568554 699.744988 662.997676 690.328611 670.429142 Z" />
  <path id="hold_73" class="hold" d="M 958.456118 309.791088 C 944.203772 309.900012 929.884435 309.861555 915.729040 310.238521 Z" />
  <path id="hold_74" class="hold" d="M 857.705694 271.378775 C 853.230045 271.566961 848.934450 272.343250 844.736188 273.300113 Z" />
  <path id="hold_75" class="hold" d="M 756.547359 409.045187 C 749.367218 409.111545 742.820989 412.462819 739.992766 418.507712 Z" />
  <path id="hold_76" class="hold" d="M 904.182743 1159.616346 C 898.777439 1159.839565 894.424353 1162.707021 891.243964 1166.320436 Z" />
  <path id="hold_77" class="hold" d="M 1228.066812 1106.776725 C 1215.276062 1106.765965 1202.516317 1106.819025 1189.849770 1107.225287 Z" />
  <path id="hold_78" class="hold" d="M 1366.013112 2025.971460 C 1359.433356 2026.248530 1353.380054 2028.105450 1347.775422 2030.553161 Z" />
  <path id="hold_79" class="hold" d="M 606.121695 1737.237220 C 596.399101 1737.133274 588.294554 1742.904018 585.561775 1751.486558 Z" />
  <path id="hold_80" class="hold" d="M 684.691218 2292.290069 C 678.101540 2292.666829 672.530240 2295.568738 667.606108 2298.946565 Z" />
  <path id="hold_81" class="hold" d="M 719.787763 549.833169 C 717.246682 549.858699 714.777550 549.875908 712.287184 549.952696 Z" />
  <path id="hold_82" class="hold" d="M 866.175650 429.280291 C 862.127649 429.593410 859.408220 432.856818 858.931984 436.708235 Z" />
  <path id="hold_83" class="hold" d="M 1001.087081 685.224282 C 995.358784 685.183915 989.779116 685.759589 984.354469 686.702238 Z" />
  <path id="hold_84" class="hold" d="M 1146.820937 923.251218 C 1144.514407 923.461971 1143.382414 925.775243 1143.662840 928.040075 Z" />
  <path id="hold_85" class="hold" d="M 1275.576371 736.936000 C 1271.121904 737.202070 1267.742905 739.822181 1265.150636 742.814417 Z" />
  <path id="hold_86" class="hold" d="M 1019.026108 945.999386 C 1012.299609 946.248820 1006.593516 949.123721 1001.524243 952.455617 Z" />
  <path id="hold_87" class="hold" d="M 1302.522898 1403.933857 C 1300.008900 1403.964570 1297.377229 1404.052596 1294.901328 1404.163807 Z" />
  <path id="hold_88" class="hold" d="M 472.020037 1524.640754 C 468.343033 1524.979179 465.804895 1528.196527 466.205942 1531.995691 Z" />
  <path id="hold_89" class="hold" d="M 696.531243 1464.945326 C 686.231695 1465.127278 676.041512 1465.742344 665.709484 1465.793322 Z" />
  <path id="hold_90" class="hold" d="M 814.184278 1104.214385 C 810.838231 1104.578939 808.663162 1107.000690 806.819512 1109.338855 Z" />
  <path id="hold_91" class="hold" d="M 1204.950922 1290.341299 C 1190.256362 1290.237387 1175.510127 1289.906521 1160.882147 1290.098559 Z" />
  <path id="hold_92" class="hold" d="M 1184.819883 1170.109622 C 1178.635218 1170.523453 1173.565999 1173.566941 1169.307179 1177.158544 Z" />
  <path id="hold_93" class="hold" d="M 547.809572 905.514081 C 545.562251 905.542261 543.371990 905.796767 541.258688 906.231420 Z" />
  <path id="hold_94" class="hold" d="M 881.549243 1790.098191 C 878.671134 1790.474884 877.066870 1793.284918 877.469724 1796.223458 Z" />
  <path id="hold_95" class="hold" d="M 646.921175 786.247059 C 644.698201 786.474302 643.650486 788.742363 643.942631 790.928367 Z" />
  <path id="hold_96" class="hold" d="M 1274.369030 1557.575094 C 1269.744972 1557.916744 1266.252845 1560.576061 1263.037184 1563.176015 Z" />
  <path id="hold_97" class="hold" d="M 1246.086957 1755.872399 C 1238.518446 1755.898404 1231.359979 1757.302579 1224.161977 1758.466417 Z" />
  <path id="hold_98" class="hold" d="M 1342.504319 1845.154563 C 1339.828968 1845.497590 1338.398540 1848.201011 1338.916267 1850.934560 Z" />
  <path id="hold_99" class="hold" d="M 1475.781768 1662.082206 C 1473.425166 1662.346963 1472.213101 1664.429863 1471.536635 1666.438670 Z" />
  <path id="hold_100" class="hold" d="M 1249.303903 2209.137599 C 1244.371921 2209.228690 1239.320702 2209.871644 1235.717958 2212.676389 Z" />
  <path id="hold_101" class="hold" d="M 821.286663 1761.981108 C 814.967077 1762.116613 809.618417 1764.738860 804.623118 1767.504970 Z" />
  <path id="hold_102" class="hold" d="M 805.964260 915.682859 C 801.107076 915.724007 796.283158 916.008041 791.738884 917.019313 Z" />
  <path id="hold_103" class="hold" d="M 1001.544198 2022.343201 C 996.764474 2022.763238 993.135053 2025.569436 990.129112 2028.627834 Z" />
  <path id="hold_104" class="hold" d="M 819.917702 1905.673858 C 816.596499 1905.955878 814.503008 1908.756312 814.143104 1911.904567 Z" />
  <path id="hold_105" class="hold" d="M 1032.695963 369.377007 C 1029.675533 369.667024 1027.869886 372.194152 1027.228723 374.914016 Z" />
  <path id="hold_106" class="hold" d="M 884.778263 157.832994 C 875.493998 158.063695 866.487907 159.000950 857.429629 160.077932 Z" />
  <path id="hold_107" class="hold" d="M 757.004616 178.993039 C 725.772723 178.965029 694.641926 179.453250 663.131894 178.126663 Z" />
  <path id="hold_108" class="hold" d="M 381.619077 159.287502 C 375.163023 159.386468 368.709688 160.243846 362.995154 162.069490 Z" />
  <path id="hold_109" class="hold" d="M 497.981560 246.910121 C 493.985406 247.167924 491.209042 250.280072 490.667490 254.055717 Z" />
  <path id="hold_110" class="hold" d="M 279.738661 977.671018 C 275.413091 977.944093 272.345748 981.293967 271.832675 985.424066 Z" />
  <path id="hold_111" class="hold" d="M 652.587416 1276.142780 C 642.451198 1276.531291 633.038045 1279.041437 623.706793 1281.507319 Z" />
  <path id="hold_112" class="hold" d="M 476.300681 1927.646275 C 473.422577 1927.564113 470.580171 1929.046318 470.209436 1931.913978 Z" />
  <path id="hold_113" class="hold" d="M 1406.213949 1476.173416 C 1399.814693 1476.483546 1394.487918 1479.330219 1389.342232 1482.073404 Z" />
  <path id="hold_114" class="hold" d="M 1099.306448 1842.763028 C 1094.222225 1842.851774 1090.335905 1846.394080 1089.398269 1851.088835 Z" />
  <path id="hold_115" class="hold" d="M 655.381117 454.624698 C 650.992455 454.695787 646.618295 454.888958 642.321614 455.126284 Z" />
  <path id="hold_116" class="hold" d="M 594.766305 555.812980 C 592.050924 556.361566 590.363042 558.471461 588.376009 560.026412 Z" />
  <path id="hold_117" class="hold" d="M 487.880542 528.846113 C 478.979835 528.993400 470.679238 530.991721 462.146524 532.240372 Z" />
  <path id="hold_118" class="hold" d="M 338.548006 599.136009 C 331.534683 599.546522 326.024293 604.119324 324.068565 610.406415 Z" />
  <path id="hold_119" class="hold" d="M 1025.177736 845.789278 C 1022.348230 845.921095 1019.414072 846.887128 1018.395491 849.475197 Z" />
  <path id="hold_120" class="hold" d="M 1071.761905 1045.948922 C 1070.553138 1045.980121 1069.273122 1046.042182 1068.190430 1046.151005 Z" />
  <path id="hold_121" class="hold" d="M 920.052787 832.886088 C 913.073393 833.041947 905.977916 833.692829 900.326768 836.898363 Z" />
  <path id="hold_122" class="hold" d="M 1252.764644 1239.897339 C 1248.198909 1240.388738 1243.893697 1241.745493 1240.312270 1244.081703 Z" />
  <path id="hold_123" class="hold" d="M 964.700451 1707.334495 C 960.598142 1707.475831 956.446092 1708.518141 954.085890 1711.536064 Z" />
  <path id="hold_124" class="hold" d="M 1126.838165 537.902091 C 1125.848831 537.956628 1124.882833 538.089474 1123.934379 538.263362 Z" />
  <path id="hold_125" class="hold" d="M 346.842041 356.099129 C 338.691275 356.099210 330.467388 355.799907 322.406606 356.178002 Z" />
  <path id="hold_126" class="hold" d="M 420.614437 823.644381 C 416.083084 823.905101 412.654224 826.651647 410.284157 829.921589 Z" />
  <path id="hold_127" class="hold" d="M 588.817180 1097.346377 C 587.461025 1097.349381 586.088123 1097.365337 584.845538 1097.399078 Z" />
  <path id="hold_128" class="hold" d="M 767.445093 1468.340038 C 761.702932 1468.311005 755.953239 1468.249810 750.229800 1468.303197 Z" />
  <path id="hold_129" class="hold" d="M 828.479420 2199.639876 C 821.389662 2199.590340 814.189128 2199.892851 807.809762 2202.040971 Z" />
  <path id="hold_130" class="hold" d="M 1121.223886 2206.525288 C 1116.392542 2206.902187 1112.703670 2209.690598 1109.626931 2212.725734 Z" />
  <path id="hold_131" class="hold" d="M 716.586973 920.907530 C 712.090862 921.272730 708.717773 923.948455 705.904653 926.817475 Z" />
  <path id="hold_132" class="hold" d="M 573.386697 728.159453 C 568.457048 728.336459 563.480210 729.395637 560.276146 732.658191 Z" />
  <path id="hold_133" class="hold" d="M 797.635261 1273.754850 C 790.198435 1273.790693 782.715624 1274.117955 775.333661 1274.588977 Z" />
  <path id="hold_134" class="hold" d="M 1033.932757 1286.591733 C 1027.787619 1286.666976 1021.626552 1286.644545 1015.538307 1286.809070 Z" />
  <path id="hold_135" class="hold" d="M 1111.310631 1526.505074 C 1107.175000 1526.805665 1104.153420 1529.399308 1101.812597 1532.234514 Z" />
  <path id="hold_136" class="hold" d="M 919.098045 1583.052729 C 916.232650 1583.098971 913.510762 1583.746507 911.181680 1584.979553 Z" />
  <path id="hold_137" class="hold" d="M 1192.165052 304.375659 C 1190.667272 304.394668 1189.313968 304.424649 1187.795492 304.542426 Z" />
  <path id="hold_138" class="hold" d="M 1348.390938 1040.312758 C 1330.359671 1040.346488 1313.922893 1047.674092 1303.975674 1060.604191 Z" />
  <path id="hold_139" class="hold" d="M 1548.291500 1966.488626 C 1545.170578 1966.502665 1541.949012 1966.763386 1539.058915 1967.209056 Z" />
  <path id="hold_140" class="hold" d="M 884.434640 1404.224029 C 883.782696 1404.237579 883.022455 1404.238419 882.508183 1404.258320 Z" />
  <path id="hold_141" class="hold" d="M 1540.458078 2209.712757 C 1537.894839 2209.717951 1535.387698 2209.712585 1532.884900 2209.791908 Z" />
</svg>