<?xml version="1.0" encoding="UTF-8" standalone="no"?>
<svg
  width="2500"
  height="3330"
  viewBox="0 0 2500 3330"
  version="1.1"
  id="svg1"
  xml:space="preserve"
  xmlns="http://www.w3.org/2000/svg"
  xmlns:svg="http://www.w3.org/2000/svg">
  <defs id="defs1">
    <style
     id="style1">
      .hold {
        fill: #cccccc;
        stroke: #333333;
        stroke-width: 2;
        cursor: pointer;
      }
      .hold:hover {
        fill: #aaaaaa;
      }
    </style>
  </defs>
  <rect class="hold" id="hold_0" x="1178.6381" y="340.85725" width="147.2737000000002" height="146.38649999999996"  />
  <rect class="hold" id="hold_1" x="1782.7747" y="742.61488" width="143.84030000000007" height="140.63441999999998"  />
  <rect class="hold" id="hold_2" x="1175.0257" y="1139.9949" width="147.2735" height="146.38660000000004"  />
  <rect class="hold" id="hold_3" x="1776.2803" y="1539.2626" width="147.2735" height="146.38639999999987"  />
  <rect class="hold" id="hold_4" x="1170.5011" y="2150.0025" width="147.2735" height="146.38639999999987"  />
  <rect class="hold" id="hold_5" x="1454.4266834" y="347.2472682599999" width="121.01586169999996" height="70.67150414000025"  />
  <rect class="hold" id="hold_6" x="1601.6338458124999" y="312.07556449" width="134.04902918749963" height="102.2275939425"  />
  <rect class="hold" id="hold_7" x="1730.0416" y="469.02834" width="59.21440000000007" height="98.84385918375"  />
  <rect class="hold" id="hold_8" x="1709.4211472000004" y="1275.5364801" width="92.2604408874995" height="90.11500324999975"  />
  <rect class="hold" id="hold_9" x="1352.6264009625" y="1212.8491" width="98.23688892500013" height="68.19864211249978"  />
  <rect class="hold" id="hold_10" x="1449.1943624999997" y="2213.6906575999997" width="62.51662950000059" height="123.33556071250041"  />
  <rect class="hold" id="hold_11" x="2203.1433" y="1915.6085" width="59.214500000000044" height="98.84398017499984"  />
  <rect class="hold" id="hold_12" x="2256.6828546750003" y="2517.369012625" width="91.02303052499974" height="84.05153400000017"  />
  <rect class="hold" id="hold_13" x="1670.91291585" y="614.70150104" width="187.72863454999992" height="54.09488020999993"  />
  <rect class="hold" id="hold_14" x="1515.7538454" y="486.55523400000015" width="142.33512451249976" height="128.33276870999964"  />
  <rect class="hold" id="hold_15" x="1467.0096165999996" y="764.1392528800001" width="188.61692328750019" height="51.900733687500065"  />
  <rect class="hold" id="hold_16" x="1367.0854931125002" y="1023.2029128999999" width="83.78798078749946" height="132.6989620999999"  />
  <rect class="hold" id="hold_17" x="1252.3896336000003" y="813.1747624999999" width="191.1051656000002" height="178.69905134999988"  />
  <rect class="hold" id="hold_18" x="1579.7235880499998" y="1051.9594032000002" width="91.62279212499993" height="170.81963759999985"  />
  <rect class="hold" id="hold_19" x="1362.2103718749997" y="1536.5674432625" width="160.17828033750038" height="79.1975708"  />
  <rect class="hold" id="hold_20" x="2249.0122640625" y="1676.6025624999997" width="88.75686851249975" height="144.7343651875001"  />
  <rect class="hold" id="hold_21" x="2054.9558269" y="1613.1584000000003" width="140.67503827500013" height="107.75990239999965"  />
  <rect class="hold" id="hold_22" x="1853.2421" y="1219.585512" width="83.13544527499994" height="138.12513594999996"  />
  <rect class="hold" id="hold_23" x="1451.7227832" y="1414.1764896000002" width="88.3949100999996" height="69.07628240000008"  />
  <rect class="hold" id="hold_24" x="1450.0024704" y="1291.7357421999998" width="88.02992160000053" height="124.3232693875002"  />
  <rect class="hold" id="hold_25" x="2055.546726275" y="1006.9899925099999" width="129.79052448750008" height="85.8560819275001"  />
  <rect class="hold" id="hold_26" x="1850.4486984" y="1964.7452749999995" width="98.84912799999984" height="140.55529300000148"  />
  <rect class="hold" id="hold_27" x="1843.4362375" y="877.0551237500001" width="133.05735085000015" height="138.81270906249995"  />
  <rect class="hold" id="hold_28" x="1446.5761198875" y="1703.48239355" width="86.63655511249999" height="138.01886372499985"  />
  <rect class="hold" id="hold_29" x="1519.3439917375" y="1921.85498985" width="128.13056696249987" height="89.95420173749994"  />
  <rect class="hold" id="hold_30" x="1364.6444872000002" y="2017.1089635125" width="84.18776477499978" height="166.5286140874996"  />
  <rect class="hold" id="hold_31" x="1246.3930019375" y="1816.2981374999995" width="102.16744926250044" height="231.51771330000042"  />
  <rect class="hold" id="hold_32" x="1505.596059625" y="2415.3399384000004" width="152.8021550750002" height="98.21810956249965"  />
  <rect class="hold" id="hold_33" x="1977.029465625" y="1935.8650625" width="123.3359622749997" height="79.96273990000009"  />
  <rect class="hold" id="hold_34" x="1651.542521875" y="1015.4917320000004" width="198.18151842499992" height="65.6770363624994"  />
  <rect class="hold" id="hold_35" x="1846.5130248000005" y="2214.1222765625002" width="138.01740488749942" height="121.1449510374996"  />
  <rect class="hold" id="hold_36" x="1970.5408608999994" y="2091.6126326249996" width="83.32233800000017" height="123.94351547499991"  />
  <rect class="hold" id="hold_37" x="1412.715865275" y="414.25731" width="62.39110352500029" height="151.42258099499992"  />
  <rect class="hold" id="hold_38" x="1153.0159860249998" y="128.54154529624998" width="195.11327187500024" height="115.72695470375001"  />
  <rect class="hold" id="hold_39" x="1455.2471684" y="198.36463470375003" width="201.38834229999998" height="106.43749329625001"  />
  <rect class="hold" id="hold_40" x="1671.4043004874998" y="209.34349224000005" width="187.07760853749983" height="54.540578072499954"  />
  <rect class="hold" id="hold_41" x="2078.4119102624995" y="192.83484421875" width="173.34437053750116" height="100.21681814875001"  />
  <rect class="hold" id="hold_42" x="1844.0631736000005" y="284.35814632000006" width="216.63167767499908" height="132.1982855799999"  />
  <rect class="hold" id="hold_43" x="2256.7382464" y="1091.4036241" width="200.0925470999996" height="123.9564399625001"  />
  <rect class="hold" id="hold_44" x="2050.9887600999996" y="1414.6527374999996" width="181.80388870000024" height="112.36476602500034"  />
  <rect class="hold" id="hold_45" x="2245.9894016499998" y="2112.3857769124998" width="185.93269835" height="124.79569358749995"  />
  <rect class="hold" id="hold_46" x="1254.5691807" y="1608.4557519124999" width="193.9850067999996" height="205.80329486250025"  />
  <rect class="hold" id="hold_47" x="1648.808395825" y="2014.2315600000006" width="131.6548585750004" height="217.2875629124992"  />
  <rect class="hold" id="hold_48" x="1854.5206698" y="517.73993656" width="177.87523020000003" height="107.1366157837499"  />
  <rect class="hold" id="hold_49" x="1974.763028125" y="631.9073645087501" width="188.84085797499938" height="184.13669549124984"  />
  <rect class="hold" id="hold_50" x="2057.370890025" y="599.11389828125" width="146.90420997499996" height="55.85592507624983"  />
  <rect class="hold" id="hold_51" x="2241.2647078125" y="684.3413" width="49.49919218749983" height="130.72229634249993"  />
  <rect class="hold" id="hold_52" x="1451.6354349999997" y="934.6843811699999" width="119.6149282000008" height="81.89794919250005"  />
  <rect class="hold" id="hold_53" x="1452.2418830999998" y="1149.5945304000002" width="119.87220198750015" height="66.83792216249958"  />
  <rect class="hold" id="hold_54" x="1651.2263968749999" y="929.48930734375" width="65.75910918750014" height="83.74438687499992"  />
  <rect class="hold" id="hold_55" x="1353.2129905" y="1353.232852" width="87.23886106250006" height="63.32218562499975"  />
  <rect class="hold" id="hold_56" x="1672.457" y="1868.4176701749998" width="177.1480855999996" height="115.0598690249999"  />
  <rect class="hold" id="hold_57" x="1205.58926875" y="612.10088851" width="89.6540014499999" height="188.85783245000027"  />
  <rect class="hold" id="hold_58" x="1151.2119369749998" y="1004.5338774500001" width="192.8106574250005" height="86.35133554999993"  />
  <rect class="hold" id="hold_59" x="1156.7349393000002" y="1326.50888125" width="188.81061069999987" height="91.42725794999956"  />
  <rect class="hold" id="hold_60" x="1160.6798872625" y="1459.9369890625" width="186.69395738749995" height="117.87831093749992"  />
  <rect class="hold" id="hold_61" x="1325.1271933125" y="595.61941359375" width="128.40427648750006" height="210.20227111625002"  />
  <rect class="hold" id="hold_62" x="2168.2999608000005" y="414.2158413075" width="94.96771089999947" height="183.76779041124996"  />
  <rect class="hold" id="hold_63" x="2157.9177968000004" y="919.7624164" width="95.12717919999977" height="92.27062586499994"  />
  <rect class="hold" id="hold_64" x="2053.3715828124996" y="1212.5904999" width="89.65389368750039" height="188.85773770000037"  />
  <rect class="hold" id="hold_65" x="1967.0356863999998" y="1612.0849577000001" width="89.32044172500014" height="182.34184229999983"  />
  <rect class="hold" id="hold_66" x="2047.9877265625" y="2410.2668218" width="89.65407863749988" height="188.85789740000064"  />
  <rect class="hold" id="hold_67" x="1650.9455776000004" y="2416.442684" width="176.83230624999942" height="185.78422008749976"  />
  <rect class="hold" id="hold_68" x="1153.2382704000004" y="2413.0876453125" width="188.0019078499995" height="89.29532748750034"  />
  <rect class="hold" id="hold_69" x="1218.12489375" y="2610.7210238999996" width="54.49742324999988" height="189.29001130000097"  />
  <rect class="hold" id="hold_70" x="1874.6146232000003" y="1022.2757344000003" width="175.46942784999987" height="166.99845302499978"  />
  <rect class="hold" id="hold_71" x="2009.6458703125" y="830.63535078" width="51.34330228750014" height="184.10496658000022"  />
  <rect class="hold" id="hold_72" x="1852.6538" y="1409.13575065" width="187.9857976000003" height="49.53913955000007"  />
  <rect class="hold" id="hold_73" x="1646.8188640624999" y="1412.8152397" width="52.67827803750015" height="189.3160331000006"  />
  <rect class="hold" id="hold_74" x="1614.5783506999999" y="1668.0682203999997" width="62.926849300000185" height="154.14769205000016"  />
  <rect class="hold" id="hold_75" x="1719.633828125" y="1739.7439304000006" width="148.2949523499999" height="74.76704201249936"  />
  <rect class="hold" id="hold_76" x="576.15684" y="743.31687" width="143.84006999999997" height="140.63442999999995"  />
  <rect class="hold" id="hold_77" x="573.93271" y="1545.2769" width="147.27361999999994" height="146.38649999999984"  />
  <rect class="hold" id="hold_78" x="927.329234" y="347.9492732099999" width="121.01581229999988" height="70.67151135000017"  />
  <rect class="hold" id="hold_79" x="767.0888724999998" y="312.77757252" width="134.0490896575003" height="102.22759537249999"  />
  <rect class="hold" id="hold_80" x="713.51574" y="469.73034" width="59.21447999999998" height="98.84387768749997"  />
  <rect class="hold" id="hold_81" x="701.0900343725" y="1286.8634215" width="92.26053786750026" height="90.11480437499995"  />
  <rect class="hold" id="hold_82" x="1051.9085958125002" y="1213.551" width="98.23683539999979" height="68.19876918749992"  />
  <rect class="hold" id="hold_83" x="985.7755785600003" y="2214.3926846" width="62.51659643999949" height="123.3355465374998"  />
  <rect class="hold" id="hold_84" x="230.37213" y="1916.3105" width="59.21446999999998" height="98.84398088750004"  />
  <rect class="hold" id="hold_85" x="149.78067176" y="2523.3834866374996" width="91.02303785625" height="84.05147835000025"  />
  <rect class="hold" id="hold_86" x="644.13026384" y="615.4035042400001" width="187.7285474037501" height="56.9525604800001"  />
  <rect class="hold" id="hold_87" x="844.6827607724999" y="487.2572488800001" width="142.33508860000018" height="128.3327569699997"  />
  <rect class="hold" id="hold_88" x="847.14509594375" y="764.8412578400001" width="188.61697792625" height="51.900733742499824"  />
  <rect class="hold" id="hold_89" x="1051.8983657999997" y="1023.9049372" width="83.78789403750034" height="132.6989627999999"  />
  <rect class="hold" id="hold_90" x="1059.2769150400002" y="813.87676125" width="191.10515376000012" height="178.69908794999992"  />
  <rect class="hold" id="hold_91" x="831.37983318375" y="1048.4006665" width="86.01299721625026" height="174.29035956250004"  />
  <rect class="hold" id="hold_92" x="980.38308546125" y="1537.2694916249998" width="160.17827391375" height="79.19756306250042"  />
  <rect class="hold" id="hold_93" x="156.54633954624998" y="1677.8358249999994" width="88.75682654750003" height="144.73432316250046"  />
  <rect class="hold" id="hold_94" x="301.85571594125" y="1619.1727072000003" width="140.6750414687499" height="107.75998639999943"  />
  <rect class="hold" id="hold_95" x="566.39417538375" y="1220.2875264000002" width="83.13541461624993" height="138.12522921250002"  />
  <rect class="hold" id="hold_96" x="961.0683973999998" y="1411.6910608000003" width="88.39499140000032" height="69.0763016000003"  />
  <rect class="hold" id="hold_97" x="963.15381672" y="1289.2502177" width="88.02999848000002" height="124.32333796250009"  />
  <rect class="hold" id="hold_98" x="317.43446281499996" y="1007.6920395725" width="129.79052932625" height="85.85594911500004"  />
  <rect class="hold" id="hold_99" x="553.4738563999999" y="1965.4472124999998" width="98.84915760000001" height="140.5553403000008"  />
  <rect class="hold" id="hold_100" x="526.27810292375" y="877.7571323437501" width="133.05736362750008" height="138.81264421874982"  />
  <rect class="hold" id="hold_101" x="963.745420625" y="1708.4343549625" width="86.63650953749993" height="138.01891849999993"  />
  <rect class="hold" id="hold_102" x="848.9549261" y="1931.2891624999997" width="120.48660631624989" height="87.85642310000048"  />
  <rect class="hold" id="hold_103" x="1048.6543606374998" y="2017.8110303375001" width="84.18785216250035" height="166.52860316249917"  />
  <rect class="hold" id="hold_104" x="1148.9261504000003" y="1817.0001874999996" width="102.16750059999958" height="231.51771335000035"  />
  <rect class="hold" id="hold_105" x="844.3734644599999" y="2416.0418008" width="152.80225140000016" height="98.21825323749954"  />
  <rect class="hold" id="hold_106" x="391.8360310199999" y="1936.5669640625001" width="123.33592413625007" height="79.96283799999992"  />
  <rect class="hold" id="hold_107" x="647.5069059499999" y="1015.5391720000003" width="198.3960527700001" height="60.81959769999969"  />
  <rect class="hold" id="hold_108" x="507.6708878125" y="2214.82431875" width="138.0174897875002" height="121.14491819999967"  />
  <rect class="hold" id="hold_109" x="443.62344618" y="2092.3146159875" width="83.32224053999983" height="123.9435943124995"  />
  <rect class="hold" id="hold_110" x="1027.6646832000004" y="414.95933" width="62.391127637499494" height="151.42255527249984"  />
  <rect class="hold" id="hold_111" x="846.13617602" y="199.06665491625" width="201.38852848374995" height="106.43748436375"  />
  <rect class="hold" id="hold_112" x="644.2899052087499" y="210.04550576000005" width="187.07750499375004" height="54.54056611499996"  />
  <rect class="hold" id="hold_113" x="273.4851088800001" y="195.34368015625" width="173.3443698249999" height="100.21683496874999"  />
  <rect class="hold" id="hold_114" x="442.07686837874996" y="285.0601577600001" width="216.6317015412502" height="132.19828854999986"  />
  <rect class="hold" id="hold_115" x="40.655845273999994" y="1091.0431833124999" width="200.09246488600007" height="123.9563682500002"  />
  <rect class="hold" id="hold_116" x="264.69386968" y="1416.4172624999999" width="181.80393799625" height="112.36466915000005"  />
  <rect class="hold" id="hold_117" x="59.222237" y="2113.0878726250003" width="185.93271314374996" height="124.79567077499951"  />
  <rect class="hold" id="hold_118" x="1048.9325124999998" y="1609.689044925" width="193.9849279875002" height="205.80331082499993"  />
  <rect class="hold" id="hold_119" x="722.3084469600002" y="2014.9336072000003" width="131.65496746874976" height="217.28754047499956"  />
  <rect class="hold" id="hold_120" x="460.35576" y="518.44195096" width="187.89532263999996" height="109.71784973374997"  />
  <rect class="hold" id="hold_121" x="339.16784004999994" y="632.6093650487501" width="188.84093745" height="184.13670495124995"  />
  <rect class="hold" id="hold_122" x="298.49672" y="599.81588984375" width="146.90410491125004" height="55.85595026749991"  />
  <rect class="hold" id="hold_123" x="212.00771" y="685.04331" width="49.499188749999945" height="130.72229949999996"  />
  <rect class="hold" id="hold_124" x="931.5214216000003" y="935.3863782999999" width="119.6149163399997" height="81.89798547500004"  />
  <rect class="hold" id="hold_125" x="929.6006836862499" y="1155.0776672000002" width="119.87215885750027" height="66.83794466249992"  />
  <rect class="hold" id="hold_126" x="785.7317090062501" y="929.129043125" width="65.81366786874992" height="84.80666531250006"  />
  <rect class="hold" id="hold_127" x="1060.7344296875" y="1350.7474232" width="87.23879331249987" height="63.32211442500011"  />
  <rect class="hold" id="hold_128" x="648.41007943" y="1874.4321384249997" width="183.60941057000002" height="115.05971117500007"  />
  <rect class="hold" id="hold_129" x="1049.2402366000001" y="596.32141375" width="128.4043045374999" height="210.20226402999992"  />
  <rect class="hold" id="hold_130" x="239.504076275" y="414.9178341575" width="94.9677168450001" height="183.7678114675"  />
  <rect class="hold" id="hold_131" x="249.72673024000005" y="920.4644192800001" width="95.12718960000007" height="92.2706563974998"  />
  <rect class="hold" id="hold_132" x="359.74621979999995" y="1213.2924217999998" width="89.65393316875003" height="188.8578270000005"  />
  <rect class="hold" id="hold_133" x="441.13032828124994" y="1618.0993808625" width="89.32061020875005" height="182.3418191374999"  />
  <rect class="hold" id="hold_134" x="356.51465844999996" y="2410.968919" width="89.65394030000004" height="188.85790900000075"  />
  <rect class="hold" id="hold_135" x="664.4235610325001" y="2422.4570824" width="176.83217840750012" height="185.78420336249974"  />
  <rect class="hold" id="hold_136" x="449.8081285725" y="1022.9777056000001" width="176.83318476749992" height="172.11388937499999"  />
  <rect class="hold" id="hold_137" x="441.7824957799999" y="814.9706634899999" width="51.343359532500074" height="184.10491115000036"  />
  <rect class="hold" id="hold_138" x="462.13212456" y="1409.8378364" width="187.98570544" height="49.539029600000276"  />
  <rect class="hold" id="hold_139" x="803.27456388" y="1413.5173369" width="52.67818830750002" height="189.31602550000048"  />
  <rect class="hold" id="hold_140" x="819.98139" y="1668.7701860999996" width="62.92696138874999" height="154.1477597625003"  />
  <rect class="hold" id="hold_141" x="624.27261946875" y="1740.4459304000004" width="148.29504193749995" height="74.76704899999959"  />
</svg>