<?xml version="1.0" encoding="UTF-8" standalone="no"?>
<!-- Created with Inkscape (http://www.inkscape.org/) -->

<svg width="2500mm" height="3330.0002mm" viewBox="0 0 2500mm 2500mm" version="1.1" id="svg1" xml:space="preserve" xmlns="http://www.w3.org/2000/svg" xmlns:svg="http://www.w3.org/2000/svg"><defs id="defs1"/>
  <g id="layer2" style="display:inline"><path
    id="path4-9-6"
    style="fill:#d45500;fill-opacity:0.625;stroke:#000000;stroke-width:8.84514;stroke-linecap:square"
    d="M 5013.4326,1548.1628 C 5013.4326,1668.3002 4924.0498,1832.0274 4735.5325,1832.0274 4547.0152,1832.0274 4456.1217,1660.7478 4456.1218,1539.0999 4456.1219,1417.452 4551.5468,1280.9137 4734.022,1280.9137 4916.4972,1280.9137 5013.4326,1428.0254 5013.4326,1548.1628 Z"/><path
    id="path4-9-6-4"
    style="display:inline;fill:#d45500;fill-opacity:0.625;stroke:#000000;stroke-width:8.84514;stroke-linecap:square"
    d="M 7286.605,3043.3696 C 7286.605,3163.507 7197.2222,3327.2342 7008.7049,3327.2342 6820.1876,3327.2342 6729.2941,3155.9546 6729.2942,3034.3067 6729.2943,2912.6588 6824.7192,2776.1205 7007.1944,2776.1205 7189.6696,2776.1205 7286.605,2923.2322 7286.605,3043.3696 Z"/><path
    id="path4-9-6-47"
    style="display:inline;fill:#d45500;fill-opacity:0.625;stroke:#000000;stroke-width:8.84514;stroke-linecap:square"
    d="M 4999.7617,4556.7444 C 4999.7617,4676.8818 4910.3789,4840.609 4721.8616,4840.609 4533.3443,4840.609 4442.4508,4669.3294 4442.4509,4547.6815 4442.451,4426.0336 4537.8759,4289.4953 4720.3511,4289.4953 4902.8263,4289.4953 4999.7617,4436.607 4999.7617,4556.7444 Z"/><path
    id="path4-9-6-47-3"
    style="display:inline;fill:#d45500;fill-opacity:0.625;stroke:#000000;stroke-width:8.84514;stroke-linecap:square"
    d="M 7275.0215,6059.9009 C 7275.0215,6180.0383 7185.6387,6343.7655 6997.1214,6343.7655 6808.6041,6343.7655 6717.7106,6172.4859 6717.7107,6050.838 6717.7108,5929.1901 6813.1357,5792.6518 6995.6109,5792.6518 7178.0861,5792.6518 7275.0215,5939.7635 7275.0215,6059.9009 Z"/><path
    id="path4-9-6-47-4"
    style="display:inline;fill:#d45500;fill-opacity:0.625;stroke:#000000;stroke-width:8.84514;stroke-linecap:square"
    d="M 4967.0833,8364.391 C 4967.0833,8484.5284 4877.7005,8648.2556 4689.1832,8648.2556 4500.6659,8648.2556 4409.7724,8476.976 4409.7725,8355.3281 4409.7726,8233.6802 4505.1975,8097.1419 4687.6727,8097.1419 4870.1479,8097.1419 4967.0833,8244.2536 4967.0833,8364.391 Z"/><path
    id="path4-9-7"
    style="fill:#d45500;fill-opacity:0.625;stroke:#000000;stroke-width:8.84514;stroke-linecap:square"
    d="M 5927.9915,1420.2162 C 5893.6655,1474.8851 5778.153,1518.5856 5700.0759,1539.4797 5517.9668,1588.2137 5494.6302,1594.1532 5500.5167,1457.5271 5504.9939,1353.6079 5578.4391,1372.2931 5761.2658,1326.3241 5939.336,1281.5511 6000.7108,1304.4007 5927.9915,1420.2162 Z"/><path
    id="path4-9-44"
    style="fill:#d45500;fill-opacity:0.625;stroke:#000000;stroke-width:8.84514;stroke-linecap:square"
    d="M 6483.5749,1380.0483 C 6565.393,1489.6254 6630.356,1557.0228 6441.8388,1557.0228 6197.2979,1557.0228 6273.7929,1575.5339 6144.3428,1360.5619 6030.8147,1172.0309 5995.8079,1131.8526 6237.2308,1210.3815 6355.4868,1248.8473 6425.1154,1301.755 6483.5749,1380.0483 Z"/><path
    id="path4-9-58"
    style="fill:#d45500;fill-opacity:0.625;stroke:#000000;stroke-width:8.84514;stroke-linecap:square"
    d="M 6766.8133,1942.1821 C 6766.8133,2078.9349 6724.4175,2139.7559 6659.3057,2135.4152 6550.5455,2128.1646 6542.7347,2080.7476 6542.7347,1943.9948 6542.7347,1807.2419 6569.0173,1762.1658 6659.3057,1763.4503 6719.2278,1764.3027 6766.8133,1805.4293 6766.8133,1942.1821 Z"/><path
    id="path4-9-58-1"
    style="display:inline;fill:#d45500;fill-opacity:0.625;stroke:#000000;stroke-width:8.84514;stroke-linecap:square"
    d="M 6729.251,5027.092 C 6634.5427,5125.7413 6561.838,5140.2544 6517.8746,5092.0299 6444.4397,5011.4776 6471.644,4971.863 6566.3522,4873.2138 6661.0606,4774.5645 6711.2376,4760.2501 6775.4792,4823.706 6818.1148,4865.82 6823.9593,4928.4428 6729.251,5027.092 Z"/><path
    id="path4-9-58-1-4"
    style="display:inline;fill:#d45500;fill-opacity:0.625;stroke:#000000;stroke-width:8.84514;stroke-linecap:square"
    d="M 5314.6158,4787.2899 C 5178.1374,4795.949 5114.7539,4757.4894 5114.9632,4692.2334 5115.3125,4583.2323 5162.1399,4572.4348 5298.6182,4563.7757 5435.0967,4555.1166 5481.7466,4578.4924 5486.1816,4668.6809 5489.1251,4728.5367 5451.0942,4778.6308 5314.6158,4787.2899 Z"/><path
    id="path4-9-58-1-0"
    style="display:inline;fill:#d45500;fill-opacity:0.625;stroke:#000000;stroke-width:8.84514;stroke-linecap:square"
    d="M 5711.8151,8536.8934 C 5739.0018,8670.9167 5709.5434,8738.952 5644.8684,8747.6422 5536.8376,8762.158 5519.7561,8717.2402 5492.5695,8583.217 5465.3829,8449.1937 5482.1798,8399.7923 5570.9214,8383.1018 5629.8168,8372.0246 5684.6286,8402.8702 5711.8151,8536.8934 Z"/><path
    id="path4-9-58-6"
    style="display:inline;fill:#d45500;fill-opacity:0.625;stroke:#000000;stroke-width:8.84514;stroke-linecap:square"
    d="M 8577.2995,7359.0959 C 8577.2995,7495.8487 8534.9037,7556.6697 8469.7919,7552.329 8361.0317,7545.0784 8353.2209,7497.6614 8353.2209,7360.9086 8353.2209,7224.1557 8379.5035,7179.0796 8469.7919,7180.3641 8529.714,7181.2165 8577.2995,7222.3431 8577.2995,7359.0959 Z"/><path
    id="path4-9-58-6-9"
    style="display:inline;fill:#d45500;fill-opacity:0.625;stroke:#000000;stroke-width:8.84514;stroke-linecap:square"
    d="M 8773.8918,9537.5266 C 8881.194,9622.306 8902.6337,9693.2774 8858.862,9741.676 8785.7473,9822.519 8743.6996,9799.2517 8636.3973,9714.4723 8529.095,9629.6928 8510.0201,9581.1255 8567.002,9511.0776 8604.8193,9464.5885 8666.5895,9452.7471 8773.8918,9537.5266 Z"/><path
    id="path4-9-0"
    style="fill:#d45500;fill-opacity:0.625;stroke:#000000;stroke-width:8.84514;stroke-linecap:square"
    d="M 6911.4966,2410.0849 C 6780.4676,2449.2352 6738.9694,2472.4817 6623.3563,2490.2152 6437.0183,2518.7968 6386.6356,2531.5592 6343.0976,2482.9891 6236.1012,2363.626 6505.7729,2320.1028 6694.2901,2320.1028 6882.8073,2320.1028 7230.6988,2314.7102 6911.4966,2410.0849 Z"/><path
    id="path4-9-8"
    style="fill:#d45500;fill-opacity:0.625;stroke:#000000;stroke-width:8.84514;stroke-linecap:square"
    d="M 6267.3667,2164.3774 C 6272.4034,2301.0375 6232.0042,2311.3994 6043.4869,2311.3994 5854.9697,2311.3993 5689.3191,2323.7951 5741.1193,2268.3774 5850.7307,2151.1111 5998.6991,2003.7611 6137.0557,1875.7134 6313.3939,1712.5142 6262.1337,2022.3916 6267.3667,2164.3774 Z"/><path
    id="path4-9-8-4"
    style="display:inline;fill:#d45500;fill-opacity:0.625;stroke:#000000;stroke-width:6.78635;stroke-linecap:square"
    d="M 5793.3058,2888.2131 C 5889.1939,2830.8757 5925.3953,2843.4421 6059.1337,2921.6297 6192.8718,2999.8171 6319.4097,3063.5093 6242.3285,3064.4293 6079.2214,3066.3761 5867.0081,3064.5764 5675.6619,3058.9598 5431.7874,3051.8013 5693.6811,2947.7851 5793.3058,2888.2131 Z"/><path
    id="path4-9-8-4-5"
    style="display:inline;fill:#d45500;fill-opacity:0.625;stroke:#000000;stroke-width:6.78635;stroke-linecap:square"
    d="M 5310.0286,4282.6961 C 5234.0838,4200.7542 5238.8841,4162.7356 5287.6935,4015.7087 5336.5029,3868.6822 5372.6214,3731.7005 5389.4777,3806.9216 5425.1464,3966.0928 5467.3151,4174.0821 5501.4298,4362.4463 5544.9098,4602.5203 5388.9331,4367.8312 5310.0286,4282.6961 Z"/><path
    id="path4-9-8-4-5-0"
    style="display:inline;fill:#d45500;fill-opacity:0.625;stroke:#000000;stroke-width:6.78635;stroke-linecap:square"
    d="M 4962.9224,3549.3379 C 4856.3476,3515.8132 4841.6723,3480.4141 4811.1883,3328.5261 4780.7043,3176.6384 4744.1769,3039.7651 4796.1013,3096.7408 4905.9754,3217.3036 5045.6921,3377.044 5168.6865,3523.7317 5325.4453,3710.688 5073.6505,3584.169 4962.9224,3549.3379 Z"/><path
    id="path4-9-8-4-0"
    style="display:inline;fill:#d45500;fill-opacity:0.625;stroke:#000000;stroke-width:6.78635;stroke-linecap:square"
    d="M 6210.3189,4096.8871 C 6303.4259,4158.6382 6307.7145,4196.7179 6294.9047,4351.1043 6282.095,4505.4904 6279.2533,4647.1254 6245.1556,4577.99 6173.0034,4431.6965 6083.0367,4239.489 6005.5193,4064.4577 5906.7219,3841.3768 6113.5834,4032.7299 6210.3189,4096.8871 Z"/><path
    id="path4-9-8-4-0-01"
    style="display:inline;fill:#d45500;fill-opacity:0.625;stroke:#000000;stroke-width:6.78635;stroke-linecap:square"
    d="M 5371.9845,5811.2846 C 5482.3238,5793.7535 5511.2477,5818.8904 5606.2789,5941.2354 5701.3101,6063.5802 5795.053,6169.7914 5723.1668,6141.9575 5571.0524,6083.0597 5374.7538,6002.4086 5199.244,5925.9809 4975.5531,5828.5723 5257.3453,5829.4992 5371.9845,5811.2846 Z"/><path
    id="path4-9-8-4-0-6"
    style="display:inline;fill:#d45500;fill-opacity:0.625;stroke:#000000;stroke-width:6.78635;stroke-linecap:square"
    d="M 8771.8502,6501.0001 C 8816.0947,6603.5893 8798.8817,6637.8263 8703.8035,6760.1348 8608.7255,6882.4432 8528.9628,6999.5178 8538.1764,6922.9837 8557.6726,6761.0343 8587.3334,6550.8963 8618.037,6361.9461 8657.1693,6121.1252 8725.8812,6394.4133 8771.8502,6501.0001 Z"/><path
    id="path4-9-8-4-0-6-8"
    style="display:inline;fill:#d45500;fill-opacity:0.625;stroke:#000000;stroke-width:6.78635;stroke-linecap:square"
    d="M 7982.6641,6106.1225 C 8094.3852,6105.4153 8119.1918,6134.6229 8194.7058,6269.8889 8270.2197,6405.1546 8346.8908,6524.2768 8280.0186,6485.9302 8138.5141,6404.7871 7956.6071,6295.4822 7794.6151,6193.4846 7588.1532,6063.4865 7866.5892,6106.8576 7982.6641,6106.1225 Z"/><path
    id="path4-9-8-4-0-3"
    style="display:inline;fill:#d45500;fill-opacity:0.625;stroke:#000000;stroke-width:5.74716;stroke-linecap:square"
    d="M 7200.8513,4845.9597 C 7242.225,4940.6295 7227.5729,4963.9715 7145.3388,5038.6918 7063.1049,5113.4118 6994.3992,5187.8368 7001.1085,5128.1059 7015.3055,5001.7126 7037.6101,4838.8367 7061.2554,4693.424 7091.3918,4508.0926 7157.8649,4747.6008 7200.8513,4845.9597 Z"/><path
    id="path4-9-8-4-0-3-90"
    style="display:inline;fill:#d45500;fill-opacity:0.625;stroke:#000000;stroke-width:5.74716;stroke-linecap:square"
    d="M 5755.7978,5492.8226 C 5660.0997,5531.7589 5637.1405,5516.514 5564.5502,5432.3937 5491.9601,5348.2737 5419.3187,5277.685 5478.8582,5285.9214 5604.8466,5303.3498 5767.098,5329.8173 5911.8576,5357.178 6096.3567,5392.0496 5855.225,5452.3687 5755.7978,5492.8226 Z"/><path
    id="path4-9-8-4-0-3-90-3"
    style="display:inline;fill:#d45500;fill-opacity:0.625;stroke:#000000;stroke-width:5.74716;stroke-linecap:square"
    d="M 5687.4525,5026.8342 C 5739.4387,5116.118 5727.5682,5140.9901 5654.4724,5224.6716 5581.3769,5308.3528 5521.6859,5390.1851 5521.4816,5330.0789 5521.0492,5202.8915 5524.4751,5038.5312 5531.2412,4891.364 5539.8646,4703.7965 5633.4401,4934.0714 5687.4525,5026.8342 Z"/><path
    id="path4-9-8-4-0-3-9"
    style="display:inline;fill:#d45500;fill-opacity:0.625;stroke:#000000;stroke-width:5.74716;stroke-linecap:square"
    d="M 8003.8471,3937.8124 C 8100.3606,3900.9439 8122.9865,3916.6793 8193.7504,4002.3417 8264.5139,4088.0039 8335.62,4160.1391 8276.2714,4150.6237 8150.6872,4130.4888 7989.0427,4100.5369 7844.9052,4070.0684 7661.199,4031.2356 7903.5725,3976.118 8003.8471,3937.8124 Z"/><path
    id="path4-9-8-4-0-3-9-2"
    style="display:inline;fill:#d45500;fill-opacity:0.625;stroke:#000000;stroke-width:5.74716;stroke-linecap:square"
    d="M 7065.1321,7639.7923 C 7069.5635,7536.5717 7092.9817,7522.0418 7199.6838,7491.0538 7306.3855,7460.0662 7400.8053,7423.3994 7368.5331,7474.1074 7300.2437,7581.4077 7208.6411,7717.9179 7123.5074,7838.1519 7015.0027,7991.3925 7060.5284,7747.0356 7065.1321,7639.7923 Z"/><path
    id="path4-9-8-4-0-3-8"
    style="display:inline;fill:#d45500;fill-opacity:0.625;stroke:#000000;stroke-width:7.70209;stroke-linecap:square"
    d="M 7415.2035,3654.9088 C 7385.8023,3790.2468 7351.5703,3804.0941 7203.631,3820.6688 7055.6923,3837.2433 6922.6725,3864.1236 6976.8481,3804.5082 7091.4859,3678.3591 7243.5666,3518.9476 7383.3934,3379.5593 7561.6054,3201.9062 7445.7499,3514.2968 7415.2035,3654.9088 Z"/><path
    id="path4-9-8-4-0-0"
    style="display:inline;fill:#d45500;fill-opacity:0.625;stroke:#000000;stroke-width:6.78635;stroke-linecap:square"
    d="M 5609.8952,6853.4815 C 5509.6995,6804.0556 5500.6092,6766.829 5493.7073,6612.0659 5486.8054,6457.3031 5471.6356,6316.4541 5514.2378,6380.6991 5604.3858,6516.6441 5718.0354,6695.8688 5817.1551,6859.6376 5943.485,7068.3641 5713.9957,6904.8332 5609.8952,6853.4815 Z"/><path
    id="path4-9-8-4-0-0-4"
    style="display:inline;fill:#d45500;fill-opacity:0.625;stroke:#000000;stroke-width:6.78635;stroke-linecap:square"
    d="M 5992.7673,7214.2584 C 6103.0607,7232.076 6122.6838,7264.9908 6174.7367,7410.9009 6226.7894,7556.8107 6282.6588,7686.992 6223.0662,7638.0932 6096.9659,7534.6214 5935.6889,7396.6814 5792.8405,7269.248 5610.7775,7106.8316 5878.1757,7195.7469 5992.7673,7214.2584 Z"/><path
    id="path4-9-8-4-0-0-4-9"
    style="display:inline;fill:#d45500;fill-opacity:0.625;stroke:#000000;stroke-width:6.78635;stroke-linecap:square"
    d="M 5182.9168,7995.3992 C 5194.1363,7884.2407 5225.8244,7862.6927 5368.3766,7802.0452 5510.9285,7741.3978 5637.5526,7677.877 5592.2885,7740.2751 5496.5079,7872.3121 5368.4145,8041.5155 5249.7118,8191.6975 5098.423,8383.1073 5171.2605,8110.8897 5182.9168,7995.3992 Z"/><path
    id="path4-9-8-4-0-0-4-9-0"
    style="display:inline;fill:#d45500;fill-opacity:0.625;stroke:#000000;stroke-width:6.78635;stroke-linecap:square"
    d="M 4861.3112,7534.8623 C 4774.9419,7463.9932 4774.5344,7425.675 4802.9246,7273.3817 4831.3147,7121.0887 4848.4958,6980.4709 4875.4114,7052.706 4932.366,7205.5585 5002.3902,7405.894 5061.7699,7587.8803 5137.4505,7819.8253 4951.0467,7608.4929 4861.3112,7534.8623 Z"/><path
    id="path4-9-8-4-0-0-4-4"
    style="display:inline;fill:#d45500;fill-opacity:0.625;stroke:#000000;stroke-width:6.78635;stroke-linecap:square"
    d="M 5755.7234,9201.2458 C 5819.6688,9109.6321 5857.8396,9106.2493 6011.8782,9122.7229 6165.9164,9139.1965 6307.4439,9145.4019 6237.518,9177.8477 6089.5519,9246.5043 5895.2615,9331.8797 5718.4381,9405.2174 5493.0731,9498.6876 5689.2863,9296.43 5755.7234,9201.2458 Z"/><path
    id="path4-9-8-4-0-0-4-4-4"
    style="display:inline;fill:#d45500;fill-opacity:0.625;stroke:#000000;stroke-width:6.78635;stroke-linecap:square"
    d="M 7697.0263,7578.1919 C 7585.3508,7581.4582 7559.8817,7552.8265 7481.2887,7419.3259 7402.6959,7285.8256 7323.316,7168.4911 7391.0492,7205.2957 7534.3754,7283.1758 7718.7386,7388.2848 7883.0247,7486.5447 8092.4105,7611.779 7813.0539,7574.7978 7697.0263,7578.1919 Z"/><path
    id="path4-9-8-4-0-1"
    style="display:inline;fill:#d45500;fill-opacity:0.625;stroke:#000000;stroke-width:6.78635;stroke-linecap:square"
    d="M 6826.4895,4016.1534 C 6750.1176,4097.6975 6711.8549,4095.5951 6561.7471,4057.2948 6411.6397,4018.9947 6272.4485,3992.6438 6346.2908,3970.5154 6502.5444,3923.6907 6707.0348,3866.9333 6892.5182,3819.5961 7128.9205,3759.264 6905.8373,3931.4313 6826.4895,4016.1534 Z"/><path
    id="path4-9-8-4-0-1-8"
    style="display:inline;fill:#d45500;fill-opacity:0.625;stroke:#000000;stroke-width:7.14765;stroke-linecap:square"
    d="M 7252.3859,8758.6756 C 7124.9687,8730.0275 7106.4347,8697.2985 7065.4182,8556.0439 7024.4019,8414.7898 6976.7037,8287.7282 7040.088,8339.6892 7174.2121,8449.6408 7344.9718,8595.4704 7495.4885,8729.5183 7687.3253,8900.365 7384.7685,8788.4397 7252.3859,8758.6756 Z"/><path
    id="path4-9-8-4-0-1-8-5"
    style="display:inline;fill:#d45500;fill-opacity:0.625;stroke:#000000;stroke-width:7.14765;stroke-linecap:square"
    d="M 7479.8594,8180.6303 C 7478.5338,8050.0389 7506.1422,8024.4953 7634.2316,7952.1883 7762.3206,7879.8815 7875.0632,7804.3244 7839.0171,7877.9328 7762.7422,8033.6915 7659.9435,8233.3351 7563.9721,8410.5739 7441.6546,8636.4686 7481.2371,8316.3106 7479.8594,8180.6303 Z"/><path
    id="path4-9-2"
    style="fill:#d45500;fill-opacity:0.625;stroke:#000000;stroke-width:7.26225;stroke-linecap:square"
    d="M 5570.3216,1970.5435 C 5595.7347,2138.7048 5561.4012,2101.6847 5419.2414,2125.669 5318.4797,2142.6689 5345.0941,2039.2573 5345.0941,1869.1868 5345.094,1699.1162 5350.5252,1557.2494 5452.711,1557.2492 5505.7124,1557.2491 5543.4938,1793.0205 5570.3216,1970.5435 Z"/><path
    id="path4-6"
    style="fill:#d45500;fill-opacity:0.625;stroke:#000000;stroke-width:8.84514;stroke-linecap:square"
    d="M 5096.674,667.42109 C 5095.0441,870.71264 4910.5831,917.2778 4737.5191,917.27781 4564.4551,917.2778 4361.44,887.24727 4359.283,652.15611 4357.6665,475.98413 4366.4532,484.19588 4736.0537,482.28776 5123.4716,480.28766 5098.2521,470.58291 5096.674,667.42109 Z"/><path
    id="path4-6-2"
    style="fill:#d45500;fill-opacity:0.625;stroke:#000000;stroke-width:8.84514;stroke-linecap:square"
    d="M 6242.8182,935.49257 C 6165.2751,1200.893 6167.4162,1167.7708 5915.0904,1087.8159 5622.1105,994.97885 5487.5737,987.10314 5504.224,850.59519 5517.1815,744.363 5782.5537,741.10878 5971.016,745.65946 6309.2738,753.82715 6281.1703,804.22778 6242.8182,935.49257 Z"/><path
    id="path4-6-3"
    style="fill:#d45500;fill-opacity:0.625;stroke:#000000;stroke-width:8.84514;stroke-linecap:square"
    d="M 7028.1751,882.91069 C 7035.4795,1002.5262 6980.0915,984.37499 6672.2196,989.24659 6483.726,992.22921 6324.931,1004.9389 6321.1357,887.78231 6316.467,743.66562 6361.925,799.87883 6691.706,796.06126 6992.2654,792.58196 7019.8345,746.32555 7028.1751,882.91069 Z"/><path
    id="path4-6-8"
    style="fill:#d45500;fill-opacity:0.625;stroke:#000000;stroke-width:8.84514;stroke-linecap:square"
    d="M 8494.2371,997.17321 C 8567.1993,1112.8358 8459.6188,1150.8282 8252.9162,1011.4069 8096.6278,905.99007 7988.8635,885.39229 7890.3593,844.1128 7764.2335,791.25814 8073.8647,658.59756 8231.6999,761.68394 8373.2381,854.12638 8436.65,905.8839 8494.2371,997.17321 Z"/><path
    id="path4-6-4"
    style="fill:#d45500;fill-opacity:0.625;stroke:#000000;stroke-width:8.84514;stroke-linecap:square"
    d="M 7720.1546,1314.5228 C 7847.585,1634.3127 7857.3526,1556.8041 7359.3275,1559.6999 7049.0914,1561.5038 7060.2685,1595.9441 6996.0645,1394.9045 6921.8564,1162.5393 7031.1574,1262.9158 7405.6079,1135.1127 7715.6726,1029.2849 7603.4594,1021.6732 7720.1546,1314.5228 Z"/><path
    id="path4-6-4-1"
    style="display:inline;fill:#d45500;fill-opacity:0.625;stroke:#000000;stroke-width:8.84514;stroke-linecap:square"
    d="M 9282.0702,4342.6392 C 9409.5006,4662.4291 9419.2682,4584.9205 8921.2431,4587.8163 8611.007,4589.6202 8622.1841,4624.0605 8557.9801,4423.0209 8483.772,4190.6557 8593.073,4291.0322 8967.5235,4163.2291 9277.5882,4057.4013 9165.375,4049.7896 9282.0702,4342.6392 Z"/><path
    id="path4-6-4-1-9"
    style="display:inline;fill:#d45500;fill-opacity:0.625;stroke:#000000;stroke-width:8.84514;stroke-linecap:square"
    d="M 7757.4536,5492.8208 C 7786.7974,5149.8295 7743.3401,5214.7483 8189.8853,5435.2812 8468.0529,5572.6583 8473.49,5536.8602 8440.8217,5745.3593 8403.0631,5986.3462 8350.3151,5847.6387 7958.2888,5794.1394 7633.6703,5749.8392 7730.5818,5806.9173 7757.4536,5492.8208 Z"/><path
    id="path4-6-4-1-06"
    style="display:inline;fill:#d45500;fill-opacity:0.625;stroke:#000000;stroke-width:8.84514;stroke-linecap:square"
    d="M 9225.4847,8188.0026 C 9352.9151,8507.7925 9362.6827,8430.2839 8864.6576,8433.1797 8554.4215,8434.9836 8565.5986,8469.4239 8501.3946,8268.3843 8427.1865,8036.0191 8536.4875,8136.3956 8910.938,8008.5925 9221.0027,7902.7647 9108.7895,7895.153 9225.4847,8188.0026 Z"/><path
    id="path4-6-4-1-0"
    style="display:inline;fill:#d45500;fill-opacity:0.625;stroke:#000000;stroke-width:8.84514;stroke-linecap:square"
    d="M 5368.131,6616.7085 C 5231.8487,6932.8275 5293.6022,6884.9789 4939.6896,6534.5744 4719.2259,6316.2961 4702.7495,6348.5387 4799.6631,6161.0639 4911.6778,5944.3771 4917.8647,6092.6467 5272.8662,6267.3488 5566.8261,6412.0112 5492.9323,6327.2205 5368.131,6616.7085 Z"/><path
    id="path4-6-4-1-8"
    style="display:inline;fill:#d45500;fill-opacity:0.625;stroke:#000000;stroke-width:8.84514;stroke-linecap:square"
    d="M 6486.4731,8326.5567 C 6165.7589,8451.6425 6243.1938,8461.9773 6243.9441,7963.9443 6244.4115,7653.7034 6209.8902,7664.628 6411.3945,7601.8975 6644.2968,7529.3925 6543.1227,7637.9557 6668.1811,8013.3319 6771.7361,8324.163 6780.1691,8212.0085 6486.4731,8326.5567 Z"/><path
    id="path4-9-76"
    style="fill:#d45500;fill-opacity:0.625;stroke:#000000;stroke-width:8.84514;stroke-linecap:square"
    d="M 7686.8997,2232.6265 C 7686.8996,2369.3793 7604.7591,2345.7852 7347.7839,2337.6217 6934.9095,2324.5056 7023.9905,2305.701 7017.9096,2139.5258 7009.6178,1912.9328 7037.2019,1914.9641 7337.3442,1998.7048 7539.9779,2055.2403 7686.8997,2095.8737 7686.8997,2232.6265 Z"/><path
    id="path4-9-62"
    style="fill:#d45500;fill-opacity:0.625;stroke:#000000;stroke-width:8.84514;stroke-linecap:square"
    d="M 8135.5664,2965.6862 C 8238.8783,3055.2851 8174.6906,3069.8899 7946.4601,3069.8899 7702.7855,3069.8899 7775.004,3011.9809 7642.6264,2762.7071 7578.4866,2641.9286 7369.5567,2289.3797 7525.0579,2395.9543 7647.3863,2479.7935 7952.444,2806.8704 8135.5664,2965.6862 Z"/><path
    id="path4-9-39"
    style="fill:#d45500;fill-opacity:0.625;stroke:#000000;stroke-width:8.84514;stroke-linecap:square"
    d="M 8337.3227,2343.2413 C 8332.0732,2459.7241 8250.6881,2458.4766 8062.1708,2458.4766 7873.6536,2458.4766 7768.7194,2496.9376 7782.6065,2360.8917 7793.6379,2252.8207 7879.1887,2243.6305 7962.8876,2258.8942 8148.6272,2292.7666 8338.8916,2308.4276 8337.3227,2343.2413 Z"/><path
    id="path4-9-63"
    style="fill:#d45500;fill-opacity:0.625;stroke:#000000;stroke-width:8.84514;stroke-linecap:square"
    d="M 8664.6131,2810.6387 C 8664.613,2947.3915 8620.7645,3081.1 8539.4893,3064.8704 8464.0952,3049.8152 8478.348,2931.9475 8478.348,2795.1947 8478.348,2658.4418 8522.797,2573.7441 8559.3459,2574.0573 8640.5822,2574.7535 8664.6131,2673.8859 8664.6131,2810.6387 Z"/><path
    id="path4-9-63-8"
    style="display:inline;fill:#d45500;fill-opacity:0.625;stroke:#000000;stroke-width:8.84514;stroke-linecap:square"
    d="M 5790.3078,3763.422 C 5672.969,3833.6568 5535.7222,3864.7045 5507.9056,3786.6321 5482.1019,3714.2091 5590.5567,3665.9029 5707.8955,3595.668 5825.2343,3525.4331 5920.7366,3520.072 5939.239,3551.5931 5980.3637,3621.6543 5907.6466,3693.1871 5790.3078,3763.422 Z"/><path
    id="path4-9-63-8-2"
    style="display:inline;fill:#d45500;fill-opacity:0.625;stroke:#000000;stroke-width:8.84514;stroke-linecap:square"
    d="M 5745.901,4527.21 C 5611.9058,4554.534 5472.1323,4538.2854 5471.7953,4455.4063 5471.4828,4378.5244 5589.8215,4368.9392 5723.8168,4341.6151 5857.812,4314.291 5949.6831,4340.9206 5956.6789,4376.7951 5972.2282,4456.5324 5879.8963,4499.886 5745.901,4527.21 Z"/><path
    id="path4-9-37"
    style="fill:#d45500;fill-opacity:0.625;stroke:#000000;stroke-width:8.84514;stroke-linecap:square"
    d="M 6493.3149,3609.8919 C 6489.2034,3695.6069 6451.386,3681.9745 6335.0967,3778.0782 6229.675,3865.2008 6245.2736,3775.3265 6245.2736,3638.5737 6245.2737,3501.8209 6231.4444,3477.0174 6337.303,3510.1008 6452.2173,3546.0143 6495.7225,3559.7008 6493.3149,3609.8919 Z"/><path
    id="path4-9-37-0"
    style="display:inline;fill:#d45500;fill-opacity:0.625;stroke:#000000;stroke-width:8.84514;stroke-linecap:square"
    d="M 5254.3464,5089.3113 C 5339.9224,5095.6915 5325.2933,5133.1346 5418.2834,5251.9283 5502.5835,5359.6204 5413.1538,5341.647 5276.449,5338.0252 5139.7441,5334.4034 5114.5831,5347.5709 5150.4585,5242.6256 5189.4028,5128.7028 5204.2367,5085.5753 5254.3464,5089.3113 Z"/><path
    id="path4-9-59-6"
    style="fill:#d45500;fill-opacity:0.625;stroke:#000000;stroke-width:8.84514;stroke-linecap:square"
    d="M 7012.3475,7237.0996 A 341.34064,247.61287 0 0 1 6671.0068,7484.7125 341.34064,247.61287 0 0 1 6329.6662,7237.0996 341.34064,247.61287 0 0 1 6671.0068,6989.4867 341.34064,247.61287 0 0 1 7012.3475,7237.0996 Z"/><path
    id="path4-9-59-854"
    style="fill:#d45500;fill-opacity:0.625;stroke:#000000;stroke-width:7.37985;stroke-linecap:square"
    d="M 4894.2164,2660.981 C 4895.8315,3073.7591 4904.9119,3006.5504 4731.5552,3010.1169 4530.6602,3014.2498 4555.9109,3053.7209 4563.0352,2660.981 4569.974,2278.4676 4535.873,2301.5413 4734.1862,2302.6523 4937.0506,2303.7888 4892.8241,2305.1609 4894.2164,2660.981 Z"/><path
    id="path4-9-59-854-9"
    style="display:inline;fill:#d45500;fill-opacity:0.625;stroke:#000000;stroke-width:7.37985;stroke-linecap:square"
    d="M 4703.0964,3740.1872 C 5115.5815,3724.5534 5048.1031,3717.7609 5057.5555,3890.8965 5068.5092,4091.5352 5107.0999,4064.9585 4714.3446,4071.1773 4331.8162,4077.2342 4356.0348,4110.5318 4350.4097,3912.2953 4344.6554,3709.5094 4347.5288,3753.6638 4703.0964,3740.1872 Z"/><path
    id="path4-9-59-854-9-0"
    style="display:inline;fill:#d45500;fill-opacity:0.625;stroke:#000000;stroke-width:7.37985;stroke-linecap:square"
    d="M 4727.0458,4999.0749 C 5139.5309,4983.4411 5072.0525,4976.6486 5081.5049,5149.7842 5092.4586,5350.4229 5131.0493,5323.8462 4738.294,5330.065 4355.7656,5336.1219 4379.9842,5369.4195 4374.3591,5171.183 4368.6048,4968.3971 4371.4782,5012.5515 4727.0458,4999.0749 Z"/><path
    id="path4-9-59-854-9-0-6"
    style="display:inline;fill:#d45500;fill-opacity:0.625;stroke:#000000;stroke-width:7.37985;stroke-linecap:square"
    d="M 4758.129,5522.8844 C 5170.6141,5507.2506 5103.1357,5500.4581 5112.5881,5673.5937 5123.5418,5874.2324 5162.1325,5847.6557 4769.3772,5853.8745 4386.8488,5859.9314 4411.0674,5893.229 4405.4423,5694.9925 4399.688,5492.2066 4402.5614,5536.361 4758.129,5522.8844 Z"/><path
    id="path4-9-59-854-2"
    style="display:inline;fill:#d45500;fill-opacity:0.625;stroke:#000000;stroke-width:7.37985;stroke-linecap:square"
    d="M 5492.5257,2648.1556 C 5494.1408,3060.9337 5536.9437,3083.4999 5239.7625,2978.3227 4996.2174,2892.1282 4953.4562,2987.1126 5079.1462,2614.9602 5207.8017,2234.0275 5144.9914,2206.821 5335.6569,2261.3737 5538.5213,2319.4167 5491.1334,2292.3355 5492.5257,2648.1556 Z"/><path
    id="path4-9-59-854-6"
    style="display:inline;fill:#d45500;fill-opacity:0.625;stroke:#000000;stroke-width:7.37985;stroke-linecap:square"
    d="M 8559.035,1909.5518 C 8560.6501,2322.3299 8569.7305,2255.1212 8396.3738,2258.6877 8195.4788,2262.8206 8220.7295,2302.2917 8227.8538,1909.5518 8234.7926,1527.0384 8200.6916,1550.1121 8399.0048,1551.2231 8601.8692,1552.3596 8557.6427,1553.7317 8559.035,1909.5518 Z"/><path
    id="path4-9-59-854-6-3"
    style="display:inline;fill:#d45500;fill-opacity:0.625;stroke:#000000;stroke-width:3.82747;stroke-linecap:square"
    d="M 8400.4091,3697.5726 C 8243.8298,3843.4874 8272.5899,3823.3116 8210.6382,3758.1056 8138.8454,3682.5414 8132.6448,3706.1156 8284.6503,3570.6046 8432.6979,3438.6221 8411.9944,3433.6704 8480.8885,3510.0906 8551.3636,3588.2646 8535.3826,3571.792 8400.4091,3697.5726 Z"/><path
    id="path4-9-59-854-6-4"
    style="display:inline;fill:#d45500;fill-opacity:0.625;stroke:#000000;stroke-width:7.37985;stroke-linecap:square"
    d="M 8102.3823,4921.6953 C 8103.9974,5334.4734 8113.0778,5267.2647 7939.7211,5270.8312 7738.8261,5274.9641 7764.0768,5314.4352 7771.2011,4921.6953 7778.1399,4539.1819 7744.0389,4562.2556 7942.3521,4563.3666 8145.2165,4564.5031 8100.99,4565.8752 8102.3823,4921.6953 Z"/><path
    id="path4-9-59-854-6-4-7"
    style="display:inline;fill:#d45500;fill-opacity:0.625;stroke:#000000;stroke-width:7.37985;stroke-linecap:square"
    d="M 7776.5864,6423.8017 C 7778.2015,6836.5798 7787.2819,6769.3711 7613.9252,6772.9376 7413.0302,6777.0705 7438.2809,6816.5416 7445.4052,6423.8017 7452.344,6041.2883 7418.243,6064.362 7616.5562,6065.473 7819.4206,6066.6095 7775.1941,6067.9816 7776.5864,6423.8017 Z"/><path
    id="path4-9-59-854-6-4-7-2"
    style="display:inline;fill:#d45500;fill-opacity:0.625;stroke:#000000;stroke-width:7.37985;stroke-linecap:square"
    d="M 8082.0092,9430.6895 C 8083.6243,9843.4676 8092.7047,9776.2589 7919.348,9779.8254 7718.453,9783.9583 7743.7037,9823.4294 7750.828,9430.6895 7757.7668,9048.1761 7723.6658,9071.2498 7921.979,9072.3608 8124.8434,9073.4973 8080.6169,9074.8694 8082.0092,9430.6895 Z"/><path
    id="path4-9-59-854-6-4-7-2-6"
    style="display:inline;fill:#d45500;fill-opacity:0.625;stroke:#000000;stroke-width:7.37985;stroke-linecap:square"
    d="M 6709.9874,9551.555 C 6421.6133,9846.9002 6475.2261,9805.3654 6349.1625,9686.314 6203.0735,9548.3507 6193.3859,9594.1952 6473.9341,9319.2623 6747.1772,9051.4884 6706.6873,9044.0158 6847.2581,9183.9058 6991.0548,9327.0063 6958.5695,9296.9635 6709.9874,9551.555 Z"/><path
    id="path4-9-59-854-6-4-7-2-0"
    style="display:inline;fill:#d45500;fill-opacity:0.625;stroke:#000000;stroke-width:7.37985;stroke-linecap:square"
    d="M 4714.6324,9416.3408 C 4301.89,9422.0032 4369.1845,9430.4242 4363.9184,9257.1108 4357.8158,9056.266 4318.5942,9081.9025 4711.3851,9085.1755 5093.9481,9088.3633 5070.5412,9054.4902 5071.3748,9252.8048 5072.2274,9455.6706 5070.4218,9411.4597 4714.6324,9416.3408 Z"/><path
    id="path4-9-59-854-6-4-7-2-9"
    style="display:inline;fill:#d45500;fill-opacity:0.625;stroke:#000000;stroke-width:5.76034;stroke-linecap:square"
    d="M 4809.8542,10186.177 C 4810.8359,10599.901 4816.3557,10532.539 4710.978,10536.113 4588.8607,10540.255 4604.2098,10579.817 4608.5404,10186.177 4612.7582,9802.7889 4592.0294,9825.9154 4712.5773,9827.029 4835.8916,9828.1681 4809.0078,9829.5433 4809.8542,10186.177 Z"/><path
    id="path4-9-59-854-6-7"
    style="display:inline;fill:#d45500;fill-opacity:0.625;stroke:#000000;stroke-width:7.77256;stroke-linecap:square"
    d="M 7544.1695,4057.1662 C 7861.5942,4354.0306 7765.317,4261.3839 7658.5121,4409.6268 7591.2845,4502.9371 7442.9631,4511.0464 7281.6583,4344.2164 7071.1304,4126.4771 7026.3498,4088.6753 7169.1742,3936.1925 7315.2766,3780.2104 7270.5452,3801.2652 7544.1695,4057.1662 Z"/><path
    id="path4-9-59-854-6-5"
    style="display:inline;fill:#d45500;fill-opacity:0.625;stroke:#000000;stroke-width:5.51403;stroke-linecap:square"
    d="M 7793.2924,3474.684 C 7794.2174,3877.0737 7799.4177,3811.5566 7700.139,3815.0333 7585.0897,3819.0621 7599.5504,3857.54 7603.6303,3474.684 7607.6041,3101.7973 7588.0751,3124.2904 7701.6458,3125.3734 7817.8229,3126.4813 7792.4951,3127.8189 7793.2924,3474.684 Z"/><path
    id="path4-9-59-854-6-5-9"
    style="display:inline;fill:#d45500;fill-opacity:0.625;stroke:#000000;stroke-width:5.51403;stroke-linecap:square"
    d="M 7387.3967,5324.1644 C 7787.556,5366.4828 7722.977,5354.2726 7715.7657,5453.3501 7707.4088,5568.1661 7747.2178,5557.9237 7367.0168,5512.7284 6996.7161,5468.7097 7016.9805,5490.5426 7030.2608,5377.7458 7043.8459,5262.3604 7042.4542,5287.6853 7387.3967,5324.1644 Z"/><path
    id="path6"
    style="fill:#d45500;fill-opacity:0.625;stroke:#000000"
    d="M 5798.8358,8621.6963 A 35.323612,35.323612 0 0 1 5763.5122,8657.0199 35.323612,35.323612 0 0 1 5728.1886,8621.6963 35.323612,35.323612 0 0 1 5763.5122,8586.3727 35.323612,35.323612 0 0 1 5798.8358,8621.6963 Z"/><path
    id="path4-9-59-854-6-4-9"
    style="display:inline;fill:#d45500;fill-opacity:0.625;stroke:#000000;stroke-width:5.66376;stroke-linecap:square"
    d="M 6425.292,5676.3695 C 6426.241,6090.1493 6431.5764,6022.7775 6329.7168,6026.3526 6211.6763,6030.4955 6226.513,6070.0624 6230.699,5676.3695 6234.776,5292.9278 6214.7392,5316.0575 6331.2626,5317.1712 6450.4602,5318.3106 6424.4739,5319.686 6425.292,5676.3695 Z"/><path
    id="path4-9-8-4-0-8"
    style="display:inline;fill:#d45500;fill-opacity:0.625;stroke:#000000;stroke-width:6.78635;stroke-linecap:square"
    d="M 6237.3297,6417.9816 C 6330.4367,6479.7327 6334.7253,6517.8124 6321.9155,6672.1988 6309.1058,6826.5849 6306.2641,6968.2199 6272.1664,6899.0845 6200.0142,6752.791 6110.0475,6560.5835 6032.5301,6385.5522 5933.7327,6162.4713 6140.5942,6353.8244 6237.3297,6417.9816 Z"/><path
    id="path4-9-8-4-0-14"
    style="display:inline;fill:#d45500;fill-opacity:0.625;stroke:#000000;stroke-width:6.78635;stroke-linecap:square"
    d="M 6989.9615,6748.743 C 6934.3186,6845.6243 6896.593,6852.3501 6741.7026,6849.4837 6586.8125,6846.6175 6445.2875,6852.8796 6512.0899,6814.4114 6653.4465,6733.011 6839.4781,6630.8837 7009.1686,6542.2833 7225.4425,6429.3603 7047.7724,6648.0861 6989.9615,6748.743 Z"/></g>
</svg>
