<?xml version="1.0" encoding="UTF-8" standalone="no"?>
<svg
  width="2500"
  height="3330"
  viewBox="0 0 2500 3330"
  version="1.1"
  id="svg1"
  xml:space="preserve"
  xmlns="http://www.w3.org/2000/svg"
  xmlns:svg="http://www.w3.org/2000/svg">
  <defs id="defs1">
    <style
     id="style1">
      .hold {
        fill: #cccccc;
        stroke: #333333;
        stroke-width: 2;
        cursor: pointer;
      }
      .hold:hover {
        fill: #aaaaaa;
      }
    </style>
  </defs>
  <path class="hold" id="hold_0" d="M 1325.9118,411.84379 C 1325.9118,443.75462 1302.2916,487.24375 1252.4745,487.24375 1202.6575,487.24375 1178.6381,441.74855 1178.6381,409.43651 1178.6381,377.12447 1203.8549,340.85725 1252.0754,340.85725 1300.2958,340.85725 1325.9118,379.93296 1325.9118,411.84379 Z" />
  <path class="hold" id="hold_1" d="M 1926.615,808.99976 C 1926.615,840.91059 1907.5729,883.2493 1857.7557,883.2493 1807.9384,883.2493 1782.7747,844.65659 1782.7747,812.34455 1782.7747,780.0325 1805.7026,742.61488 1853.923,742.61488 1902.1437,742.61488 1926.615,777.08894 1926.615,808.99976 Z" />
  <path class="hold" id="hold_2" d="M 1322.2992,1210.9814 C 1322.2992,1242.8921 1298.6791,1286.3815 1248.862,1286.3815 1199.0448,1286.3815 1175.0257,1240.8862 1175.0257,1208.5741 1175.0258,1176.262 1200.2424,1139.9949 1248.4628,1139.9949 1296.6833,1139.9949 1322.2992,1179.0706 1322.2992,1210.9814 Z" />
  <path class="hold" id="hold_3" d="M 1923.5538,1610.249 C 1923.5538,1642.1597 1899.9337,1685.649 1850.1165,1685.649 1800.2994,1685.649 1776.2803,1640.1537 1776.2803,1607.8417 1776.2803,1575.5296 1801.497,1539.2626 1849.7174,1539.2626 1897.938,1539.2626 1923.5538,1578.338 1923.5538,1610.249 Z" />
  <path class="hold" id="hold_4" d="M 1317.7746,2220.9888 C 1317.7746,2252.8996 1294.1545,2296.3889 1244.3373,2296.3889 1194.5203,2296.3889 1170.501,2250.8936 1170.5011,2218.5816 1170.5011,2186.2695 1195.7179,2150.0025 1243.9384,2150.0025 1292.1588,2150.0025 1317.7746,2189.078 1317.7746,2220.9888 Z" />
  <path class="hold" id="hold_5" d="M 1567.591,377.85868 C 1558.5201,392.37982 1527.9951,403.98752 1507.3625,409.53739 1459.2389,422.48209 1453.072,424.05974 1454.6274,387.76919 1455.8107,360.16623 1475.219,365.12939 1523.5323,352.91913 1570.5887,341.02655 1586.8077,347.09584 1567.591,377.85868 Z" />
  <path class="hold" id="hold_6" d="M 1714.408,367.18931 C 1736.0292,396.29513 1753.1962,414.19717 1703.3788,414.19717 1638.7571,414.19717 1658.9717,419.1141 1624.7636,362.01334 1594.7628,311.93587 1585.512,301.26372 1649.3097,322.12252 1680.5599,332.33978 1698.9597,346.3931 1714.408,367.18931 Z" />
  <path class="hold" id="hold_7" d="M 1789.256,516.50297 C 1789.256,552.82717 1778.0524,568.98241 1760.8462,567.82942 1732.1055,565.90355 1730.0416,553.30866 1730.0416,516.98446 1730.0416,480.66023 1736.9869,468.68714 1760.8462,469.02834 1776.6811,469.25473 1789.256,480.17877 1789.256,516.50297 Z" />
  <path class="hold" id="hold_8" d="M 1782.0944,1344.9458 C 1757.0669,1371.1489 1731.6342,1369.4464 1720.0164,1356.6371 1700.6107,1335.2408 1709.1819,1330.9705 1734.2093,1304.7674 1759.2367,1278.5642 1776.643,1266.4258 1793.6193,1283.2809 1804.886,1294.4674 1807.1216,1318.7426 1782.0944,1344.9458 Z" />
  <path class="hold" id="hold_9" d="M 1404.1792,1280.8586 C 1368.1138,1283.1584 1352.6867,1264.3032 1352.742,1246.9699 1352.8345,1218.0173 1347.3482,1212.8349 1401.2742,1212.8491 1454.5972,1212.8632 1449.6674,1216.7582 1450.8393,1240.714 1451.6172,1256.6129 1440.2448,1278.5584 1404.1792,1280.8586 Z" />
  <path class="hold" id="hold_10" d="M 1511.1213,2268.8463 C 1513.0525,2304.4454 1510.5209,2335.0573 1499.34,2336.7055 1470.8401,2340.9069 1464.3081,2302.8898 1459.0937,2279.8307 1451.0838,2244.4099 1434.6792,2204.7092 1477.1722,2215.456 1492.5299,2219.3402 1509.1536,2232.576 1511.1213,2268.8463 Z" />
  <path class="hold" id="hold_11" d="M 2262.3578,1963.0832 C 2262.3578,1999.4074 2251.1545,2015.5627 2233.9482,2014.4097 2205.2075,2012.4838 2203.1433,1999.8889 2203.1433,1963.5648 2203.1433,1927.2404 2210.0886,1915.2674 2233.9482,1915.6085 2249.783,1915.8349 2262.3578,1926.759 2262.3578,1963.0832 Z" />
  <path class="hold" id="hold_12" d="M 2319.6416,2533.9738 C 2347.9971,2556.4931 2353.6627,2575.3443 2342.0958,2588.2 2322.7746,2609.6734 2311.663,2603.4931 2283.3077,2580.9741 2254.9524,2558.455 2249.9116,2545.5546 2264.9695,2526.9484 2274.9629,2514.6 2291.2864,2511.4548 2319.6416,2533.9738 Z" />
  <path class="hold" id="hold_13" d="M 1827.4898,640.78706 C 1794.6046,655.8485 1781.898,657.36084 1751.3464,662.0712 1702.1053,669.66303 1688.7911,673.05298 1677.2859,660.15182 1649.0112,628.44665 1720.9352,616.22147 1770.7523,616.22147 1820.5694,616.22147 1904.5683,605.48478 1827.4898,640.78706 Z" />
  <path class="hold" id="hold_14" d="M 1657.2734,575.52237 C 1658.6045,611.82193 1647.9285,614.57427 1598.1116,614.57427 1548.2944,614.57424 1504.5199,617.8668 1518.2085,603.14678 1547.1742,571.99858 1586.2759,532.85956 1622.8379,498.84759 1669.4364,455.49871 1655.8906,537.80817 1657.2734,575.52237 Z" />
  <path class="hold" id="hold_15" d="M 1531.9992,767.78717 C 1560.9207,761.82359 1562.0044,762.83213 1601.5851,773.34031 1654.7784,787.46248 1669.7037,813.02007 1642.0613,814.59361 1599.0251,817.04349 1543.5414,815.96187 1492.9768,814.47001 1428.531,812.56856 1500.3832,774.3064 1531.9992,767.78717 Z" />
  <path class="hold" id="hold_16" d="M 1405.612,1140.1826 C 1338.7243,1117.0881 1373.6676,1098.9182 1399.71,1069.2657 1453.2259,1008.3298 1448.3886,1018.6322 1449.7485,1039.0621 1452.5622,1081.3414 1449.1596,1084.749 1449.5794,1115.509 1450.4634,1180.3086 1434.6224,1150.1992 1405.612,1140.1826 Z" />
  <path class="hold" id="hold_17" d="M 1286.1167,926.11539 C 1259.1252,914.09113 1255.2216,917.87096 1253.2928,876.76775 1250.5266,817.81486 1253.6289,804.58809 1269.1414,817.85944 1303.466,847.22491 1379.8343,926.30834 1417.85,959.85395 1509.5247,1040.7489 1329.2623,945.33613 1286.1167,926.11539 Z" />
  <path class="hold" id="hold_18" d="M 1652.0742,1091.7156 C 1673.6549,1111.9671 1668.2519,1151.3479 1671.1659,1192.3926 1673.6045,1226.7389 1650.728,1232.8279 1638.9638,1206.4049 1619.9502,1163.6993 1606.4893,1129.4911 1586.0049,1082.9994 1559.8969,1023.7448 1620.5856,1062.1666 1652.0742,1091.7156 Z" />
  <path class="hold" id="hold_19" d="M 1437.5836,1540.4909 C 1467.2704,1541.1497 1481.2593,1548.358 1506.3721,1580.8551 1531.4848,1613.3523 1524.2763,1612.6826 1503.9459,1613.9728 1448.9421,1617.4635 1464.2978,1621.7336 1382.9459,1564.5784 1323.7811,1523.0107 1406.9168,1539.8105 1437.5836,1540.4909 Z" />
  <path class="hold" id="hold_20" d="M 2334.849,1685.9596 C 2349.3347,1711.8179 2306.3046,1770.6153 2289.8725,1808.304 2278.9946,1833.2544 2252.599,1819.9916 2252.1033,1789.0021 2251.4862,1750.4404 2247.1236,1744.2599 2249.9618,1693.4929 2251.3048,1669.4726 2328.7001,1674.9834 2334.849,1685.9596 Z" />
  <path class="hold" id="hold_21" d="M 2106.9984,1615.9748 C 2136.521,1616.2488 2141.6553,1633.3884 2166.5875,1666.0258 2203.1338,1713.8671 2201.2761,1726.8547 2182.6138,1718.6458 2098.4095,1681.6072 2098.267,1695.4539 2067.3784,1646.327 2038.2823,1600.051 2063.8814,1615.5746 2106.9984,1615.9748 Z" />
  <path class="hold" id="hold_22" d="M 1918.4674,1285.0239 C 1931.5754,1300.148 1958.7026,1312.8966 1901.0332,1341.7748 1874.7523,1354.935 1852.4956,1375.92 1853.2436,1327.3174 1853.6644,1299.9784 1853.4969,1287.1119 1853.2421,1247.9808 1852.9125,1197.3639 1859.5798,1217.0796 1918.4674,1285.0239 Z" />
  <path class="hold" id="hold_23" d="M 1526.0544,1479.5597 C 1501.7586,1492.0781 1491.3926,1470.567 1472.2098,1448.2229 1453.0275,1425.8791 1440.9624,1415.1315 1465.4337,1415.2984 1551.0002,1415.882 1536.1032,1406.7645 1538.8636,1432.2318 1541.2546,1454.2915 1541.7499,1471.4729 1526.0544,1479.5597 Z" />
  <path class="hold" id="hold_24" d="M 1525.8458,1349.1383 C 1542.685,1370.7394 1551.3032,1380.2922 1488.0384,1403.6813 1448.7156,1418.2194 1448.3204,1430.3657 1450.911,1376.5185 1452.5345,1342.7745 1453.1528,1354.91 1451.5066,1315.8133 1449.157,1260.0103 1498.3489,1313.8651 1525.8458,1349.1383 Z" />
  <path class="hold" id="hold_25" d="M 2073.9931,1029.9087 C 2098.8007,980.93592 2144.1793,1022.2114 2162.8793,1044.9649 2181.5792,1067.7184 2203.825,1095.2152 2159.8058,1092.6878 2126.2502,1090.761 2110.0217,1087.9079 2071.3854,1083.1003 2038.7355,1079.0376 2065.2476,1047.1739 2073.9931,1029.9087 Z" />
  <path class="hold" id="hold_26" d="M 1851.7627,2044.1918 C 1853.7418,2016.8214 1843.567,2019.9348 1891.0055,1993.0378 1951.4515,1958.7658 1952.0532,1948.0698 1947.7383,2004.4176 1945.1589,2038.1016 1927.174,2087.8183 1889.8349,2101.1149 1848.1957,2115.943 1848.4394,2090.1468 1851.7627,2044.1918 Z" />
  <path class="hold" id="hold_27" d="M 1972.3469,972.13109 C 1972.8515,1008.9146 1978.3384,1013.8417 1904.6883,1015.4655 1865.3591,1016.3327 1832.5165,1017.2825 1846.8325,1001.4474 1877.1265,967.93972 1909.0214,931.15438 1945.972,894.13016 1993.0658,846.94206 1971.4345,905.60521 1972.3469,972.13109 Z" />
  <path class="hold" id="hold_28" d="M 1479.3011,1828.4808 C 1445.1148,1808.6867 1449.8929,1825.1307 1448.5977,1761.6985 1447.7576,1720.5583 1440.7965,1695.9439 1458.7823,1705.5581 1490.5365,1722.5328 1503.7443,1746.1711 1525.6104,1795.5666 1546.4312,1842.6014 1522.3541,1853.4086 1479.3011,1828.4808 Z" />
  <path class="hold" id="hold_29" d="M 1589.3207,1927.068 C 1652.7866,1931.1234 1654.436,1925.7297 1640.1748,1979.3001 1629.3178,2020.084 1618.8813,2018.3284 1595.7539,1996.995 1563.995,1967.6998 1582.5896,1984.5936 1543.8681,1951.8737 1493.9118,1909.66 1525.8209,1923.0105 1589.3207,1927.068 Z" />
  <path class="hold" id="hold_30" d="M 1368.5455,2142.5399 C 1378.6186,2072.8163 1378.6672,2062.3107 1411.9548,2038.3583 1457.8097,2005.3631 1449.2281,2010.5891 1446.1414,2054.8572 1443.6693,2090.312 1453.2224,2083.4731 1389.6427,2164.8052 1355.0321,2209.0797 1365.3988,2164.321 1368.5455,2142.5399 Z" />
  <path class="hold" id="hold_31" d="M 1283.1068,2025.6011 C 1236.8581,2009.551 1246.6326,2023.4831 1248.5678,1934.3193 1252.459,1755.0631 1251.9243,1809.369 1291.1759,1902.7695 1307.9492,1942.6822 1326.4085,1969.8317 1343.0284,2017.8561 1360.4217,2068.1149 1336.0742,2043.9827 1283.1068,2025.6011 Z" />
  <path class="hold" id="hold_32" d="M 1514.1883,2436.0711 C 1519.2669,2407.1166 1530.4665,2417.4839 1628.4998,2415.8739 1651.4911,2415.4962 1669.1772,2448.9584 1650.699,2457.5767 1611.5977,2475.8131 1595.0986,2485.8433 1548.9861,2506.7501 1485.4919,2535.5377 1508.8623,2466.435 1514.1883,2436.0711 Z" />
  <path class="hold" id="hold_33" d="M 2047.7115,2014.5954 C 2037.16,2012.816 2005.1503,2007.8577 1984.3813,1972.3973 1963.6127,1936.9372 1991.6149,1930.1219 2009.5137,1939.8978 2047.3889,1960.5844 2036.6328,1953.5038 2080.0101,1979.6646 2129.0221,2009.2237 2077.963,2019.6965 2047.7115,2014.5954 Z" />
  <path class="hold" id="hold_34" d="M 1835.4352,1052.8017 C 1812.8834,1071.9545 1775.8056,1074.2763 1735.0657,1078.3181 1690.5608,1082.7331 1618.5314,1084.0701 1668.4541,1067.0774 1709.2818,1053.1804 1750.2982,1029.7418 1799.6675,1018.6539 1852.463,1006.7967 1861.9325,1030.2978 1835.4352,1052.8017 Z" />
  <path class="hold" id="hold_35" d="M 1910.1563,2332.6866 C 1854.3262,2335.8813 1850.9073,2331.8885 1849.6247,2292.8402 1848.0558,2245.0708 1835.4512,2188.9584 1875.3756,2226.0545 1909.0302,2257.3248 1926.2799,2269.769 1966.0549,2305.3746 2016.7494,2350.7548 1951.5639,2330.3172 1910.1563,2332.6866 Z" />
  <path class="hold" id="hold_36" d="M 1984.3267,2194.1174 C 1952.4528,2180.8172 1982.4686,2153.1392 2007.3538,2123.1266 2035.6405,2089.0124 2051.6622,2072.4638 2052.269,2126.5758 2052.51,2148.0799 2055.1443,2179.1471 2053.0872,2207.1577 2051.4885,2228.9258 2004.8098,2202.6646 1984.3267,2194.1174 Z" />
  <path class="hold" id="hold_37" d="M 1473.0739,524.03631 C 1479.7894,568.70322 1470.7167,558.86997 1433.1499,565.24066 1406.5227,569.75615 1413.5558,542.28801 1413.5558,497.114 1413.5558,451.93995 1414.9911,414.25738 1441.9945,414.25731 1456.0006,414.25729 1465.9844,476.88275 1473.0739,524.03631 Z" />
  <path class="hold" id="hold_38" d="M 1347.909,177.90169 C 1347.4782,231.89988 1298.733,244.26849 1252.9997,244.2685 1207.266,244.26849 1153.6177,236.29179 1153.0479,173.84701 1152.6205,127.05232 1154.9426,129.23352 1252.6124,128.72669 1354.9906,128.19542 1348.326,125.61765 1347.909,177.90169 Z" />
  <path class="hold" id="hold_39" d="M 1650.7863,249.10669 C 1630.2949,319.60219 1630.8607,310.8043 1564.1817,289.56672 1486.7596,264.9074 1451.2072,262.81546 1455.6073,226.55628 1459.0313,198.33894 1529.158,197.47458 1578.9605,198.68331 1668.3477,200.85283 1660.921,214.24019 1650.7863,249.10669 Z" />
  <path class="hold" id="hold_40" d="M 1858.3229,235.13991 C 1860.2531,266.91212 1845.6164,262.0908 1764.259,263.38481 1714.4481,264.17704 1672.4852,267.55296 1671.4823,236.43391 1670.2484,198.15371 1682.2611,213.08502 1769.4083,212.07101 1848.8333,211.14687 1856.1187,198.86025 1858.3229,235.13991 Z" />
  <path class="hold" id="hold_41" d="M 2245.7408,265.49025 C 2265.0217,296.21248 2236.5927,306.30402 2181.9699,269.27101 2140.6695,241.27025 2112.192,235.79908 2086.1616,224.83443 2052.8317,210.79521 2134.6542,175.55799 2176.3634,202.93974 2213.766,227.49424 2230.5229,241.24205 2245.7408,265.49025 Z" />
  <path class="hold" id="hold_42" d="M 2041.1837,349.78447 C 2074.8581,434.72688 2077.4392,414.13908 1945.8324,414.90827 1863.85,415.38742 1866.8038,424.53544 1849.8373,371.13543 1830.2274,309.41471 1859.111,336.07664 1958.0623,302.12967 2039.9991,274.01974 2010.3461,271.99793 2041.1837,349.78447 Z" />
  <path class="hold" id="hold_43" d="M 2445.6382,1154.111 C 2467.3264,1228.3177 2466.6893,1214.2974 2358.5804,1214.372 2276.5969,1214.4285 2279.5958,1222.1185 2262.5854,1175.4619 2245.2149,1127.8176 2263.0047,1144.5679 2360.4436,1106.4561 2434.087,1077.6516 2426.4281,1088.3827 2445.6382,1154.111 Z" />
  <path class="hold" id="hold_44" d="M 2051.0402,1459.6216 C 2049.8756,1394.7163 2064.1095,1411.8884 2155.8327,1437.7862 2221.2291,1456.2507 2244.3736,1465.1072 2227.4776,1502.2809 2219.7522,1519.2783 2181.0439,1530.6398 2142.0353,1525.9588 2056.0676,1515.6429 2052.0721,1517.1326 2051.0402,1459.6216 Z" />
  <path class="hold" id="hold_45" d="M 2431.9221,2176.3021 C 2433.253,2237.7819 2392.1491,2237.9754 2335.6979,2236.9781 2289.9762,2236.1704 2255.3923,2226.9251 2247.6322,2196.8652 2239.8194,2166.6005 2256.9059,2161.8064 2355.8573,2127.8592 2437.7942,2099.7494 2430.4128,2106.592 2431.9221,2176.3021 Z" />
  <path class="hold" id="hold_46" d="M 1419.6436,1758.1478 C 1383.6301,1842.1152 1399.9489,1829.4058 1306.4247,1736.3314 1248.1654,1678.3526 1243.8114,1686.9169 1269.4215,1637.1198 1299.0225,1579.5635 1300.657,1618.9469 1394.4691,1665.3511 1472.1502,1703.7762 1452.6234,1681.2544 1419.6436,1758.1478 Z" />
  <path class="hold" id="hold_47" d="M 1715.174,2212.3168 C 1630.4229,2245.5419 1650.8856,2248.2872 1651.0839,2115.9998 1651.2073,2033.5941 1642.0848,2036.4956 1695.3339,2019.8332 1756.88,2000.5744 1730.1442,2029.4109 1763.1916,2129.1182 1790.5568,2211.6811 1792.7854,2181.8904 1715.174,2212.3168 Z" />
  <path class="hold" id="hold_48" d="M 2032.3959,593.65066 C 2032.3959,629.97484 1997.0695,625.14889 1942.7817,624.0613 1833.6434,621.87489 1857.217,613.06065 1855.6101,568.9213 1853.4189,508.73378 1860.7083,509.27334 1940.023,531.51649 1993.5706,546.53344 2032.3959,557.32643 2032.3959,593.65066 Z" />
  <path class="hold" id="hold_49" d="M 2150.9594,788.36554 C 2178.2603,812.16474 2161.2983,816.04406 2100.9867,816.04406 2036.5938,816.04406 2055.678,800.66231 2020.6963,734.45036 2003.747,702.36922 1948.5355,608.7254 1989.628,637.03369 2021.954,659.303 2102.5679,746.18096 2150.9594,788.36554 Z" />
  <path class="hold" id="hold_50" d="M 2204.2751,623.03208 C 2202.8878,653.97217 2181.381,653.64082 2131.564,653.64082 2081.747,653.64082 2054.0174,663.8568 2057.687,627.72038 2060.6023,599.01462 2083.2098,596.57352 2105.3278,600.62787 2154.4109,609.62502 2204.6899,613.78489 2204.2751,623.03208 Z" />
  <path class="hold" id="hold_51" d="M 2290.7639,747.18192 C 2290.7639,783.5061 2279.1767,819.0217 2257.6992,814.71078 2237.7755,810.71183 2241.5419,779.40387 2241.5419,743.07969 2241.5419,706.75546 2253.2879,684.25811 2262.9464,684.3413 2284.4137,684.52623 2290.7639,710.85771 2290.7639,747.18192 Z" />
  <path class="hold" id="hold_52" d="M 1531.207,1000.2597 C 1500.1993,1018.9154 1442.9796,1023.537 1452.6129,1003.7664 1461.6625,985.19398 1493.0752,958.01354 1516.7019,948.3904 1541.0908,938.45705 1563.029,929.63985 1567.9185,938.01249 1578.786,956.62212 1562.2147,981.60394 1531.207,1000.2597 Z" />
  <path class="hold" id="hold_53" d="M 1515.3254,1201.0523 C 1469.7357,1213.1027 1449.207,1234.9268 1452.5665,1186.1481 1454.7247,1154.8135 1463.7136,1163.8754 1513.6363,1153.8389 1549.0724,1146.7148 1569.8674,1148.7917 1571.7163,1158.3207 1575.8251,1179.5004 1550.4679,1191.7635 1515.3254,1201.0523 Z" />
  <path class="hold" id="hold_54" d="M 1716.9819,959.4791 C 1715.8954,982.24665 1705.902,978.62567 1675.1716,1004.1527 1647.313,1027.2941 1651.4352,1003.4217 1651.4352,967.09753 1651.4353,930.77336 1647.7806,924.18506 1675.7546,932.97264 1706.1216,942.51194 1717.6182,946.14736 1716.9819,959.4791 Z" />
  <path class="hold" id="hold_55" d="M 1403.4598,1354.4354 C 1417.4787,1359.4531 1424.1918,1382.6903 1432.8968,1395.6358 1453.1349,1425.7328 1430.2188,1414.8148 1394.0934,1413.8528 1357.9683,1412.8906 1341.2287,1401.1636 1362.7831,1381.2021 1388.2817,1357.5879 1390.9507,1349.958 1403.4598,1354.4354 Z" />
  <path class="hold" id="hold_56" d="M 1848.3829,1939.0112 C 1848.737,1980.4781 1809.1132,1987.6125 1754.9824,1981.6335 1701.3093,1975.7049 1675.1271,1985.5909 1672.457,1932.581 1671.2115,1907.8551 1719.027,1905.7498 1765.8575,1888.6728 1868.1317,1851.3778 1847.7431,1864.106 1848.3829,1939.0112 Z" />
  <path class="hold" id="hold_57" d="M 1294.408,707.42992 C 1294.8347,817.07179 1297.2344,799.21987 1251.4234,800.16719 1198.3355,801.26498 1205.0081,811.74925 1206.8908,707.42992 1208.7244,605.82693 1199.713,611.95575 1252.1188,612.25087 1305.7274,612.55275 1294.04,612.91719 1294.408,707.42992 Z" />
  <path class="hold" id="hold_58" d="M 1251.176,1004.7215 C 1357.5338,1005.221 1340.3633,1001.423 1342.8611,1047.4112 1345.7557,1100.7047 1351.3253,1086.3349 1247.5367,1087.9868 1146.4508,1089.5956 1152.9695,1103.7531 1151.3641,1051.1013 1149.8435,1001.225 1157.1482,1004.28 1251.176,1004.7215 Z" />
  <path class="hold" id="hold_59" d="M 1250.232,1328.473 C 1359.2343,1324.3203 1341.4025,1322.5161 1343.9005,1368.5044 1346.7949,1421.7979 1356.9928,1414.7387 1253.2042,1416.3904 1152.1183,1417.9993 1158.5183,1426.8437 1157.0318,1374.1882 1155.5112,1320.3243 1156.2705,1332.0526 1250.232,1328.473 Z" />
  <path class="hold" id="hold_60" d="M 1254.3392,1461.8278 C 1363.3479,1457.8489 1344.6883,1455.8708 1347.1862,1501.8592 1350.0809,1555.1527 1320.0421,1579.0547 1260.597,1577.8153 1197.3195,1576.4961 1162.6255,1562.6753 1161.1391,1510.0197 1159.6183,1456.1559 1156.2709,1465.4075 1254.3392,1461.8278 Z" />
  <path class="hold" id="hold_61" d="M 1452.5158,704.02325 C 1452.9425,813.66512 1464.2536,819.65916 1385.7212,791.72204 1321.3626,768.8271 1310.0624,794.05681 1343.2771,695.2059 1377.2753,594.02278 1360.6772,586.79621 1411.0619,601.28644 1464.6706,616.70381 1452.1477,609.5105 1452.5158,704.02325 Z" />
  <path class="hold" id="hold_62" d="M 2262.8641,507.83572 C 2264.3494,606.84079 2264.1032,595.90278 2218.2923,596.85011 2165.2043,597.94788 2168.1662,611.62607 2168.4685,506.77207 2168.7385,413.13316 2161.8198,413.95709 2214.2255,414.2522 2267.8339,414.55408 2261.4467,413.33301 2262.8641,507.83572 Z" />
  <path class="hold" id="hold_63" d="M 2220.9459,982.76874 C 2179.5686,1021.5266 2187.1688,1016.1675 2170.7978,998.84756 2151.8258,978.77617 2150.1873,985.03793 2190.356,949.04365 2229.4788,913.98656 2224.0076,912.67127 2242.2134,932.96993 2260.8369,953.73441 2256.6139,949.35899 2220.9459,982.76874 Z" />
  <path class="hold" id="hold_64" d="M 2142.1902,1307.9193 C 2142.6171,1417.5613 2145.0166,1399.7095 2099.2057,1400.6567 2046.1179,1401.7545 2052.7904,1412.2388 2054.6731,1307.9193 2056.5067,1206.3166 2047.4952,1212.4453 2099.901,1212.7405 2153.5094,1213.0423 2141.8223,1213.4068 2142.1902,1307.9193 Z" />
  <path class="hold" id="hold_65" d="M 2056.096,1706.9081 C 2056.523,1804.0457 2057.5404,1791.7512 2011.7296,1792.6985 1958.6415,1793.7963 1966.6964,1811.2275 1968.5791,1706.9081 1970.4127,1605.3051 1958.2284,1611.9655 2010.6343,1612.2605 2064.2427,1612.5624 2055.6808,1612.3955 2056.096,1706.9081 Z" />
  <path class="hold" id="hold_66" d="M 2136.8064,2505.5959 C 2137.2333,2615.2379 2139.6328,2597.3857 2093.8219,2598.3332 2040.734,2599.431 2047.4066,2609.9151 2049.2892,2505.5959 2051.123,2403.9928 2042.1116,2410.1217 2094.5173,2410.4168 2148.1258,2410.7187 2136.4387,2411.0832 2136.8064,2505.5959 Z" />
  <path class="hold" id="hold_67" d="M 1790.655,2567.4008 C 1746.418,2609.2639 1722.0514,2615.6773 1676.9186,2574.1547 1637.7495,2538.1187 1637.7233,2549.0263 1711.8604,2475.9986 1784.0668,2404.8727 1773.7133,2403.2016 1810.5142,2440.7053 1844.5737,2475.4155 1823.0961,2536.7007 1790.655,2567.4008 Z" />
  <path class="hold" id="hold_68" d="M 1246.9516,2501.7846 C 1137.8813,2503.2888 1155.6644,2505.5254 1154.2729,2459.49 1152.66,2406.1417 1142.2954,2412.9513 1246.0934,2413.8207 1347.1886,2414.6674 1341.003,2405.67 1341.2232,2458.3463 1341.4489,2512.2312 1340.9717,2500.488 1246.9516,2501.7846 Z" />
  <path class="hold" id="hold_69" d="M 1272.1146,2706.2682 C 1272.374,2816.1612 1273.8327,2798.2686 1245.9858,2799.2177 1213.7155,2800.3179 1217.7716,2810.8266 1218.9161,2706.2682 1220.0307,2604.4327 1214.5528,2610.5754 1246.4085,2610.8714 1278.9952,2611.1739 1271.8909,2611.5392 1272.1146,2706.2682 Z" />
  <path class="hold" id="hold_70" d="M 1994.6782,1078.2838 C 2072.34,1145.3271 2054.5005,1132.528 2024.8941,1171.904 2006.5702,1196.2747 1967.9338,1198.8431 1925.3078,1154.5298 1869.6742,1096.694 1861.9873,1079.7063 1891.4363,1048.235 1930.1301,1006.8835 1919.5739,1013.4484 1994.6782,1078.2838 Z" />
  <path class="hold" id="hold_71" d="M 2060.5109,923.56527 C 2060.7554,1030.4476 2062.1296,1013.0452 2035.8943,1013.9687 2005.4917,1015.0389 2009.313,1025.2592 2010.3913,923.56527 2011.4414,824.51927 2006.2805,830.49389 2036.2926,830.78155 2066.9933,831.07584 2060.3,831.43112 2060.5109,923.56527 Z" />
  <path class="hold" id="hold_72" d="M 1951.1763,1409.2655 C 2057.4922,1411.289 2055.7519,1424.2098 2014.4525,1440.8011 1986.2038,1452.1495 1973.1493,1455.9972 1942.3353,1457.9625 1871.0658,1462.508 1852.1642,1444.457 1852.6538,1430.4447 1853.145,1416.3943 1880.0653,1407.9123 1951.1763,1409.2655 Z" />
  <path class="hold" id="hold_73" d="M 1699.0064,1508.3755 C 1699.2572,1618.2835 1700.6671,1600.3883 1673.75,1601.3378 1642.5567,1602.4383 1646.4774,1612.948 1647.5836,1508.3755 1648.661,1406.5261 1643.3663,1412.6697 1674.1584,1412.9656 1705.6571,1413.2682 1698.7902,1413.6335 1699.0064,1508.3755 Z" />
  <path class="hold" id="hold_74" d="M 1659.3831,1718.1188 C 1670.7776,1745.4955 1676.5682,1766.2986 1677.5052,1807.4365 1677.8217,1821.3365 1631.1907,1833.6879 1626.8137,1803.9183 1620.1446,1758.5615 1617.8158,1752.8075 1614.7819,1695.6853 1611.3445,1630.9717 1650.7417,1697.3568 1659.3831,1718.1188 Z" />
  <path class="hold" id="hold_75" d="M 1859.3294,1795.3449 C 1844.6254,1821.0784 1823.5577,1813.3915 1782.6203,1813.5991 1723.1814,1813.9009 1709.0497,1805.4652 1726.7026,1795.2473 1764.0571,1773.6259 1772.4997,1772.5436 1817.3416,1749.0097 1874.4936,1719.0151 1874.6064,1768.6084 1859.3294,1795.3449 Z" />
  <path class="hold" id="hold_76" d="M 576.15684,809.70177 C 576.15684,841.6126 595.19883,883.9513 645.01597,883.9513 694.83309,883.9513 719.99693,845.35858 719.99691,813.04654 719.99686,780.7345 697.06916,743.31687 648.84869,743.31687 600.62822,743.31687 576.15684,777.79094 576.15684,809.70177 Z" />
  <path class="hold" id="hold_77" d="M 573.93271,1616.2634 C 573.93271,1648.1742 597.55282,1691.6634 647.36994,1691.6634 697.18707,1691.6634 721.20636,1646.168 721.20633,1613.8562 721.2063,1581.544 695.98957,1545.2769 647.76909,1545.2769 599.54864,1545.2769 573.93271,1584.3525 573.93271,1616.2634 Z" />
  <path class="hold" id="hold_78" d="M 935.18078,378.5607 C 944.25171,393.08183 974.77674,404.68952 995.4092,410.23941 1043.533,423.1841 1049.6998,424.76175 1048.1443,388.4712 1046.961,360.86824 1027.5527,365.83139 979.23933,353.62113 932.18291,341.72856 915.96416,347.79784 935.18078,378.5607 Z" />
  <path class="hold" id="hold_79" d="M 788.36364,367.89133 C 766.74259,396.99713 749.57561,414.89918 799.39274,414.89918 864.01453,414.89918 843.80014,419.8161 878.00834,362.71536 908.00899,312.63785 917.25981,301.96573 853.46194,322.82454 822.21191,333.04178 803.81203,347.09509 788.36364,367.89133 Z" />
  <path class="hold" id="hold_80" d="M 713.51574,517.20499 C 713.51574,553.52917 724.71917,569.68442 741.92544,568.53144 770.66617,566.60553 772.73022,554.01065 772.73022,517.68647 772.73022,481.36224 765.78485,469.38915 741.92544,469.73034 726.0906,469.95675 713.51574,480.88078 713.51574,517.20499 Z" />
  <path class="hold" id="hold_81" d="M 720.6774,1356.2726 C 745.70479,1382.4757 771.13764,1380.7731 782.75529,1367.9638 802.16101,1346.5676 793.58984,1342.2974 768.56249,1316.0942 743.53509,1289.8911 726.1287,1277.7528 709.15235,1294.6078 697.88559,1305.794 695.65,1330.0694 720.6774,1356.2726 Z" />
  <path class="hold" id="hold_82" d="M 1098.5923,1281.5606 C 1134.6578,1283.8606 1150.0851,1265.0052 1150.0298,1247.6719 1149.9374,1218.7191 1155.4236,1213.5369 1101.4975,1213.551 1048.1744,1213.5651 1053.1045,1217.4602 1051.9326,1241.4158 1051.1546,1257.3148 1062.527,1279.2604 1098.5923,1281.5606 Z" />
  <path class="hold" id="hold_83" d="M 986.36529,2269.5483 C 984.43406,2305.1475 986.9656,2335.7592 998.14668,2337.4075 1026.6464,2341.609 1033.1785,2303.5917 1038.3927,2280.5327 1046.4027,2245.112 1062.8074,2205.411 1020.3144,2216.1581 1004.9566,2220.0422 988.33288,2233.2781 986.36529,2269.5483 Z" />
  <path class="hold" id="hold_84" d="M 230.37213,1963.7852 C 230.37213,2000.1095 241.57553,2016.2647 258.78183,2015.1117 287.52254,2013.1858 289.5866,2000.5908 289.5866,1964.2667 289.5866,1927.9425 282.64122,1915.9694 258.78183,1916.3105 242.94696,1916.5369 230.37213,1927.461 230.37213,1963.7852 Z" />
  <path class="hold" id="hold_85" d="M 177.84485,2539.9883 C 149.48947,2562.5073 143.82377,2581.3588 155.39087,2594.2142 174.7118,2615.6878 185.82331,2609.5076 214.17881,2586.9887 242.53424,2564.4693 247.57495,2551.569 232.51703,2532.9629 222.52354,2520.6146 206.2003,2517.4691 177.84485,2539.9883 Z" />
  <path class="hold" id="hold_86" d="M 675.28211,641.48902 C 708.16714,656.55051 718.36866,663.09875 748.92028,667.80913 798.16155,675.40095 813.9806,673.75499 825.48586,660.85383 853.76047,629.14865 781.8365,616.92347 732.0194,616.92347 682.20229,616.92347 598.2035,606.1868 675.28211,641.48902 Z" />
  <path class="hold" id="hold_87" d="M 845.49831,576.22435 C 844.16732,612.52395 854.84313,615.27626 904.66027,615.27626 954.47735,615.27625 998.25166,618.56881 984.56326,603.84879 955.59754,572.70059 916.49578,533.56156 879.93399,499.54961 833.33529,456.20072 846.88115,538.51018 845.49831,576.22435 Z" />
  <path class="hold" id="hold_88" d="M 970.77251,768.48919 C 941.85105,762.52559 940.76731,763.53413 901.18663,774.04232 847.99337,788.1645 833.06792,813.72208 860.71023,815.29563 903.74661,817.74548 959.23034,816.66389 1009.795,815.172 1074.2406,813.27058 1002.3885,775.00839 970.77251,768.48919 Z" />
  <path class="hold" id="hold_89" d="M 1097.16,1140.8848 C 1164.0474,1117.7901 1129.104,1099.6203 1103.0621,1069.9676 1049.5458,1009.0319 1054.3831,1019.3342 1053.0234,1039.7641 1050.2096,1082.0433 1053.6122,1085.4512 1053.1926,1116.211 1052.3084,1181.0106 1068.1494,1150.9012 1097.16,1140.8848 Z" />
  <path class="hold" id="hold_90" d="M 1216.6551,926.81739 C 1243.6466,914.79313 1247.5502,918.57297 1249.479,877.46976 1252.245,818.51688 1249.1427,805.29009 1233.6302,818.56143 1199.3055,847.92692 1122.9374,927.01045 1084.9217,960.55593 993.24706,1041.451 1173.5093,946.03812 1216.6551,926.81739 Z" />
  <path class="hold" id="hold_91" d="M 843.1824,1094.9356 C 824.5404,1117.9474 834.51981,1152.0501 831.60571,1193.0946 829.16716,1227.441 845.78107,1232.2709 857.54531,1205.8478 876.55885,1163.1425 890.01966,1131.4519 910.50425,1084.9603 936.61221,1025.7058 883.43861,1045.2429 843.1824,1094.9356 Z" />
  <path class="hold" id="hold_92" d="M 1065.1883,1541.193 C 1035.5013,1541.8518 1021.5124,1549.06 996.39971,1581.5572 971.28694,1614.0544 978.49545,1613.3847 998.82565,1614.6749 1053.8296,1618.1655 1038.474,1622.4356 1119.8258,1565.2803 1178.9906,1523.7127 1095.8551,1540.5126 1065.1883,1541.193 Z" />
  <path class="hold" id="hold_93" d="M 159.46651,1687.1928 C 144.98071,1713.0512 188.01083,1771.8484 204.44278,1809.5372 215.32081,1834.4877 241.71633,1821.2247 242.21223,1790.2353 242.82934,1751.6736 247.19183,1745.4931 244.35359,1694.7263 243.01073,1670.7059 165.61553,1676.2166 159.46651,1687.1928 Z" />
  <path class="hold" id="hold_94" d="M 390.48807,1621.9892 C 360.96557,1622.2633 355.83125,1639.4027 330.89916,1672.0403 294.3528,1719.8814 296.21053,1732.8691 314.87258,1724.6602 399.07724,1687.6216 399.21962,1701.4682 430.10817,1652.3413 459.2043,1606.0654 433.60519,1621.5888 390.48807,1621.9892 Z" />
  <path class="hold" id="hold_95" d="M 584.30439,1285.7259 C 571.19623,1300.8501 544.0692,1313.5987 601.73847,1342.4768 628.01946,1355.6372 650.27612,1376.6221 649.52811,1328.0194 649.10733,1300.6804 649.27472,1287.8138 649.52959,1248.6828 649.8593,1198.066 643.19197,1217.7815 584.30439,1285.7259 Z" />
  <path class="hold" id="hold_96" d="M 975.13162,1477.0743 C 999.42755,1489.5927 1009.7936,1468.0815 1028.9763,1445.7375 1048.1587,1423.3937 1060.2238,1412.6461 1035.7524,1412.813 950.18599,1413.3966 965.083,1404.279 962.32256,1429.7464 959.93145,1451.806 959.43617,1468.9874 975.13162,1477.0743 Z" />
  <path class="hold" id="hold_97" d="M 975.34043,1346.6528 C 958.50128,1368.2541 949.88291,1377.8068 1013.1477,1401.196 1052.4707,1415.7338 1052.866,1427.8803 1050.2752,1374.0332 1048.6516,1340.289 1048.0336,1352.4245 1049.6797,1313.3276 1052.0292,1257.5249 1002.8374,1311.3796 975.34043,1346.6528 Z" />
  <path class="hold" id="hold_98" d="M 428.77853,1030.6108 C 403.97111,981.63792 358.59226,1022.9135 339.89238,1045.6668 321.19259,1068.4204 298.94666,1095.9172 342.96591,1093.3897 376.52164,1091.463 392.75006,1088.6098 431.38625,1083.8023 464.03622,1079.7396 437.52421,1047.8759 428.77853,1030.6108 Z" />
  <path class="hold" id="hold_99" d="M 651.00906,2044.8939 C 649.02978,2017.5235 659.20469,2020.6369 611.76613,1993.7399 551.32012,1959.4678 550.71845,1948.7716 555.03342,2005.1196 557.6128,2038.8036 575.59789,2088.5202 612.93679,2101.817 654.57609,2116.6448 654.33223,2090.8489 651.00906,2044.8939 Z" />
  <path class="hold" id="hold_100" d="M 530.42468,972.8331 C 529.92013,1009.6166 524.43324,1014.5438 598.08336,1016.1675 637.41244,1017.0346 670.25543,1017.9844 655.9391,1002.1494 625.64518,968.64171 593.75017,931.85639 556.79986,894.83217 509.706,847.64407 531.33711,906.30721 530.42468,972.8331 Z" />
  <path class="hold" id="hold_101" d="M 1017.6569,1833.4328 C 1051.8431,1813.6386 1047.0654,1830.0828 1048.3604,1766.6504 1049.2004,1725.5102 1056.1616,1700.8958 1038.1757,1710.5101 1006.4215,1727.4849 993.21371,1751.123 971.34773,1800.5185 950.52687,1847.5533 974.60398,1858.3607 1017.6569,1833.4328 Z" />
  <path class="hold" id="hold_102" d="M 907.10881,1933.0825 C 843.64294,1937.1378 841.99351,1931.7441 856.25462,1985.3146 867.11185,2026.0985 884.00972,2026.5079 907.1372,2005.1744 938.89617,1975.8791 914.12226,1990.9427 952.5613,1957.8881 985.2871,1929.7465 970.6085,1929.0249 907.10881,1933.0825 Z" />
  <path class="hold" id="hold_103" d="M 1128.9412,2143.242 C 1118.8682,2073.5182 1118.8195,2063.0127 1085.5317,2039.0603 1039.6769,2006.0651 1048.2586,2011.2913 1051.3451,2055.5592 1053.8172,2091.0141 1044.2642,2084.1752 1107.844,2165.5073 1142.4546,2209.7817 1132.0879,2165.0231 1128.9412,2143.242 Z" />
  <path class="hold" id="hold_104" d="M 1214.38,2026.3031 C 1260.6285,2010.253 1250.8541,2024.1852 1248.9188,1935.0213 1245.0276,1755.7651 1245.5624,1810.0711 1206.3108,1903.4716 1189.5373,1943.3843 1171.0782,1970.5336 1154.4582,2018.5582 1137.0649,2068.8169 1161.4124,2044.6848 1214.38,2026.3031 Z" />
  <path class="hold" id="hold_105" d="M 988.58342,2436.7732 C 983.50478,2407.8184 972.30535,2418.1858 874.27195,2416.5757 851.28062,2416.1982 833.59434,2449.6605 852.07283,2458.2784 891.17397,2476.5151 907.67312,2486.5452 953.78563,2507.4521 1017.2798,2536.2397 993.90957,2467.1371 988.58342,2436.7732 Z" />
  <path class="hold" id="hold_106" d="M 444.48985,2015.2974 C 455.04137,2013.5181 487.05124,2008.5599 507.82003,1973.0993 528.58879,1937.6391 500.5866,1930.8237 482.68759,1940.5998 444.81254,1961.2863 455.56877,1954.2057 412.19136,1980.3665 363.17942,2009.9257 414.23833,2020.3985 444.48985,2015.2974 Z" />
  <path class="hold" id="hold_107" d="M 659.82143,1047.2089 C 682.37296,1066.3617 711.93576,1071.2015 752.6758,1075.2431 797.18065,1079.6582 880.48286,1070.9231 830.56014,1053.9306 789.73219,1040.0334 752.47338,1030.4436 703.10426,1019.356 650.30885,1007.4988 633.32419,1024.7051 659.82143,1047.2089 Z" />
  <path class="hold" id="hold_108" d="M 582.04513,2333.3885 C 637.87518,2336.5833 641.29412,2332.5906 642.57666,2293.5422 644.14561,2245.7728 656.75025,2189.6605 616.82568,2226.7565 583.17114,2258.0267 565.92152,2270.4709 526.14633,2306.0766 475.45201,2351.457 540.63739,2331.0191 582.04513,2333.3885 Z" />
  <path class="hold" id="hold_109" d="M 513.15972,2194.8195 C 545.03379,2181.5192 515.0181,2153.8414 490.13261,2123.8286 461.84605,2089.7144 445.82431,2073.1658 445.21767,2127.2777 444.97652,2148.7819 442.34244,2179.8489 444.39939,2207.8598 445.99794,2229.6279 492.67689,2203.3665 513.15972,2194.8195 Z" />
  <path class="hold" id="hold_110" d="M 1029.6978,524.73831 C 1022.9822,569.40522 1032.0549,559.57195 1069.6218,565.94265 1096.2489,570.45817 1089.2159,542.99003 1089.2159,497.81601 1089.2159,452.64195 1087.7808,414.95938 1060.7773,414.95933 1046.7714,414.9593 1036.7872,477.58476 1029.6978,524.73831 Z" />
  <path class="hold" id="hold_111" d="M 851.98544,249.80872 C 872.4768,320.3042 871.911,311.50631 938.59003,290.26873 1016.0123,265.60943 1051.5645,263.51747 1047.1646,227.2583 1043.7405,199.04097 973.61383,198.17658 923.81125,199.38534 834.42406,201.55483 841.85061,214.94222 851.98544,249.80872 Z" />
  <path class="hold" id="hold_112" d="M 644.44892,235.84193 C 642.51868,267.61412 657.15537,262.79283 738.51286,264.08681 788.32371,264.87904 830.28652,268.25497 831.28943,237.13592 832.52319,198.85573 820.51058,213.78704 733.36342,212.77302 653.93833,211.84888 646.65299,199.56227 644.44892,235.84193 Z" />
  <path class="hold" id="hold_113" d="M 279.50056,267.99912 C 260.21973,298.72135 288.64869,308.81286 343.27145,271.77985 384.57182,243.7791 413.04938,238.30791 439.07986,227.34328 472.40956,213.30405 390.58716,178.06683 348.87798,205.44857 311.47545,230.0031 294.71838,243.7509 279.50056,267.99912 Z" />
  <path class="hold" id="hold_114" d="M 461.58806,350.48648 C 427.91362,435.42889 425.33246,414.8411 556.93939,415.61028 638.92162,416.08943 635.96798,425.23745 652.93437,371.83742 672.54442,310.11671 643.66083,336.77865 544.70944,302.83168 462.77248,274.72176 492.42565,272.69993 461.58806,350.48648 Z" />
  <path class="hold" id="hold_115" d="M 51.848402,1153.7506 C 30.160253,1227.9571 30.797375,1213.9369 138.90622,1214.0115 220.88976,1214.0679 217.89074,1221.758 234.90115,1175.1013 252.27166,1127.4572 234.48188,1144.2075 137.04293,1106.0958 63.399627,1077.2911 71.058348,1088.0222 51.848402,1153.7506 Z" />
  <path class="hold" id="hold_116" d="M 446.44637,1461.3859 C 447.61095,1396.4809 433.37714,1413.6529 341.65375,1439.5508 276.25745,1458.0153 253.11283,1466.8716 270.00898,1504.0457 277.73438,1521.0426 316.4427,1532.4043 355.45129,1527.7232 441.41889,1517.4076 445.41444,1518.8972 446.44637,1461.3859 Z" />
  <path class="hold" id="hold_117" d="M 59.222237,2177.0041 C 57.891176,2238.4839 98.995128,2238.6774 155.44663,2237.6802 201.16814,2236.8726 235.75201,2227.6273 243.51211,2197.567 251.32501,2167.3025 234.23856,2162.5083 135.28721,2128.5613 53.350176,2100.4515 60.731418,2107.2941 59.222237,2177.0041 Z" />
  <path class="hold" id="hold_118" d="M 1077.8432,1759.3813 C 1113.8567,1843.3485 1097.5377,1830.639 1191.062,1737.5648 1249.3212,1679.5858 1253.6753,1688.15 1228.065,1638.353 1198.4643,1580.7969 1196.8295,1620.1801 1103.0175,1666.5844 1025.3365,1705.0094 1044.8633,1682.4875 1077.8432,1759.3813 Z" />
  <path class="hold" id="hold_119" d="M 787.5978,2213.0188 C 872.34895,2246.244 851.88619,2248.9891 851.68791,2116.7019 851.56441,2034.2961 860.68691,2037.1976 807.43786,2020.5352 745.89168,2001.2765 772.62769,2030.113 739.58005,2129.8201 712.21486,2212.383 709.98638,2182.5926 787.5978,2213.0188 Z" />
  <path class="hold" id="hold_120" d="M 460.35576,603.16547 C 460.35578,639.48969 505.7024,625.85089 559.98985,624.76332 669.12842,622.57689 645.55473,613.76265 647.16166,569.6233 649.35283,509.4358 642.06351,509.97535 562.74863,532.21851 509.20114,547.23542 460.35576,566.84129 460.35576,603.16547 Z" />
  <path class="hold" id="hold_121" d="M 351.81235,789.06753 C 324.51138,812.86676 341.47348,816.74607 401.7851,816.74607 466.17801,816.74607 447.0937,801.36432 482.0755,735.15235 499.0249,703.07123 554.23622,609.4274 513.14386,637.73569 480.81765,660.005 400.20381,746.88298 351.81235,789.06753 Z" />
  <path class="hold" id="hold_122" d="M 298.49672,623.7341 C 299.88393,654.67417 321.39056,654.34284 371.20768,654.34284 421.02477,654.34284 448.75447,664.55881 445.08469,628.42238 442.16955,599.71662 419.5621,597.27552 397.44402,601.32985 348.36092,610.32703 298.08212,614.48689 298.49672,623.7341 Z" />
  <path class="hold" id="hold_123" d="M 212.00771,747.88392 C 212.00774,784.20811 223.59504,819.72367 245.07264,815.4128 264.99612,811.41383 261.2297,780.10589 261.2297,743.78169 261.2297,707.45746 249.4837,684.96011 239.82539,685.04331 218.35808,685.22822 212.00771,711.55971 212.00771,747.88392 Z" />
  <path class="hold" id="hold_124" d="M 971.56474,1000.9617 C 1002.5724,1019.6175 1059.7924,1024.239 1050.1588,1004.4684 1041.1092,985.89598 1009.6968,958.71554 986.06975,949.0924 961.6809,939.15904 939.7427,930.34184 934.85329,938.7145 923.98578,957.32412 940.55708,982.30594 971.56474,1000.9617 Z" />
  <path class="hold" id="hold_125" d="M 986.38925,1206.5355 C 1031.9788,1218.586 1052.5079,1240.4099 1049.1482,1191.6311 1046.9899,1160.2966 1038.0014,1169.3585 988.07855,1159.3222 952.64235,1152.1979 931.84717,1154.2748 929.9985,1163.8037 925.88947,1184.9834 951.24689,1197.2468 986.38925,1206.5355 Z" />
  <path class="hold" id="hold_126" d="M 785.78979,960.1811 C 786.87626,982.94866 796.86983,979.32767 827.60014,1004.8547 855.45862,1027.9961 851.3366,1004.1238 851.3366,967.79954 851.33656,931.47536 847.4759,923.62803 819.50196,932.41571 789.135,941.955 785.15356,946.84937 785.78979,960.1811 Z" />
  <path class="hold" id="hold_127" d="M 1097.7261,1351.95 C 1083.7075,1356.9676 1076.9944,1380.205 1068.2896,1393.1503 1048.0513,1423.2473 1070.9674,1412.3293 1107.0926,1411.3673 1143.218,1410.405 1159.9575,1398.6782 1138.4031,1378.7167 1112.9045,1355.1026 1110.2354,1347.4725 1097.7261,1351.95 Z" />
  <path class="hold" id="hold_128" d="M 649.63234,1945.0256 C 649.27817,1986.4925 688.9019,1993.6268 743.03276,1987.6478 796.70579,1981.7194 829.34931,1990.5227 832.01949,1937.513 833.26499,1912.7871 778.98812,1911.7643 732.15753,1894.6872 629.88343,1857.3923 650.27203,1870.1205 649.63234,1945.0256 Z" />
  <path class="hold" id="hold_129" d="M 1050.256,704.72525 C 1049.8292,814.36713 1038.5182,820.36114 1117.0505,792.42404 1181.4092,769.52911 1192.7092,794.75882 1159.4948,695.90791 1125.4964,594.72478 1142.0946,587.4982 1091.7097,601.98845 1038.1012,617.40581 1050.6239,610.21251 1050.256,704.72525 Z" />
  <path class="hold" id="hold_130" d="M 239.90756,508.53774 C 238.42252,607.54278 238.66852,596.60478 284.47936,597.55212 337.56737,598.6499 334.60541,612.32808 334.30319,507.47406 334.03335,413.83517 340.95192,414.6591 288.54614,414.95419 234.93766,415.25607 241.32504,414.03502 239.90756,508.53774 Z" />
  <path class="hold" id="hold_131" d="M 281.82565,983.47074 C 323.20292,1022.2287 315.60284,1016.8695 331.97408,999.54956 350.94585,979.47818 352.58438,985.73994 312.41578,949.74565 273.29309,914.68857 278.76414,913.37327 260.55836,933.67193 241.93476,954.43642 246.15787,950.06099 281.82565,983.47074 Z" />
  <path class="hold" id="hold_132" d="M 360.58149,1308.6215 C 360.15472,1418.2634 357.75513,1400.4115 403.56595,1401.3587 456.654,1402.4565 449.98129,1412.9409 448.09863,1308.6215 446.265,1207.0184 455.27646,1213.1473 402.87069,1213.4424 349.26223,1213.7442 360.94943,1214.1087 360.58149,1308.6215 Z" />
  <path class="hold" id="hold_133" d="M 441.39038,1712.9225 C 440.96358,1810.06 439.94628,1797.7656 485.7571,1798.7129 538.84515,1799.8107 530.79019,1817.2419 528.90755,1712.9225 527.07392,1611.3194 539.25817,1617.9798 486.85238,1618.275 433.24392,1618.5767 441.80567,1618.4099 441.39038,1712.9225 Z" />
  <path class="hold" id="hold_134" d="M 357.34993,2506.2979 C 356.92314,2615.9399 354.52357,2598.0877 400.3344,2599.0353 453.42242,2600.1331 446.74973,2610.6173 444.86709,2506.2979 443.03348,2404.6948 452.04493,2410.8238 399.63915,2411.1189 346.03066,2411.4209 357.71787,2411.7852 357.34993,2506.2979 Z" />
  <path class="hold" id="hold_135" d="M 701.5464,2573.4151 C 745.78351,2615.2782 770.15015,2621.6918 815.28273,2580.169 854.45182,2544.1331 854.47798,2555.0408 780.34102,2482.0132 708.13444,2410.8872 718.48812,2409.2159 681.68731,2446.7197 647.62769,2481.4298 669.10538,2542.715 701.5464,2573.4151 Z" />
  <path class="hold" id="hold_136" d="M 508.09347,1078.9858 C 430.43168,1146.0292 443.26122,1137.0068 472.86747,1176.383 491.19139,1200.7537 536.09055,1208.3579 577.46404,1155.2318 626.79847,1091.8835 640.78452,1080.4084 611.33555,1048.937 572.64162,1007.5855 583.19783,1014.1503 508.09347,1078.9858 Z" />
  <path class="hold" id="hold_137" d="M 442.26086,907.90059 C 442.01642,1014.7832 440.64218,997.38047 466.87733,998.30398 497.28001,999.37409 493.45864,1009.5946 492.38052,907.90059 491.3304,808.85459 496.49107,814.82921 466.47915,815.11686 435.77849,815.41116 442.47154,815.76644 442.26086,907.90059 Z" />
  <path class="hold" id="hold_138" d="M 551.59524,1409.9676 C 445.2795,1411.991 447.01981,1424.9119 488.31933,1441.503 516.56796,1452.8515 529.62231,1456.6992 560.43636,1458.6645 631.70579,1463.2099 650.60767,1445.159 650.11783,1431.1468 649.62669,1417.0963 622.70643,1408.6143 551.59524,1409.9676 Z" />
  <path class="hold" id="hold_139" d="M 803.76534,1509.0775 C 803.51457,1618.9856 802.10464,1601.0903 829.02183,1602.0399 860.21493,1603.1404 856.2942,1613.65 855.18802,1509.0775 854.11064,1407.2281 859.40554,1413.3718 828.61334,1413.6677 797.11446,1413.9702 803.98154,1414.3357 803.76534,1509.0775 Z" />
  <path class="hold" id="hold_140" d="M 838.1034,1718.8208 C 826.70897,1746.1976 820.91828,1767.0004 819.98139,1808.1385 819.66485,1822.0386 866.29589,1834.3899 870.67298,1804.6203 877.34197,1759.2635 879.67075,1753.5096 882.70482,1696.3872 886.1421,1631.6737 846.74479,1698.0588 838.1034,1718.8208 Z" />
  <path class="hold" id="hold_141" d="M 632.87196,1796.0469 C 647.57602,1821.7805 668.6437,1814.0934 709.58116,1814.3012 769.02012,1814.6029 783.15184,1806.1672 765.49883,1795.9493 728.14426,1774.3278 719.70185,1773.2456 674.85984,1749.7117 617.70782,1719.7171 617.59501,1769.3104 632.87196,1796.0469 Z" />
</svg>